<?xml version="1.0" encoding="UTF-8"?>
<svg id="_圖層_1" data-name="圖層 1" xmlns="http://www.w3.org/2000/svg" viewBox="0 0 413.06 120">
  <path d="M105.91,53.85c2.17-11.15-.18-20.83-6.62-27.26-4.84-4.84-11.58-7.39-19.49-7.39-4.91,0-10.05.99-15.18,2.85-5.12-1.85-10.27-2.85-15.18-2.85-7.91,0-14.65,2.56-19.49,7.39-6.43,6.43-8.78,16.12-6.62,27.26.48,2.49,1.19,4.98,2.09,7.46-4.79,13.36-3.58,26.5,4.53,34.61,4.84,4.84,11.58,7.39,19.49,7.39,4.91,0,10.06-.99,15.18-2.85,5.12,1.85,10.27,2.85,15.18,2.85,7.91,0,14.65-2.56,19.49-7.39,8.11-8.11,9.32-21.24,4.53-34.61.9-2.48,1.6-4.97,2.09-7.46ZM96.68,76.48c0,1.71-1.39,3.1-3.1,3.1-.09,0-.17-.02-.26-.03-1.18-.1-2.18-.85-2.61-1.91-.15-.36-.23-.75-.23-1.16,0-1.71,1.39-3.1,3.1-3.1.11,0,.21.02.31.03,1.18.12,2.16.89,2.57,1.96.13.34.21.72.21,1.11ZM95.76,70.56c-.68-.25-1.41-.41-2.18-.41-3.49,0-6.33,2.84-6.33,6.33,0,1.4.47,2.68,1.24,3.73-.77.85-1.56,1.7-2.39,2.52-5.98,5.98-12.82,10.62-19.78,13.6v-22.4c6.78-.85,11.99-6.65,11.99-13.56s-1.33-12.91-3.74-17.79c-2.59-5.25-6.13-8.15-9.95-8.15s-7.35,2.89-9.95,8.15c-2.41,4.88-3.74,11.2-3.74,17.79,0,6.91,5.21,12.72,11.98,13.56v22.4c-6.96-2.98-13.79-7.62-19.77-13.6-6.46-6.46-11.37-13.88-14.3-21.48,1.51-3.91,3.58-7.83,6.17-11.65.81.38,1.71.61,2.67.61,3.49,0,6.33-2.84,6.33-6.33,0-1.39-.47-2.67-1.23-3.72.13-.13.24-.26.37-.38,6.47-6.47,13.94-11.37,21.48-14.29,7.54,2.92,15.01,7.82,21.48,14.29,6.61,6.61,11.44,14.08,14.3,21.47-1.22,3.15-2.77,6.27-4.64,9.31ZM71.89,52.84s-.08-.06-.19-.06h-14.16c-.11,0-.16.03-.19.06-.02.01-.03.06-.03.13v1.1c0,.45.11.79.34,1.05.21.24.48.36.85.36h4.41v15.57c-5.17-.82-9.11-5.35-9.11-10.67,0-6.07,1.25-12.09,3.44-16.52,2.05-4.16,4.74-6.55,7.37-6.55s5.32,2.39,7.37,6.55c2.19,4.43,3.44,10.45,3.44,16.52,0,5.32-3.94,9.85-9.12,10.67v-15.57h4.41c.36,0,.63-.11.85-.36.23-.26.34-.6.34-1.05v-1.1c0-.05,0-.11-.03-.13ZM34.58,43.89c0-1.71,1.39-3.1,3.1-3.1.03,0,.06,0,.09,0,1.21.04,2.24.76,2.72,1.8.18.39.29.83.29,1.28,0,1.71-1.39,3.1-3.1,3.1-.25,0-.49-.04-.73-.09-1.14-.28-2.03-1.17-2.29-2.31-.05-.22-.08-.45-.08-.69ZM26.51,53.24c-1.95-10.06.08-18.71,5.73-24.36,4.22-4.22,10.17-6.45,17.21-6.45,3.42,0,6.97.54,10.55,1.53-6.76,3.15-13.34,7.75-19.13,13.54-.21.21-.4.42-.6.62-.79-.35-1.66-.56-2.58-.56-3.49,0-6.33,2.84-6.33,6.33,0,1.36.44,2.62,1.18,3.65-2.04,2.99-3.78,6.05-5.2,9.13-.32-1.14-.59-2.29-.82-3.43ZM49.45,100.09c-7.04,0-12.99-2.23-17.2-6.45-6.54-6.54-7.96-16.83-4.94-27.75,3.15,6.78,7.76,13.33,13.56,19.12,5.79,5.79,12.37,10.4,19.13,13.54-3.58.99-7.13,1.53-10.55,1.53ZM97,93.64c-4.22,4.22-10.17,6.45-17.21,6.45-3.42,0-6.97-.54-10.55-1.53,6.76-3.15,13.34-7.75,19.13-13.54.9-.9,1.77-1.83,2.61-2.77.79.35,1.66.56,2.58.56,3.49,0,6.33-2.84,6.33-6.33,0-1.55-.58-2.95-1.51-4.05,1.33-2.14,2.51-4.33,3.54-6.54,3.03,10.91,1.6,21.21-4.94,27.75ZM88.38,37.5c-5.79-5.79-12.37-10.4-19.13-13.54,3.58-.99,7.13-1.53,10.55-1.53,7.04,0,12.99,2.23,17.21,6.45,5.65,5.65,7.68,14.3,5.73,24.36-.22,1.14-.5,2.28-.82,3.43-3.08-6.67-7.63-13.26-13.54-19.17Z"/>
  <g>
    <path d="M137.54,87.37h-7.62c2.6,1.22,5.37,2.66,7.05,3.69l-2.14,2.47c-1.74-1.19-4.72-2.96-7.43-4.23l1.52-1.93h-8.27l2.41,1.95c-2.36,1.55-5.72,3.25-8.38,4.31-.43-.68-1.25-1.74-1.82-2.41,2.44-.92,5.64-2.52,7.43-3.85h-7.43v-2.96h1.95l-.38-14.21c1.52-.43,3.28-1.11,4.5-1.71l1.36,2.63v-1.52h9.84v14.81h2.74c.05-.76.08-1.55.14-2.39h-2.28v-2.55h2.39c.03-.76.05-1.55.05-2.33h-2.22v-2.58h2.3c0-.87.03-1.68.03-2.52h-2.41v-2.6h5.23c-.05,4.75-.24,10.77-.49,14.97h1.93v2.96ZM117.53,84.41h2.77v-13.15c-1.03.3-2.06.6-3.09.84l.08,2.44h2.36v2.58h-2.3l.05,2.3h2.28v2.58h-2.2l.05,2.41ZM122.55,72.02v12.39h5.26v-12.39h-5.26ZM127.16,75.38h-3.99v-1.98h4.01l-.03,1.98ZM123.28,76.71h3.9v6.1h-3.9v-6.1ZM124.61,80.97h1.22v-2.41h-1.22v2.41Z"/>
    <path d="M146.44,75.95v-1.06c-.95.7-1.9,1.38-2.9,1.95h11.44v8.52h-9.41c-.05.27-.08.57-.14.84h10.2v7.24h-2.82v-.73h-5.02v.84h-2.68v-5.61c-.38,1.71-.95,3.36-1.74,4.75-.62-.41-2.03-1-2.82-1.25,2.14-3.44,2.36-8.3,2.36-11.47v-2.74l-.62.33c-.3-.76-1.14-2.39-1.68-3.09,3.15-1.33,6.32-3.55,8.05-6.16l2.96,1.17c-.16.24-.33.46-.49.68,2.01,1.17,4.26,2.49,5.5,3.39l-1.65,2.71c-.73-.6-1.79-1.3-2.96-2.06v1.76h-5.59ZM152.05,83.14v-1.11h-6.21c0,.35-.03.73-.05,1.11h6.26ZM145.9,79.07v1.06h6.16v-1.06h-6.16ZM151.84,74.06c-.87-.54-1.76-1.11-2.58-1.63-.57.54-1.17,1.11-1.76,1.63h4.34ZM147.79,88.4v1.93h5.02v-1.93h-5.02ZM160.19,86.26h-3.04v-15.13h3.04v15.13ZM165.15,68.42v21.37c0,1.74-.33,2.6-1.33,3.12-.95.54-2.5.65-4.66.65-.14-.9-.52-2.33-.95-3.23,1.38.03,2.79.03,3.23.03s.62-.14.62-.6v-21.34h3.09Z"/>
    <path d="M177.22,82.08c-.05.38-.11.76-.19,1.11,1.41,1.38,4.34,4.77,5.1,5.67l-2.17,2.71c-.89-1.41-2.44-3.44-3.77-5.1-.92,2.66-2.52,5.21-5.12,7.1-.43-.68-1.63-1.95-2.31-2.44,3.53-2.52,4.77-5.91,5.21-9.06h-4.8v-3.04h5.02v-4.31h-1.08c-.54,1.38-1.17,2.63-1.84,3.63-.6-.54-1.87-1.46-2.6-1.87,1.46-1.95,2.49-5.07,3.04-8.16l3.09.62c-.19.95-.41,1.87-.68,2.79h7.16v2.98h-3.82v4.31h4.45v3.04h-4.66ZM192.95,70.67v21.8h-3.28v-1.55h-3.93v1.95h-3.12v-22.21h10.33ZM189.67,87.89v-14.18h-3.93v14.18h3.93Z"/>
    <path d="M209.14,90.68c0,1.33-.24,2.01-1.14,2.44-.87.41-2.09.46-3.74.46-.14-.76-.57-1.82-.98-2.52.98.05,2.03.05,2.36.05.35,0,.46-.11.46-.46v-2.77c-1.36.98-2.71,1.9-3.93,2.69l-.68-1.9c-.3,1.84-.89,3.69-1.93,5.1-.46-.62-1.68-1.79-2.25-2.17,1.44-2.12,1.55-5.1,1.55-7.46v-6.1h10.28v12.64ZM207.62,70.34c1.14,1.95,2.58,4.61,3.23,6.24l-2.82,1.14c-.16-.49-.41-1.06-.68-1.71-6.86.68-7.97.84-8.76,1.17-.16-.62-.68-2.09-1-2.9.49-.11.95-.49,1.49-1.08.54-.6,2.2-2.68,3.2-4.83l3.25.92c-.92,1.57-2.14,3.15-3.34,4.5l3.96-.3c-.41-.79-.79-1.55-1.14-2.2l2.6-.95ZM201.84,84.17c0,1.03-.05,2.25-.19,3.47,1.22-.54,2.82-1.36,4.45-2.22v-.9l-1.3,1.27c-.68-.71-1.93-1.76-2.96-2.6v.98ZM201.84,80.75v1.93l1.36-1.17c.92.65,2.09,1.6,2.9,2.3v-3.06h-4.26ZM215.24,80.29c-3.25,0-4.12-1.19-4.12-4.2v-7.7h3.2v3.2h6.67v2.77h-6.67v1.79c0,1,.16,1.38,1.03,1.38h3.96c.76,0,1.9-.08,2.49-.22.05.84.19,2.01.3,2.74-.57.19-1.71.24-2.74.24h-4.12ZM218.66,90.65c.92,0,1.11-.46,1.25-2.96.65.49,1.95.98,2.79,1.17-.33,3.55-1.17,4.61-3.74,4.61h-3.85c-3.2,0-3.99-.95-3.99-3.9v-8.52h3.2v2.71h6.86v2.85h-6.86v2.96c0,.95.19,1.08,1.25,1.08h3.09Z"/>
    <path d="M249.92,80.67c-.87,3.44-2.44,6.07-4.5,8.14,1.55.87,3.34,1.55,5.29,2.01-.71.68-1.63,1.95-2.06,2.79-2.25-.62-4.18-1.55-5.83-2.71-1.74,1.11-3.72,1.95-5.91,2.6-.3-.81-1.03-2.01-1.6-2.68-.08.95-.35,1.6-1,2.01-.76.52-1.84.6-3.42.6-.08-.81-.43-2.2-.81-3.01.84.03,1.65.03,1.95.03s.41-.11.41-.43v-5.4c-.73.46-1.41.92-2.09,1.33l-.79-1.95c-.19,3.39-.65,7.02-1.68,9.68-.57-.49-1.9-1.19-2.58-1.46,1.41-3.72,1.49-9.14,1.49-13.07v-9.84h8.54v8.11c2.93-1.46,3.28-3.42,3.28-5.18v-2.9h9.11v5.94c0,.79.05,1.08.38,1.08h1.06c.35,0,.98-.08,1.33-.19.08.79.14,1.84.24,2.58-.41.14-1,.16-1.55.16h-1.38c-2.58,0-3.09-1.08-3.09-3.69v-2.9h-3.17v.03c0,2.58-.79,5.53-4.34,7.35-.33-.52-1.27-1.49-1.87-2.01v12.39c0,.22,0,.43-.03.62,1.84-.43,3.55-1.08,5.04-1.93-1.41-1.52-2.58-3.28-3.47-5.29l1.33-.41h-1.95v-3.01h11.04l.6-.14,2.03.76ZM229.69,79.1c0,1.11-.03,2.39-.08,3.69.81-.27,1.76-.62,2.82-1.03v-2.96l-1.08.87c-.35-.52-.98-1.3-1.65-2.06v1.49ZM229.69,72.18v3.36l.76-.54c.65.62,1.38,1.36,1.98,2.03v-4.85h-2.74ZM239.89,83.06c.7,1.44,1.74,2.74,2.96,3.85,1.19-1.06,2.2-2.36,2.93-3.85h-5.88Z"/>
    <path d="M262.26,69.39c-.73,1.87-1.6,3.8-2.6,5.64v18.58h-3.17v-13.67c-.57.73-1.14,1.38-1.71,2.01-.3-.81-1.17-2.58-1.74-3.36,2.44-2.44,4.83-6.29,6.18-10.17l3.04.98ZM274.19,69.12c.76,3.25,2.55,6.48,4.91,8.24-.6.76-1.55,2.39-1.98,3.44-.38-.35-.73-.7-1.06-1.08-.03.3-.03.68-.03.9-.33,7.62-.62,10.58-1.41,11.55-.54.76-1.14,1-1.95,1.14-.71.14-1.82.16-3.04.11-.08-.9-.38-2.14-.84-2.93.92.11,1.76.11,2.22.11.38,0,.6-.08.84-.38.43-.57.7-2.63.95-7.92h-3.42c-.7,5.45-2.58,9-6.54,11.23-.38-.62-1.49-1.84-2.14-2.39,3.44-1.63,5.02-4.56,5.53-8.84h-2.5v-2.79c-.35.41-.73.79-1.11,1.14-.38-.73-1.41-2.28-1.98-2.98,2.2-1.87,3.9-4.85,4.83-8.11l3.17.81c-1,3.36-2.66,6.59-4.75,8.95h11.8c-1.68-2.03-3.06-4.61-3.96-7.1h-2.41v-3.09h4.85Z"/>
    <path d="M291.96,74.63c-.3.73-.68,1.44-1.08,2.14h12.61v13.4c0,1.6-.3,2.47-1.41,2.96-1.06.51-2.6.54-4.8.54-.14-.9-.57-2.25-.98-3.12,1.38.08,2.96.08,3.42.08.46-.03.62-.16.62-.54v-1.63h-10.2c-.46,2.03-1.33,4.01-3.01,5.4-.43-.68-1.65-2.03-2.33-2.47,2.33-2.03,2.52-4.94,2.52-7.46v-2.2c-1.03,1.08-2.12,2.09-3.36,2.96-.49-.73-1.49-1.9-2.12-2.49,2.74-1.82,4.91-4.56,6.51-7.57h-5.88v-3.04h7.27c.43-1.11.79-2.2,1.08-3.28l3.34.76c-.27.84-.57,1.68-.87,2.52h13.23v3.04h-14.56ZM300.34,85.77v-1.76h-9.74c0,.57-.03,1.14-.05,1.76h9.79ZM300.34,79.61h-9.74v1.71h9.74v-1.71Z"/>
    <path d="M320.24,70.48c-.7,2.28-1.6,5.02-2.33,7.1,1.63,2.12,1.95,4.04,1.95,5.64,0,1.74-.35,2.9-1.22,3.55-.41.33-.92.49-1.52.6-.49.08-1.14.08-1.76.05,0-.79-.27-1.98-.7-2.77.46.03.87.05,1.17.03.27,0,.54-.05.73-.22.33-.24.49-.84.49-1.6,0-1.33-.35-3.06-1.9-4.96.52-1.65,1.11-3.85,1.55-5.64h-2.63v21.34h-2.82v-24.22h6.45l.43-.14,2.11,1.22ZM334.86,84.41c-1.17.92-2.58,1.95-3.8,2.74,1.14,1.55,2.6,2.82,4.39,3.63-.7.62-1.68,1.9-2.14,2.79-4.04-2.22-6.21-6.4-7.48-11.71h-1.63v7.62l3.77-.84c-.03.92.03,2.25.14,2.93-5.29,1.36-6.29,1.76-6.94,2.17-.24-.7-.92-1.98-1.38-2.52.57-.35,1.25-1.08,1.25-2.36v-19.44h12.26v12.45h-4.69c.3,1.06.65,2.03,1.08,2.96,1.11-.84,2.3-1.84,3.09-2.68l2.09,2.28ZM324.2,72.18v2.12h5.97v-2.12h-5.97ZM324.2,79.07h5.97v-2.17h-5.97v2.17Z"/>
    <path d="M348.93,70.1c-1.98,4.45-5.15,9.03-8.08,11.88-.62-.7-2.06-2.12-2.87-2.77,2.87-2.41,5.72-6.35,7.35-10.28l3.61,1.17ZM356.53,82.54c2.2,2.98,4.69,6.83,6.02,9.36l-3.34,1.76c-.35-.79-.84-1.68-1.41-2.66-13.1,1.03-14.94,1.19-16.27,1.68-.22-.68-.84-2.49-1.33-3.44.89-.24,1.63-.98,2.71-2.17,1.14-1.17,4.53-5.78,6.67-10.28l3.77,1.57c-2.09,3.66-4.69,7.29-7.32,10.22l9.95-.65c-.87-1.36-1.76-2.77-2.6-3.96l3.15-1.44ZM357.04,68.99c1.17,3.8,3.63,7.62,6.97,9.65-.73.7-1.9,2.25-2.44,3.25-3.09-2.36-5.5-5.99-7.02-9.57h-4.34v-3.34h6.83Z"/>
    <path d="M389.96,89.57c0,1.84-.33,2.82-1.49,3.39-1.11.57-2.85.65-5.26.62-.11-.95-.6-2.55-1.06-3.5,1.52.11,3.31.08,3.82.05.49,0,.68-.14.68-.6v-16.51h-18.93v-3.06h22.24v19.61ZM383.94,77.77h-15.94v-2.82h15.94v2.82ZM372.53,88.94v1.95h-3.15v-11.12h13.15v9.17h-10.01ZM372.53,82.54v3.63h6.83v-3.63h-6.83Z"/>
  </g>
  <path d="M135.42,28.01h-21.47c-.27,0-.5.1-.69.28-.19.19-.28.42-.28.69v5.53c0,.27.09.5.28.69.19.19.42.29.69.29h5.77c.3,0,.54.1.71.28.18.19.26.42.26.69v20.33c0,.27.09.5.28.69.19.19.42.28.69.28h6.1c.3,0,.53-.09.71-.28.18-.19.26-.42.26-.69v-20.33c0-.27.09-.5.28-.69.19-.19.42-.28.69-.28h5.69c.3,0,.53-.1.71-.29.18-.19.26-.42.26-.69v-5.53c0-.27-.09-.5-.26-.69-.18-.19-.41-.28-.71-.28Z"/>
  <path d="M168.32,28.01h-6.1c-.3,0-.54.09-.71.28-.18.19-.26.42-.26.69v9.6c0,.27-.09.5-.28.69-.19.19-.42.28-.69.28h-8.34c-.3,0-.53-.09-.71-.28s-.26-.42-.26-.69v-9.6c0-.27-.1-.5-.29-.69-.19-.19-.42-.28-.69-.28h-6.09c-.3,0-.54.1-.72.28-.18.19-.27.42-.27.69v27.81c0,.27.09.5.27.69.18.19.42.28.72.28h6.09c.27,0,.5-.09.69-.28.19-.19.29-.42.29-.69v-8.7c0-.27.09-.5.26-.69s.41-.29.71-.29h8.34c.27,0,.5.1.69.29.19.19.28.42.28.69v8.7c0,.27.09.5.26.69.18.19.41.28.71.28h6.1c.27,0,.5-.09.69-.28.19-.19.28-.42.28-.69v-27.81c0-.27-.1-.5-.28-.69-.19-.19-.42-.28-.69-.28Z"/>
  <path d="M185.97,28.05h-6.11c-.3,0-.53.1-.71.29s-.26.42-.26.69v27.77c0,.27.09.5.26.69.18.19.41.28.71.28h6.11c.27,0,.5-.09.69-.28.19-.19.28-.42.28-.69v-27.77c0-.27-.09-.5-.28-.69-.19-.19-.42-.29-.69-.29Z"/>
  <path d="M222.65,28.01h-6.02c-.27,0-.5.1-.69.28-.19.19-.28.42-.28.69v14.56c0,.27-.09.42-.26.45-.18.03-.35-.07-.51-.28l-10.57-14.92c-.16-.22-.39-.4-.69-.55-.3-.15-.58-.22-.85-.22h-6.1c-.27,0-.5.1-.69.28-.19.19-.28.42-.28.69v27.81c0,.27.1.5.29.69.19.19.42.28.69.28h6.09c.27,0,.5-.09.69-.28.19-.19.29-.42.29-.69v-14.56c0-.27.09-.43.26-.47.18-.04.34.05.51.26l10.59,14.92c.16.22.39.41.69.57.3.16.58.24.85.24h6.01c.27,0,.5-.09.69-.28.19-.19.28-.42.28-.69v-27.81c0-.27-.1-.5-.28-.69-.19-.19-.42-.28-.69-.28Z"/>
  <path d="M257.23,53.65c-.99-1.07-1.99-2.16-3.01-3.25-1.02-1.1-2.04-2.19-3.07-3.27-1.03-1.08-2.01-2.13-2.93-3.13-.19-.19-.29-.43-.3-.71-.01-.28.06-.53.22-.75l10.7-13.38c.16-.22.2-.45.12-.71-.08-.26-.27-.39-.57-.39h-7.77c-.3,0-.6.08-.89.22-.3.15-.53.33-.69.55l-7.32,9.72c-.16.22-.3.31-.41.26-.11-.04-.16-.2-.16-.47v-9.35c0-.27-.1-.5-.28-.69-.19-.19-.42-.28-.69-.28h-6.1c-.3,0-.54.1-.71.28-.18.19-.26.42-.26.69v27.81c0,.27.09.5.26.69.18.19.41.28.71.28h6.1c.27,0,.5-.09.69-.28.19-.19.28-.42.28-.69v-8.34c0-.27.06-.43.18-.49.12-.05.28.03.47.24l7.89,8.82c.16.22.4.39.71.53.31.14.62.2.92.2h8.42c.3,0,.47-.14.53-.41.05-.27-.02-.51-.2-.73-.89-.92-1.84-1.92-2.83-2.99Z"/>
  <path d="M273.27,56.31c-.17,0-.34-.03-.51-.09-.68-.24-1.1-.91-1.02-1.62l.94-8.31h-1.69v10.51c0,.27.09.5.28.69.19.19.42.28.69.28h6.1c.3,0,.54-.09.71-.28.18-.19.26-.42.26-.69v-8.28l-4.48,7.07c-.29.45-.78.71-1.3.71Z"/>
  <path d="M285.72,28.01h-21.47c-.27,0-.5.1-.69.28-.19.19-.28.42-.28.69v5.53c0,.27.09.5.28.69.19.19.42.29.69.29h5.77c.3,0,.54.1.71.28.18.19.26.42.26.69v.35l4.38-7.17c.37-.61,1.12-.88,1.8-.66.68.23,1.11.89,1.04,1.6l-.81,8.51h1.64v-2.63c0-.27.09-.5.28-.69s.42-.28.69-.28h5.69c.3,0,.54-.1.71-.29.18-.19.26-.42.26-.69v-5.53c0-.27-.09-.5-.26-.69-.18-.19-.41-.28-.71-.28Z"/>
  <path d="M390.22,28.3c-.19-.19-.42-.28-.69-.28h-6.02c-.27,0-.5.1-.69.28-.19.19-.28.42-.28.69v14.56c0,.27-.09.42-.26.45-.18.03-.35-.07-.51-.28l-10.57-14.92c-.16-.22-.39-.4-.69-.55-.3-.15-.58-.22-.85-.22h-6.1c-.27,0-.5.1-.69.28s-.29.42-.29.69v27.81c0,.27.1.5.29.69.19.19.42.28.7.28h6.09c.27,0,.5-.09.69-.28.19-.19.29-.42.29-.69v-14.56c0-.27.09-.43.26-.47s.35.05.51.26l10.59,14.92c.16.22.39.41.69.57s.58.24.85.24h6.01c.27,0,.5-.09.69-.28.19-.19.28-.42.28-.69v-27.81c0-.27-.09-.5-.28-.69Z"/>
  <polygon points="279.05 40.64 275.71 40.64 276.68 30.45 271 39.77 267.96 44.75 271 44.75 274.41 44.75 273.27 54.77 279.05 45.65 282.22 40.64 279.05 40.64"/>
  <path d="M350.56,32.02c-1.4-1.4-3.03-2.5-4.9-3.31-1.87-.81-3.86-1.22-5.98-1.22s-4.11.41-5.98,1.22c-1.87.81-3.5,1.92-4.88,3.31-1.38,1.4-2.48,3.03-3.29,4.9-.81,1.87-1.22,3.86-1.22,5.98s.41,4.11,1.22,5.98c.81,1.87,1.91,3.5,3.29,4.9,1.38,1.4,3.01,2.5,4.88,3.31,1.87.81,3.86,1.22,5.98,1.22s4.11-.41,5.98-1.22c1.87-.81,3.5-1.92,4.9-3.31s2.5-3.03,3.31-4.9c.81-1.87,1.22-3.86,1.22-5.98s-.41-4.11-1.22-5.98c-.81-1.87-1.92-3.5-3.31-4.9ZM346.47,45.82c-.38.92-.91,1.73-1.59,2.44-.68.71-1.46,1.27-2.36,1.69-.89.42-1.84.63-2.85.63s-1.95-.21-2.85-.63c-.89-.42-1.67-.98-2.34-1.69-.66-.7-1.19-1.52-1.57-2.44-.38-.92-.57-1.9-.57-2.93s.19-1.97.57-2.91c.38-.93.9-1.75,1.57-2.44s1.44-1.25,2.34-1.67c.89-.42,1.84-.63,2.85-.63s1.95.21,2.85.63c.89.42,1.68.98,2.36,1.67.68.69,1.21,1.51,1.59,2.44.38.94.57,1.91.57,2.91s-.19,2.01-.57,2.93Z"/>
  <path d="M316.17,52.74c-1.14-1.44-2.22-2.83-3.25-4.19-.16-.22-.21-.44-.14-.67.07-.23.21-.43.43-.59.65-.41,1.23-.92,1.75-1.52.51-.61.96-1.29,1.34-2.05.38-.76.67-1.57.87-2.42.2-.85.3-1.71.3-2.58,0-1.57-.26-3.01-.79-4.31s-1.26-2.43-2.2-3.38c-.94-.95-2.07-1.69-3.4-2.22-1.33-.53-2.78-.79-4.35-.79h-12.65c-.27,0-.5.1-.69.28s-.29.42-.29.69v27.81c0,.27.1.5.29.69.19.19.42.28.7.28h6.09c.27,0,.5-.09.69-.28.19-.19.29-.42.29-.69v-6.59c0-.27.09-.5.28-.69.19-.19.42-.28.69-.28h.89c.27,0,.55.08.85.22.3.15.53.33.69.55.84,1.19,1.68,2.37,2.53,3.54.85,1.17,1.71,2.32,2.57,3.46.16.22.4.4.71.55.31.15.6.22.87.22h7.56c.27,0,.45-.13.53-.39.08-.26.04-.49-.12-.71-.89-1.19-1.91-2.51-3.05-3.94ZM309.14,40.05c-.19.38-.43.7-.73.96-.3.26-.62.45-.97.57-.35.12-.69.18-1.01.18h-4.29c-.27,0-.5-.09-.69-.28-.19-.19-.28-.42-.28-.69v-4.31c0-.27.09-.5.28-.69.19-.19.42-.28.69-.28h4.29c.57,0,1.04.12,1.44.35.39.23.7.51.93.85s.39.69.49,1.06c.09.37.14.68.14.96,0,.52-.09.96-.28,1.34Z"/>
</svg>