<?xml version="1.0" encoding="UTF-8"?>
<svg id="_圖層_1" data-name="圖層 1" xmlns="http://www.w3.org/2000/svg" viewBox="0 0 325.53 120">
  <defs>
    <style>
      .cls-1 {
        fill: #fff;
      }

      .cls-2 {
        fill: #373332;
      }
    </style>
  </defs>
  <g>
    <g>
      <rect class="cls-1" x="21.26" y="19.33" width="81.33" height="81.33"/>
      <path d="M21.26,19.33v81.33h81.33V19.33H21.26ZM102.08,100.15h-19.82v-19.82h19.82v19.82ZM102.08,60c-22.05.28-39.86,18.1-40.14,40.15h-20.33c.28-33.28,27.19-60.2,60.47-60.48v20.33Z"/>
    </g>
    <g>
      <rect x="133.05" y="66.71" width="1.95" height="12.86"/>
      <path d="M143.73,79.57v-5.57c0-1.44-.81-2.05-1.84-2.05-1.01-.04-1.86.74-1.91,1.75,0,.1,0,.2.01.3v5.57h-1.84v-9.15h1.8v.92c.63-.67,1.52-1.05,2.44-1.03.83-.03,1.65.26,2.26.83.66.69,1,1.63.92,2.59v5.84h-1.84"/>
      <path d="M151.73,71.96c-1.65,0-1.91,1.36-1.91,3.04s.26,3.05,1.91,3.05,1.9-1.42,1.9-3.05-.23-3.04-1.9-3.04M153.67,79.57v-.98c-.58.75-1.49,1.15-2.43,1.08-.82.04-1.63-.26-2.24-.81-.83-1.11-1.2-2.5-1.03-3.88-.16-1.37.21-2.75,1.03-3.86.6-.56,1.4-.85,2.22-.81.92-.07,1.82.31,2.4,1.03v-4.57h1.84v12.86l-1.8-.07Z"/>
      <path d="M163.93,79.57v-.91c-.64.66-1.52,1.03-2.44,1.02-.83.03-1.65-.27-2.26-.83-.65-.69-.98-1.63-.91-2.58v-5.86h1.84v5.57c0,1.44.8,2.05,1.83,2.05,1.01.04,1.86-.74,1.91-1.75,0-.1,0-.2-.01-.3v-5.57h1.84v9.15h-1.8"/>
      <path d="M171.63,79.68c-1.42.11-2.82-.38-3.85-1.36l1.21-1.21c.73.68,1.71,1.03,2.71.95,1.11,0,2.01-.39,2.01-1.26,0-.61-.35-1-1.23-1.08l-1.55-.08c-1.71-.15-2.71-.92-2.71-2.53s1.55-2.79,3.46-2.79c1.22-.08,2.42.28,3.39,1.03l-1.15,1.17c-.65-.48-1.45-.72-2.26-.66-1.1,0-1.65.49-1.65,1.18s.28.95,1.26,1.04l1.45.12c1.71.15,2.71.96,2.71,2.59,0,1.91-1.63,2.9-3.81,2.9"/>
      <path d="M180.22,79.57c-1.31.09-2.44-.9-2.52-2.21,0-.11,0-.22,0-.32v-5.06h-1.04v-1.36h1.04v-2.83h1.84v2.79h1.78v1.36h-1.78v5c-.08.5.27.97.77,1.05.08.01.17.01.25,0h.76v1.57h-1.11"/>
      <path d="M188.72,72.57c-.34-.39-.84-.62-1.36-.61-1.04.03-1.86.9-1.82,1.94,0,.04,0,.08,0,.12v5.56h-1.84v-9.15h1.8v.99c.6-.72,1.5-1.13,2.44-1.1.82-.04,1.62.27,2.18.87l-1.36,1.36"/>
      <path d="M191.61,79.57v-9.15h1.84v9.15h-1.84M193.51,68.61h-1.95v-1.95h1.95v1.95Z"/>
      <path d="M201.28,75.53h-2.16c-1.07,0-1.64.49-1.64,1.36s.53,1.36,1.68,1.36c.64.05,1.26-.18,1.72-.62.3-.38.44-.87.39-1.36v-.75M201.28,79.59v-.83c-.63.66-1.53,1.01-2.44.94-.9.08-1.79-.22-2.45-.83-.49-.54-.75-1.24-.73-1.97,0-1.53,1.07-2.71,3.16-2.71h2.43v-.64c0-1.15-.58-1.71-2.01-1.71-.78-.1-1.55.24-2.01.88l-1.21-1.14c.79-.98,2.03-1.49,3.28-1.36,2.52,0,3.78,1.06,3.78,3.13v6.13l-1.8.09Z"/>
      <path d="M208.42,79.57c-1.28.11-2.41-.84-2.52-2.12-.01-.13-.01-.26,0-.4v-10.27h1.84v10.17c0,.7.26,1.06.99,1.06h.83v1.57h-1.14"/>
      <polyline points="219.77 68.47 219.77 79.57 217.81 79.57 217.81 68.47 214.26 68.47 214.26 66.71 223.3 66.71 223.3 68.47 219.77 68.47"/>
      <path d="M228.97,73c-.3-.72-1.02-1.18-1.8-1.15-.79-.02-1.51.43-1.83,1.15-.17.39-.25.82-.23,1.25h4.07c.01-.43-.07-.86-.26-1.25M225.15,75.53c-.17,1.23.68,2.37,1.91,2.54.14.02.28.03.42.02.85.05,1.67-.29,2.22-.94l1.17,1.1c-.87.97-2.13,1.49-3.43,1.42-2.29,0-4.07-1.21-4.07-4.69,0-2.97,1.55-4.68,3.89-4.68s3.89,1.8,3.89,4.41v.81h-6.01Z"/>
      <path d="M237.1,79.68c-2.06,0-4.07-1.26-4.07-4.69s2.02-4.68,4.07-4.68c1.15-.06,2.26.41,3.02,1.27l-1.27,1.23c-.41-.56-1.06-.88-1.75-.87-.66-.02-1.3.28-1.69.81-.44.65-.63,1.44-.54,2.22-.09.79.11,1.58.54,2.24.4.53,1.03.84,1.69.81.69.02,1.34-.31,1.75-.87l1.27,1.21c-.74.9-1.86,1.4-3.02,1.36"/>
      <path d="M247.8,79.57v-5.61c.14-.96-.53-1.86-1.5-1.99-.11-.02-.23-.02-.35-.01-.99-.03-1.81.75-1.84,1.73,0,.09,0,.18.01.27v5.61h-1.84v-12.8h1.84v4.64c.6-.67,1.46-1.04,2.36-1.03,1.67-.09,3.11,1.19,3.2,2.86,0,.17,0,.33-.01.5v5.9h-1.84"/>
      <path d="M258.06,79.57v-5.57c0-1.44-.81-2.05-1.84-2.05-1.01-.04-1.86.74-1.91,1.75,0,.1,0,.2.01.3v5.57h-1.84v-9.15h1.82v.92c.63-.67,1.51-1.05,2.43-1.03.83-.03,1.65.26,2.26.83.66.69,1,1.63.92,2.59v5.84h-1.84"/>
      <path d="M267.47,72.48c-.76-.72-1.95-.72-2.71,0-.52.73-.75,1.62-.64,2.51-.11.89.12,1.78.64,2.51.75.74,1.96.74,2.71,0,.53-.72.75-1.62.64-2.51.12-.89-.11-1.78-.64-2.51M268.82,78.6c-1.54,1.38-3.88,1.38-5.42,0-.84-1-1.23-2.31-1.08-3.61-.14-1.3.25-2.59,1.08-3.59,1.54-1.38,3.88-1.38,5.42,0,.84,1,1.23,2.3,1.08,3.59.16,1.29-.22,2.6-1.04,3.61h-.04Z"/>
      <path d="M274.89,79.57c-1.28.1-2.41-.86-2.51-2.14-.01-.13,0-.25,0-.38v-10.27h1.84v10.17c0,.7.26,1.06.99,1.06h.81v1.57h-1.14"/>
      <path d="M282.43,72.48c-.76-.72-1.95-.72-2.71,0-.52.73-.74,1.62-.62,2.51-.11.88.11,1.78.62,2.51.76.73,1.95.73,2.71,0,.52-.73.75-1.62.64-2.51.11-.89-.12-1.78-.64-2.51M283.79,78.6c-.72.72-1.7,1.11-2.71,1.08-1.02.04-2-.36-2.71-1.08-.84-1-1.23-2.31-1.08-3.61-.14-1.3.25-2.59,1.08-3.59.71-.73,1.7-1.12,2.71-1.08,1.01-.03,2,.37,2.71,1.08.84,1,1.23,2.3,1.08,3.59.16,1.29-.22,2.6-1.04,3.61h-.04Z"/>
      <path d="M290.69,71.96c-1.65,0-1.87,1.36-1.87,2.87s.22,2.87,1.87,2.87,1.86-1.42,1.86-2.87-.19-2.87-1.86-2.87M290.47,83.4c-1.2.08-2.38-.37-3.23-1.22l1.17-1.17c.51.55,1.24.84,1.99.81,1.14.05,2.1-.82,2.16-1.96,0-.12,0-.25-.02-.37v-1.18c-.57.71-1.45,1.1-2.36,1.04-.8.03-1.59-.25-2.18-.8-.83-1.05-1.21-2.4-1.03-3.73-.18-1.33.2-2.68,1.03-3.73.6-.54,1.39-.83,2.2-.79.93-.08,1.84.33,2.4,1.08v-.98h1.8v9.1c.11,2.03-1.45,3.77-3.48,3.88-.15,0-.3,0-.45,0Z"/>
      <path d="M300.19,81.4c-.13.42-.36.81-.66,1.14-.51.47-1.19.71-1.88.66h-.73v-1.65h.46c.79,0,1.06-.24,1.36-.98l.5-1.44-3.2-8.72h1.95l2.18,6.45,2.14-6.45h1.97l-4.07,10.98"/>
      <path d="M137.9,88.47h-2.9v4.07h2.9c1.12,0,2.03-.91,2.03-2.03s-.91-2.03-2.03-2.03M140.15,99.58l-2.71-5.42h-2.44v5.42h-1.95v-12.86h4.99c2.03-.21,3.84,1.26,4.05,3.29.02.16.02.31.02.47.06,1.63-1.05,3.06-2.64,3.42l3,5.69h-2.3Z"/>
      <path d="M149.89,93.01c-.3-.72-1.02-1.18-1.8-1.15-.79-.03-1.51.43-1.82,1.15-.18.39-.26.82-.24,1.25h4.07c.01-.43-.07-.86-.26-1.25M145.97,95.54c-.17,1.23.68,2.37,1.91,2.54.14.02.28.03.42.02.87.08,1.72-.27,2.29-.94l1.18,1.1c-.88.97-2.14,1.49-3.44,1.42-2.29,0-4.07-1.21-4.07-4.69,0-2.97,1.53-4.69,3.88-4.69s3.81,1.82,3.81,4.42v.81h-5.98Z"/>
      <path d="M157.37,99.69c-1.42.11-2.81-.39-3.85-1.36l1.22-1.21c.71.67,1.66,1.01,2.63.95,1.13,0,2.01-.39,2.01-1.26,0-.61-.34-1.02-1.22-1.08l-1.46-.12c-1.72-.15-2.71-.92-2.71-2.53s1.53-2.81,3.44-2.81c1.22-.08,2.43.28,3.4,1.03l-1.15,1.18c-.67-.47-1.49-.69-2.3-.62-1.11,0-1.67.49-1.67,1.17s.3.96,1.26,1.06l1.45.12c1.72.14,2.71.96,2.71,2.59,0,1.91-1.63,2.9-3.81,2.9"/>
      <path d="M168.65,93.01c-.3-.72-1.01-1.18-1.79-1.15-.79-.03-1.52.43-1.83,1.15-.17.39-.25.82-.23,1.25h4.07c0-.43-.09-.85-.26-1.25M164.74,95.54c-.17,1.23.68,2.37,1.91,2.54.14.02.28.03.42.02.85.05,1.67-.29,2.22-.94l1.17,1.1c-.87.97-2.13,1.49-3.43,1.42-2.29,0-4.07-1.21-4.07-4.69,0-2.97,1.53-4.69,3.89-4.69s3.88,1.82,3.88,4.42v.81h-5.99Z"/>
      <path d="M178.06,95.54h-2.14c-1.08,0-1.65.47-1.65,1.36s.53,1.36,1.68,1.36c.62.08,1.25-.11,1.72-.53.31-.38.45-.87.39-1.36v-.73M178.06,99.7v-.83c-.63.67-1.53,1.01-2.44.94-.9.08-1.79-.22-2.45-.83-.49-.54-.75-1.25-.73-1.98,0-1.53,1.07-2.63,3.17-2.63h2.41v-.65c0-1.15-.57-1.72-2.01-1.72-.78-.09-1.55.25-2.01.89l-1.21-1.14c.8-.98,2.04-1.49,3.29-1.36,2.51,0,3.77,1.07,3.77,3.14v6.03l-1.8.12Z"/>
      <path d="M187.77,92.53c-.33-.41-.83-.63-1.36-.61-1.04.03-1.86.89-1.84,1.93,0,.04,0,.09,0,.13v5.56h-1.83v-9.12h1.8v1c.6-.73,1.5-1.14,2.44-1.11.82-.03,1.61.28,2.18.87l-1.36,1.36"/>
      <path d="M193.73,99.69c-2.06,0-4.07-1.26-4.07-4.69s2.02-4.69,4.07-4.69c1.16-.03,2.28.46,3.02,1.36l-1.27,1.23c-.41-.56-1.06-.88-1.75-.87-.66-.02-1.3.28-1.69.81-.44.65-.63,1.44-.54,2.22-.08.79.11,1.58.54,2.24.4.53,1.03.83,1.69.81.69,0,1.34-.31,1.75-.87l1.27,1.21c-.75.89-1.86,1.39-3.02,1.36"/>
      <path d="M204.42,99.58v-5.61c.09-1.02-.67-1.92-1.69-2.01-1.02-.09-1.92.67-2.01,1.69,0,.11,0,.21,0,.32v5.61h-1.84v-12.86h1.87v4.62c.6-.66,1.46-1.04,2.36-1.03,1.68-.08,3.11,1.21,3.2,2.89,0,.16,0,.31-.01.47v5.91h-1.84"/>
      <rect x="212.93" y="86.72" width="1.95" height="12.86"/>
      <path d="M223.6,99.58v-5.58c0-1.36-.8-2.03-1.84-2.03-1-.04-1.85.73-1.9,1.73,0,.1,0,.2.01.3v5.58h-1.84v-9.16h1.8v.92c.63-.67,1.52-1.04,2.44-1.03.83-.03,1.64.27,2.25.84.67.68,1,1.62.92,2.58v5.86h-1.84"/>
      <path d="M231.25,99.69c-1.42.11-2.81-.39-3.85-1.36l1.22-1.21c.71.67,1.66,1.01,2.63.95,1.13,0,2.01-.39,2.01-1.26,0-.61-.34-1.02-1.22-1.08l-1.46-.08c-1.72-.15-2.71-.92-2.71-2.53s1.53-2.81,3.44-2.81c1.22-.08,2.43.28,3.4,1.03l-1.17,1.18c-.65-.48-1.45-.72-2.25-.66-1.1,0-1.67.49-1.67,1.17s.3.96,1.27,1.06l1.44.12c1.72.14,2.71.96,2.71,2.59,0,1.91-1.61,2.9-3.81,2.9"/>
      <path d="M239.85,99.58c-1.32.07-2.44-.94-2.51-2.25,0-.1,0-.2,0-.29v-5.04h-1.04v-1.36h1.04v-2.83h1.84v2.78h1.78v1.36h-1.78v4.95c0,.68.33,1.07,1.02,1.07h.76v1.63h-1.1"/>
      <path d="M243.3,99.58v-9.16h1.84v9.16h-1.84M245.2,88.62h-1.95v-1.95h1.95v1.95Z"/>
      <path d="M250.79,99.58c-1.32.07-2.44-.94-2.51-2.25,0-.1,0-.2,0-.29v-5.04h-1.04v-1.36h1.04v-2.83h1.84v2.78h1.78v1.36h-1.78v4.95c0,.68.33,1.07,1.02,1.07h.76v1.63h-1.11"/>
      <path d="M259.78,99.58v-.92c-.63.67-1.52,1.05-2.44,1.03-.83.03-1.64-.27-2.26-.83-.66-.69-1-1.63-.92-2.59v-5.86h1.84v5.58c-.14.98.53,1.89,1.51,2.03.11.02.22.02.33.02,1.01.04,1.86-.74,1.91-1.75,0-.1,0-.2-.01-.3v-5.58h1.84v9.16h-1.8"/>
      <path d="M267.24,99.58c-1.32.07-2.44-.94-2.51-2.25,0-.1,0-.2,0-.29v-5.04h-1.04v-1.36h1.04v-2.83h1.84v2.78h1.78v1.36h-1.78v4.95c0,.68.33,1.07,1.02,1.07h.76v1.63h-1.11"/>
      <path d="M275.86,93.01c-.3-.72-1.02-1.18-1.8-1.15-.79-.03-1.51.43-1.83,1.15-.17.39-.25.82-.23,1.25h4.07c0-.43-.09-.85-.26-1.25M271.94,95.54c-.17,1.23.68,2.37,1.91,2.54.14.02.28.03.42.02.85.05,1.67-.29,2.22-.94l1.17,1.1c-.87.97-2.13,1.49-3.43,1.42-2.29,0-4.07-1.21-4.07-4.69,0-2.97,1.55-4.69,3.89-4.69s3.88,1.82,3.88,4.42v.81h-5.99Z"/>
    </g>
  </g>
  <g>
    <g>
      <path class="cls-2" d="M198.65,57.45c.39.86.97,1.5,2.12,1.44l6.82-.32c-.67-1.52-1.05-2.14-1.4-2.84l-6.84-13.52c4.27-1.49,6.72-5.04,6.9-9.54.28-6.62-4.44-12.03-11.16-12.05l-15.99-.03v38.11s7.35-.08,7.35-.08l.11-14.85c1.29-.33,3.88-.63,5.32.27l4.46,8.86M194.39,37.04l-7.92.16.04-9.81,7.7.02c2.57,0,4.38,2.19,4.59,4.33.25,2.53-1.26,5.24-4.41,5.3Z"/>
      <path class="cls-2" d="M145.72,20.53l-.02,6.88,9.99.02.15,31.28c3.03-.05,5.11,0,7.57,0l-.04-31.3h9.85v-6.98l-27.52.1Z"/>
      <path class="cls-2" d="M221.16,58.23l-.03-37.67-7.26-.07-.05,38.27,6.95.1c.45,0,.39-.2.39-.63Z"/>
      <path class="cls-2" d="M140.22,58.23l-.03-37.67-7.26-.07-.05,38.27,6.67.1c.45,0,.8-.2.67-.63Z"/>
    </g>
    <g>
      <path d="M198.65,57.45c.39.86.97,1.5,2.12,1.44l6.82-.32c-.67-1.52-1.05-2.14-1.4-2.84l-6.84-13.52c4.27-1.49,6.72-5.04,6.9-9.54.28-6.62-4.44-12.03-11.16-12.05l-15.99-.03v38.11s7.35-.08,7.35-.08l.11-14.85c1.29-.33,3.88-.63,5.32.27l4.46,8.86M194.39,37.04l-7.92.16.04-9.81,7.7.02c2.57,0,4.38,2.19,4.59,4.33.25,2.53-1.26,5.24-4.41,5.3Z"/>
      <path d="M145.72,20.53l-.02,6.88,9.99.02.15,31.28c3.03-.05,5.11,0,7.57,0l-.04-31.3h9.85v-6.98l-27.52.1Z"/>
      <path d="M221.16,58.23l-.03-37.67-7.26-.07-.05,38.27,6.95.1c.45,0,.39-.2.39-.63Z"/>
      <path d="M140.22,58.23l-.03-37.67-7.26-.07-.05,38.27,6.67.1c.45,0,.8-.2.67-.63Z"/>
    </g>
  </g>
</svg>