<?xml version="1.0" encoding="UTF-8"?>
<svg id="_圖層_1" data-name="圖層 1" xmlns="http://www.w3.org/2000/svg" viewBox="0 0 278.94 120">
  <path d="M253.12,54.05c0-.49-.09-1.02-.13-1.51-.09-.53-.09-1.02-.22-1.51-.09-.49-.13-1.02-.27-1.51-.13-.49-.22-.98-.36-1.42-.13-.49-.27-.98-.4-1.42-.22-.49-.36-.98-.53-1.38-.13-.49-.36-.98-.53-1.38-.22-.49-.4-.89-.67-1.38-.22-.4-.49-.84-.67-1.29-.27-.4-.49-.84-.84-1.24-.22-.4-.49-.84-.84-1.24-.27-.4-.53-.76-.89-1.15-.27-.4-.62-.76-.98-1.11-.27-.4-.62-.75-.98-1.11-.36-.4-.75-.67-1.11-1.11-.36-.27-.76-.62-1.11-.98-.4-.36-.76-.62-1.15-.98-.4-.27-.84-.62-1.24-.89l-1.24-.84c-.49-.27-.89-.53-1.29-.75-.49-.27-.89-.53-1.38-.75-.49-.22-.98-.4-1.38-.67-.49-.22-.98-.36-1.42-.53-.49-.22-.98-.4-1.42-.53-.53-.22-1.02-.36-1.51-.49-.53-.13-1.02-.27-1.6-.4-.49-.13-1.02-.22-1.51-.36-.53-.09-1.11-.22-1.6-.27-.53-.09-1.11-.13-1.64-.22-.53,0-1.11-.09-1.64-.09-.53-.09-1.29-.09-1.87-.09s-1.29,0-1.87.09c-.53,0-1.11.09-1.64.09-.53.09-1.11.13-1.6.22-.53.09-1.11.22-1.64.27-.49.13-1.02.22-1.51.36-.53.13-1.02.27-1.51.4-.53.13-1.02.27-1.51.49-.53.13-1.02.36-1.42.53-.53.22-1.02.36-1.42.53-.49.27-.98.49-1.42.67-.4.22-.89.49-1.29.75-.49.22-.89.49-1.29.75-.49.27-.89.53-1.29.84-.4.27-.84.62-1.15.89-.4.36-.84.62-1.15.98-.4.36-.76.67-1.15.98-.13.22-.36.4-.49.53-.13.09-.27.13-.4.13-.36,0-.62-.27-.62-.62v-3.55c0-.98-.84-1.73-1.78-1.73h-16.08c-.98,0-1.78.75-1.78,1.73v39.13h-1.87c-2.75,0-5.02-2.26-5.02-5.11v-12.79c0-13.59-13.19-24.69-29.4-24.69h-.98s-.36,0-.49.09h-1.02s-.27.09-.49.09c-.13,0-.27,0-.49.09h-.49s-.36.09-.49.09-.27.09-.4.09c-.22,0-.36.09-.53.09-.13,0-.27.09-.4.09-.22,0-.36.09-.53.13h-.4s-.36.13-.53.13c-.09,0-.22.09-.36.09-.22.09-.4.13-.53.13-.13.09-.22.09-.36.09-.22.09-.4.13-.53.22-.13,0-.27,0-.36.09-.22.09-.4.13-.62.22-.09,0-.22,0-.27.09-.22.09-.4.13-.62.22-.09,0-.13,0-.22.09-.27.09-.49.13-.67.22-.09.09-.13.09-.22.09-.22.13-.4.22-.62.27-.09,0-.13.09-.22.09-.27.09-.49.22-.67.27-.13,0-.18.04-.13.09,0,0-.49.22-.67.36-.09,0-.13,0-.13.09-.27.09-.49.22-.67.27,0,.09-.09.09-.13.09-.22.13-.4.27-.62.4h-.13s-.49.27-.67.4c0,0-.09,0-.09.09-.22.13-.49.27-.67.4h-.09s-.49.27-.67.4v.09c-.27.13-.49.27-.67.49h-.09s-.4.36-.62.49h-.09s-.4.36-.62.53h-.09s-.4.36-.62.53c-.22.22-.4.36-.62.53-.4.36-.84.76-1.24,1.15-.36.36-.67.75-1.02,1.15v-.09s-.27.27-.49.27c-.27,0-.62-.27-.62-.62v-2.8c0-.98-.76-1.78-1.73-1.78h-58.04c-.98,0-1.78-.84-1.78-1.78v-9.86c0-.89-.76-1.73-1.73-1.73h-15.46c-.98,0-1.73.84-1.73,1.73v9.55c0,.98-.84,1.78-1.78,1.78h-5.6c-.98,0-1.78.84-1.78,1.78v7.28c0,.98.84,1.73,1.78,1.73h5.55c.98,0,1.78.84,1.78,1.78v13.59c0,14.17,11.55,25.71,25.71,25.71h5.37c8.88,0,16.79-4.53,21.36-11.41.27-.49.84-.76,1.42-.76h6.04v7.91c0,.98.84,1.78,1.78,1.78h16.79c.98,0,1.73-.84,1.73-1.78v-27.76c.27-.98.53-1.91.89-2.8.09-.22.22-.4.27-.62,0,0,0-.09.09-.09.09-.22.13-.4.27-.62v-.09s.22-.4.36-.53c.09-.09.13-.13.09-.13.4-.84.98-1.6,1.51-2.26v-.09l.4-.4s.09-.13.13-.13c.13-.13.22-.27.36-.4.09-.09.13-.13.13-.13.13-.13.27-.27.4-.4,0-.09.09-.09.13-.13.13-.13.27-.22.4-.36.09-.09.13-.13.13-.22.13-.09.27-.22.4-.27.09,0,.13-.09.13-.13.27-.22.53-.4.84-.62.09-.09.13-.09.22-.13.13-.09.27-.22.36-.27.13,0,.22-.09.36-.13.09-.09.22-.13.36-.22.09-.09.22-.13.36-.22.09-.09.22-.13.36-.22.09-.09.22-.13.36-.22.13,0,.22-.09.36-.13s.27-.13.4-.13c.09-.09.22-.13.27-.22.13,0,.36-.09.49-.13.09-.09.13-.09.27-.13.27-.09.49-.13.75-.22.09-.09.13-.09.22-.09.22-.09.36-.13.53-.22.09,0,.22,0,.27-.09.22,0,.36-.09.49-.09.13-.09.22-.09.36-.09.13-.09.36-.09.49-.09.13-.09.22-.09.36-.09.13-.09.36-.09.49-.09s.22,0,.36-.09h.53s.13,0,.27-.09h.84c9.5,0,17.23,7.77,17.23,17.32v10.93c0,8.17,6.66,14.92,14.83,14.92h12.3v16.96c0,.98.84,1.73,1.78,1.73h16.08c.98,0,1.78-.75,1.78-1.73v-22.21c0-.36.27-.53.62-.53.13,0,.27,0,.4.13.13.13.36.36.49.49.4.36.76.67,1.15,1.02.36.27.76.62,1.15.89.36.36.75.62,1.15.98.4.27.84.53,1.29.84.4.27.84.49,1.29.76.4.27.89.49,1.29.75.49.22.98.4,1.42.62.4.22.89.4,1.42.62.4.22.89.36,1.42.53.49.13.98.36,1.51.49.49.13.98.27,1.51.4.49.13,1.02.22,1.51.27.53.13,1.11.22,1.64.27.49.13,1.02.13,1.6.22.53.09,1.11.13,1.64.13s1.29.09,1.87.09,1.29-.09,1.87-.09,1.11-.09,1.64-.13c.53-.09,1.11-.09,1.64-.22.49-.09,1.02-.13,1.6-.27.49-.09,1.02-.13,1.51-.27.53-.13,1.02-.27,1.6-.4.49-.13.98-.36,1.51-.49.49-.22.98-.36,1.42-.53.49-.22.98-.4,1.42-.62.4-.22.89-.4,1.38-.62.49-.27.89-.49,1.38-.75.4-.27.84-.49,1.29-.76.4-.27.84-.53,1.24-.84.4-.36.84-.62,1.24-.98.4-.27.76-.62,1.15-.89.36-.36.76-.67,1.11-1.02.36-.36.76-.67,1.11-1.02.36-.36.67-.76.98-1.11.36-.36.67-.76.98-1.11.36-.4.62-.84.89-1.15.36-.4.62-.84.84-1.24.36-.4.53-.89.84-1.29.22-.4.49-.84.67-1.24.27-.49.49-.98.67-1.38.22-.49.4-.89.53-1.38.22-.49.36-.89.53-1.38.13-.49.27-.98.4-1.42.13-.49.22-.98.36-1.42.13-.49.22-1.02.27-1.51.13-.49.13-.98.22-1.51.09-.49.13-.98.13-1.51.09-.49.09-1.02.09-1.51,0-.53,0-1.02-.09-1.6l.18.22ZM94.88,58.8h-16.57c-.98,0-1.78.75-1.78,1.78-.36,5.29-4.8,9.55-10.26,9.55h-2.13c-5.68,0-10.3-4.62-10.3-10.26v-14.7c0-.98.84-1.78,1.78-1.78h39.26v15.41ZM231.8,56.45c0,.27-.09.53-.09.84-.09.27-.09.53-.13.84-.09.27-.09.53-.13.84-.09.27-.13.53-.22.84-.09.27-.13.49-.27.75-.09.27-.13.53-.22.76-.13.27-.27.53-.36.75-.13.27-.22.53-.36.76s-.27.49-.4.67c-.13.27-.27.49-.4.67-.13.27-.36.49-.49.67-.13.22-.36.4-.49.67-.22.22-.36.4-.53.62-.13.22-.36.4-.53.53-.22.22-.36.4-.62.62-.13.22-.4.36-.62.53-.13.13-.4.36-.62.49-.22.22-.4.36-.67.53-.22.13-.4.27-.67.4-.22.13-.49.27-.67.4-.27.13-.49.27-.76.4-.27.13-.49.27-.75.4-.27.09-.53.22-.76.36-.27.09-.53.13-.84.27-.27.09-.53.13-.84.22-.27.13-.62.22-.84.27-.36.09-.62.13-.89.13-.27.09-.53.13-.89.22-.27,0-.62.09-.89.09-.27.09-.53.09-.89.09h-2.04c-.27,0-.53,0-.89-.09-.27,0-.53-.09-.89-.09-.27-.09-.53-.13-.84-.22-.36,0-.62-.09-.89-.13-.27-.09-.53-.13-.84-.27-.27-.09-.53-.13-.84-.22-.27-.13-.53-.22-.84-.27-.27-.13-.53-.27-.75-.36-.27-.13-.53-.27-.84-.4-.22-.13-.49-.27-.67-.4-.27-.13-.49-.27-.75-.4-.22-.13-.49-.27-.67-.4-.22-.22-.49-.36-.67-.53-.22-.13-.4-.36-.62-.49-.22-.22-.4-.36-.62-.53-.22-.22-.4-.4-.62-.62-.13-.13-.36-.36-.53-.53-.13-.22-.36-.4-.49-.62-.22-.27-.36-.49-.53-.67-.13-.22-.27-.4-.4-.67-.13-.22-.27-.4-.4-.67-.13-.22-.27-.49-.4-.67-.13-.22-.27-.49-.36-.76-.13-.22-.22-.49-.36-.75-.09-.22-.22-.49-.27-.76-.09-.27-.13-.49-.27-.75,0-.27-.13-.53-.13-.84-.09-.27-.13-.53-.22-.84,0-.27-.09-.53-.09-.84-.09-.27-.09-.53-.09-.84v-1.73c0-.27,0-.53.09-.84,0-.27.09-.53.09-.84.09-.27.13-.53.22-.84,0-.27.13-.53.13-.84.13-.22.22-.49.27-.75.09-.27.22-.53.27-.76.13-.27.22-.53.36-.75.09-.27.22-.49.36-.76.13-.27.27-.49.4-.67.13-.27.27-.49.4-.75.13-.22.27-.4.4-.62.22-.27.36-.49.53-.67.13-.22.36-.4.49-.62.22-.22.4-.4.53-.62.22-.22.4-.36.62-.53.22-.22.4-.36.62-.53.22-.22.4-.36.62-.53.22-.13.49-.27.67-.49.22-.13.49-.27.67-.49.27-.13.49-.27.75-.4.22-.13.49-.27.67-.4.27-.09.53-.22.84-.36.22-.13.49-.22.75-.36.27-.09.53-.22.84-.27.27-.09.53-.22.84-.27.27-.09.53-.13.84-.22.31-.09.53-.13.89-.22.27-.09.53-.09.84-.13.36,0,.62-.09.89-.09.36-.09.62-.09.89-.09.36-.09.76-.09,1.02-.09.36,0,.76,0,1.02.09.36,0,.62,0,.89.09.27,0,.62.09.89.09.36.09.62.09.89.13.27.09.53.13.89.22.22.09.53.13.84.22.31.09.53.22.84.27.27.09.53.22.84.27.22.13.49.22.76.36.27.13.49.27.75.36.27.13.49.27.76.4.22.13.49.27.67.4.27.22.49.36.67.49.27.22.49.36.67.49.22.22.49.36.62.53.22.22.49.36.62.53.27.22.4.36.62.53.22.22.4.4.53.62.22.22.36.4.53.62.13.22.36.4.49.67.13.22.36.4.49.62.13.27.27.49.4.75.13.22.27.4.4.67.13.27.22.49.36.76.09.22.22.49.36.75.09.22.13.49.22.76.13.27.22.53.27.75.09.27.13.53.22.84.09.27.09.53.13.84.09.27.09.53.13.84,0,.27.09.53.09.84v1.73Z"/>
</svg>