<?xml version="1.0" encoding="UTF-8"?>
<svg id="_圖層_1" data-name="圖層 1" xmlns="http://www.w3.org/2000/svg" viewBox="0 0 298.71 120">
  <defs>
    <style>
      .cls-1 {
        fill: #fff;
      }
    </style>
  </defs>
  <rect x="19.35" y="15.46" width="260" height="89.07"/>
  <g>
    <polygon class="cls-1" points="236.14 78.56 251.58 78.56 241.33 48.3 230.17 81.01 229.36 83.4 224.4 83.4 238.43 42.08 244.21 42.08 258.24 83.4 234.47 83.4 236.14 78.56"/>
    <polygon class="cls-1" points="148.54 46.92 148.54 60.31 169.11 60.31 169.11 65.15 148.54 65.15 148.54 78.56 169.11 78.56 169.11 83.4 143.67 83.4 143.67 42.06 169.11 42.06 169.11 46.92 148.54 46.92"/>
    <path class="cls-1" d="M214.08,66.86c-.54-1.12-1.27-2.16-2.16-3.03-.44-.47-.94-.89-1.49-1.27-.22-.16-.45-.33-.71-.47l-.49-.31-.45-.27-.15-.09.78-1.02c.38-.51.73-1.07,1.05-1.74.78-1.6,1.18-3.3,1.18-5.1s-.4-3.5-1.18-5.1c-1.92-3.92-5.91-6.37-10.45-6.37h-16.31v4.86h16.4c.18,0,.38,0,.58.02,1.81.16,3.17.74,4.21,1.78,1.29,1.29,2,2.99,2,4.79s-.71,3.5-2,4.79c-1.12,1.14-2.58,1.81-4.19,1.96-.2,0-.4.04-.58.04h-11.54v-8.54h-4.86v31.64h19.88c4.54,0,8.54-2.43,10.45-6.37.78-1.6,1.18-3.3,1.18-5.1s-.4-3.52-1.18-5.1h.02ZM208.51,76.74c-1.03,1.05-2.41,1.63-4.21,1.8-.22,0-.4.04-.58.04h-15.13v-13.41h15.2c.16,0,.33,0,.49.04.76.05,1.49.25,2.16.54s1.27.69,1.81,1.2c.09.07.16.15.24.22,1.29,1.27,2,2.98,2,4.79s-.71,3.5-2,4.79h.02Z"/>
    <g>
      <polygon class="cls-1" points="40.43 36.49 40.43 39.1 67.34 67.37 69.71 64.9 69.71 36.47 40.43 36.49"/>
      <polygon class="cls-1" points="40.43 44.07 64.98 69.85 52.03 83.46 40.43 71.28 40.43 44.07"/>
      <polygon class="cls-1" points="69.71 74.8 67.34 72.34 54.38 85.94 69.71 85.94 69.71 74.8"/>
    </g>
    <g>
      <polygon class="cls-1" points="114.03 42.06 104.54 83.4 99.03 83.4 89.56 42.06 94.53 42.06 101.79 73.71 109.04 42.06 114.03 42.06"/>
      <polygon class="cls-1" points="134.08 42.06 124.61 83.4 119.09 83.4 115.5 67.71 114.3 62.54 116.79 51.69 117.99 56.88 121.85 73.71 129.11 42.06 134.08 42.06"/>
    </g>
  </g>
</svg>