<?xml version="1.0" encoding="UTF-8"?>
<svg id="_圖層_1" data-name="圖層 1" xmlns="http://www.w3.org/2000/svg" viewBox="0 0 205.88 120">
  <defs>
    <style>
      .cls-1 {
        fill: #040000;
      }
    </style>
  </defs>
  <path class="cls-1" d="M173.84,82.88l1.7,1.54c-3.09,4.52-6.04,8.08-8.9,10.55-2.89,2.63-5.2,3.88-7.05,3.88-1.05,0-1.77-.38-2.26-1.09-.54-.85-.75-2.02-.75-3.62,0-4.03.88-10.29,2.66-18.87,1.71-8.49,2.62-14.6,2.62-18.14,0-.67-.09-1.2-.29-1.46-.22-.37-.49-.51-.83-.51-.61,0-1.3.26-2.1.93-.83.64-1.86,1.69-3.05,3.13l-1.67-1.71c3.33-4.29,6.35-7.54,9.14-9.95,2.81-2.42,5.03-3.59,6.59-3.59,1.02,0,1.77.37,2.26,1.06.53.66.73,1.68.73,3.12,0,1.32-.52,5.69-1.67,13-.38,2.44-.7,4.43-.9,5.88-.77,4.75-1.31,8.75-1.8,11.86-.39,3.17-.62,5.1-.62,5.76,0,.8.09,1.41.34,1.79.22.35.65.56,1.09.56.51,0,1.13-.33,1.92-1,.76-.67,1.75-1.78,2.84-3.1h0ZM170.6,21.14c1.37,0,2.53.44,3.51,1.48.88,1.02,1.38,2.21,1.38,3.69,0,2.49-.7,4.59-1.99,6.3-1.33,1.64-2.9,2.53-4.74,2.53-1.45,0-2.59-.57-3.53-1.57-.85-1.05-1.27-2.39-1.27-4.06,0-2.23.6-4.16,1.97-5.87,1.33-1.69,2.9-2.5,4.66-2.5Z"/>
  <g>
    <path class="cls-1" d="M94.79,58.99c-.58-3.53-1.71-7.3-8.81-7.3s-8.04,3.03-8.04,5.4c0,8.74,31.15,2.39,31.15,22.76,0,16.11-14.02,19.01-21.8,19.01-11.29,0-23.56-4.37-23.94-19.12h13.48c0,4.69,2.6,8.12,10.83,8.12,6.74,0,8.34-3.68,8.34-5.73,0-9.21-30.88-2.28-30.88-22.91,0-8.14,4.58-18.53,20.13-18.53,9.7,0,21.3,2.72,22.34,18.29h-12.8Z"/>
    <path class="cls-1" d="M50.15,43.84h8.16v10.24h-8.16v29.51c0,3.17.1,4.39,5.44,4.39.83,0,1.75-.11,2.72-.23v10.83c-2.08.11-4.11.2-6.16.2h-1.72c-11.31,0-13.36-4.69-13.36-11.72v-32.98h-6.73v-10.24h6.73v-14.72h13.08v14.72Z"/>
    <path class="cls-1" d="M133.31,43.84h8.14v10.24h-8.14v29.51c0,3.17.11,4.39,5.44,4.39.83,0,1.77-.11,2.7-.23v10.83c-2.08.11-4.11.2-6.19.2h-1.67c-11.31,0-13.36-4.69-13.36-11.72v-32.98h-6.75v-10.24h6.75v-14.72h13.08v14.72Z"/>
  </g>
</svg>