<?xml version="1.0" encoding="UTF-8"?>
<svg id="_圖層_1" data-name="圖層 1" xmlns="http://www.w3.org/2000/svg" viewBox="0 0 410.59 120">
  <defs>
    <style>
      .cls-1 {
        fill: #444;
      }
    </style>
  </defs>
  <g>
    <path class="cls-1" d="M58.43,17.45c18.1-6.33,38.72.81,48.77,17.98,11.41,19.5,4.85,44.56-14.65,55.97-17.17,10.05-38.64,6.17-51.32-8.21,13.3,20.81,40.79,27.56,62.29,14.98,22.04-12.9,29.45-41.22,16.55-63.26-12.58-21.5-39.85-29.08-61.64-17.45Z"/>
    <path d="M103.52,98.17c-21.5,12.58-48.99,5.83-62.29-14.98.42.48.85.94,1.3,1.4-8.34-9.6-12.75-22.54-11.13-36.16,2.93-24.64,24.53-42.52,48.97-41.15-1.02-.18-2.05-.34-3.1-.46C48.3,3.38,22.03,24.07,18.59,53.04c-3.44,28.96,17.25,55.23,46.22,58.67,20.18,2.4,39.04-6.92,49.8-22.58-3.12,3.48-6.83,6.55-11.09,9.04Z"/>
  </g>
  <g>
    <g>
      <path d="M58.71,51.84c.65.86.81,1.51.48,1.94-1.29,1.4-1.88,2.32-1.78,2.74.32.43.48.7.48.81,0,.32-.16.48-.48.48.11.22.16.38.16.48.21.65-.32,1.61-1.61,2.91h1.13c1.72-.11,3.28-.22,4.68-.32.86,0,1.51.05,1.94.16,1.29.65,2.1,1.61,2.42,2.91.11.32.11.65,0,.97-.11.21-.32.32-.65.32-2.58-.54-5.17-1.13-7.75-1.78-2.69-.32-5-.27-6.94.16-1.83.22-4.52,1.02-8.07,2.42-.54.21-.97.16-1.29-.16-1.08-.65-1.67-1.35-1.78-2.1-.22-.54-.16-.86.16-.97.11-.11.32-.11.65,0,.54.11,1.45-.06,2.74-.48.97-.43,2.58-.7,4.84-.81-.11-.11-.16-.22-.16-.32v-1.45l-.16-.16c0-.11-.06-.16-.16-.16-.22-.21-.48-.54-.81-.97-.22-.32-.32-.65-.32-.97.11-.43,0-.86-.32-1.29-.22-.86-.32-1.61-.32-2.26.11-.54.32-1.02.65-1.45l.48-.32c.21.22.16.38-.16.48v.81c2.8-.86,5.81-1.83,9.04-2.91.97-.43,1.94,0,2.91,1.29ZM43.38,48.13c-.43-.21-.59-.54-.48-.97v-.16c-.97-.97-1.45-1.78-1.45-2.42-.22-2.58-.54-4.25-.97-5-.43-.75-.65-1.45-.65-2.1-.11-.43.21-.48.97-.16,1.94.86,2.96,2.58,3.07,5.17.21.97.38,2.15.48,3.55.21-.32,1.29-.65,3.23-.97-.32-.75-.48-1.29-.48-1.61h-.16c-.54.11-.86.16-.97.16-.65-.43-1.02-.7-1.13-.81l-.32-.32c.11-.11.21-.16.32-.16.43-.21,1.13-.48,2.1-.81v-1.29c-.32.22-.54.32-.65.32-.11.11-.32.11-.65,0-.54-.43-.97-.7-1.29-.81l-.16-.32c.11-.11.21-.16.32-.16.54-.21,1.02-.38,1.45-.48.21-.21.54-.38.97-.48v-1.29c-.65.22-1.13.32-1.45.32-.54-.21-.97-.48-1.29-.81l-.16-.32c.11-.11.21-.16.32-.16.54-.21,1.02-.38,1.45-.48.21-.11.54-.32.97-.65,0-.11-.16-.81-.48-2.1-.11-.43.05-.65.48-.65.43.11.81.22,1.13.32.54.32.86.7.97,1.13.11.32.16.54.16.65-.11,0-.16.06-.16.16.65,0,1.02.06,1.13.16.21.22.32.38.32.48v.48l-1.45.48c-.11.65-.16,1.19-.16,1.61h.32c.75,0,1.18.06,1.29.16.21.22.32.38.32.48v.48c-.11,0-.22.06-.32.16-.65.22-1.19.38-1.61.48v1.45c.43-.11.7-.21.81-.32.75.11,1.18.22,1.29.32.21.22.32.38.32.48v.48c-.11,0-.22.06-.32.16-.86.11-1.51.32-1.94.65,0,.97-.06,1.61-.16,1.94,1.29-.43,2.42-.65,3.39-.65-.43-1.07-.65-2.1-.65-3.07.21-4.52,0-7.91-.65-10.17-.22-.65,0-.97.65-.97.43.11.97.32,1.61.65.43.32.7.7.81,1.13.21.22.27.97.16,2.26h.16c.65-.21,1.13-.38,1.45-.48.43-.21.86-.38,1.29-.48-.11-.21-.22-.81-.32-1.78,0-.54.21-.75.65-.65.43,0,.81.22,1.13.65.65.32.97.81.97,1.45h.48c.43.22.7.48.81.81,0,.22-.06.38-.16.48l-.16.16c-.54,0-.97.06-1.29.16-.11.32-.22.81-.32,1.45h.16c.75.11,1.18.22,1.29.32.11.22.21.38.32.48v.48c-.11,0-.22.06-.32.16-.75.11-1.29.22-1.61.32-.11.65-.16,1.19-.16,1.61.32-.11.81-.11,1.45,0,.32.22.54.48.65.81,0,.22-.06.38-.16.48-.11,0-.16.06-.16.16-.86.11-1.51.22-1.94.32-.22,1.19-.38,2.1-.48,2.74l.48-.16c.65-.21,1.29.06,1.94.81l.16.16c.11-.21.16-.54.16-.97,1.18-4.09,1.61-7.32,1.29-9.69,0-.65.32-.91.97-.81.65.11,1.18.48,1.61,1.13.54.54.81,1.13.81,1.78v.81c-.65.97-1.45,3.23-2.42,6.78-.43,1.72-.86,2.91-1.29,3.55-.32.43-.54.59-.65.48-.22-.65-.32-1.02-.32-1.13-3.34-1.07-8.39-.32-15.17,2.26-.65.22-1.29.11-1.94-.32ZM49.19,48.61c.86-.43,2.1-.81,3.71-1.13,1.61-.21,2.74-.32,3.39-.32,1.07.11,1.67.32,1.78.65.21.43.27.86.16,1.29-.11.11-.22.16-.32.16-3.23.32-6.19,1.02-8.88,2.1-.97.11-1.61.11-1.94,0-.86-.54-1.35-1.02-1.45-1.45-.22-.21-.32-.38-.32-.48.21-.11.38-.16.48-.16,1.29-.11,2.42-.32,3.39-.65ZM47.73,54.59c.43.54.7,1.19.81,1.94v.48c1.07,0,2.1-.16,3.07-.48,1.83-.65,2.91-1.18,3.23-1.61.43-.54.81-1.02,1.13-1.45.11-.32.11-.48,0-.48-.11-.21-.48-.16-1.13.16-2.8,1.4-5.17,1.88-7.1,1.45ZM49.99,58.95c-.11.75-.16,1.61-.16,2.58.43-.22,1.67-.32,3.71-.32.97-1.18,1.51-2.26,1.61-3.23-1.83.22-3.55.54-5.17.97ZM54.51,36.83c.54-.21.97-.38,1.29-.48.32-.11.65-.21.97-.32,0-.43.05-.86.16-1.29-.43.22-.81.38-1.13.48-.32,0-.54-.05-.65-.16-.65-.43-1.02-.7-1.13-.81-.32,2.37-.48,4.36-.48,5.97-.11,1.61-.22,2.8-.32,3.55.97-.21,2.1-.32,3.39-.32-.32-.97-.48-1.61-.48-1.94-.54,0-.86-.05-.97-.16-.65-.43-1.02-.7-1.13-.81-.22-.21-.27-.38-.16-.48h.32c.54,0,1.02-.16,1.45-.48.21-.11.48-.16.81-.16v-1.29c-.54.11-.86.11-.97,0-.65-.43-1.02-.7-1.13-.81l-.32-.32c0-.11.16-.16.48-.16Z"/>
      <path d="M88.25,41.35c-.65.22-1.29.38-1.94.48-.54,0-1.02-.05-1.45-.16-1.19-.86-1.83-1.83-1.94-2.91,0-.54.21-.97.65-1.29.32-.21.48-.16.48.16s.05.54.16.65c.43.22,1.18.27,2.26.16,1.29-.11,3.07-.65,5.33-1.61,1.94-.75,3.71-1.67,5.33-2.74.75-.32,1.29-.43,1.61-.32.97.75,1.67,1.45,2.1,2.1.21.43.11.7-.32.81-.43.32-.86.48-1.29.48-.75.11-1.51.32-2.26.65.32.11.54.32.65.65.11.22.16.48.16.81,1.07-.32,1.83-.48,2.26-.48,1.72.22,3.28,1.19,4.68,2.91.32.43.32.86,0,1.29-.54.86-1.13,1.94-1.78,3.23-.86,1.51-1.51,2.64-1.94,3.39.43.43.65.81.65,1.13,0,.22-.16.32-.48.32-.22.11-.54.16-.97.16-1.51,0-2.64.06-3.39.16,0,.97.05,1.94.16,2.91.86-.75,1.51-1.18,1.94-1.29,1.07-.65,1.67-1.13,1.78-1.45.32-.32.65-.43.97-.32.54,0,1.02.16,1.45.48.43.22.65.48.65.81.21.97-.48,2.42-2.1,4.36-.32.43-.54.7-.65.81.11.32.38.54.81.65,1.18.32,2.31,1.13,3.39,2.42.11.11.16.48.16,1.13-.22.65-.38,1.02-.48,1.13-.54,0-1.61-.32-3.23-.97-1.51-.75-2.32-1.34-2.42-1.78-.43-1.72-.11-3.28.97-4.68.21-.43.32-.7.32-.81-.22-.21-.54-.32-.97-.32-1.4.43-2.26,1.02-2.58,1.78.11,2.15.16,4.25.16,6.3s-.38,3.39-1.13,4.04c-.22.11-.38.16-.48.16-.22.11-.38,0-.48-.32-2.58-2.58-4.09-4.09-4.52-4.52-.75.65-1.51,1.29-2.26,1.94-.32.21-.65.11-.97-.32-.43-.75-.65-1.51-.65-2.26-.11-.65.05-.97.48-.97.11,0,.32-.05.65-.16,1.61-2.26,2.04-3.93,1.29-5,0-.21.05-.32.16-.32.11-.21.38-.16.81.16.86.43,1.45,1.13,1.78,2.1,0,.22-.06.48-.16.81.97-.75,1.99-1.45,3.07-2.1v-3.71c-.86.32-1.61.81-2.26,1.45-.86.43-1.35.59-1.45.48-.97-.21-1.61-.65-1.94-1.29-.11-.43-.11-.7,0-.81,0-.11.16-.16.48-.16.11,0,.48-.16,1.13-.48.75-.54,2.1-1.02,4.04-1.45v-.97c-.32.11-.54.22-.65.32-.32.11-.7.11-1.13,0-.97-.32-1.67-.65-2.1-.97-.32-.21-.48-.38-.48-.48.11-.21.32-.32.65-.32.75-.32,1.34-.65,1.78-.97.54-.43,1.18-.81,1.94-1.13v-1.29c-1.08.75-2.15,1.19-3.23,1.29-.75.11-1.61.38-2.58.81-.22.22-.38.16-.48-.16-.11-.11,0-.32.32-.65,1.61-2.15,3.6-3.71,5.97-4.68v-1.13c0-.21-.06-.32-.16-.32-.22,0-.38.22-.48.65-.32.43-.48.43-.48,0v-.32c-.32.11-.54.22-.65.32-2.69.97-5.49,5.65-8.39,14.04-2.26,6.24-4.41,10.01-6.46,11.3l-.48.16c-.22-.11-.27-.38-.16-.81.11-1.4.32-2.15.65-2.26.86-.75,2.26-3.6,4.2-8.56,1.94-5.17,3.44-8.56,4.52-10.17.54-.75,1.02-1.45,1.45-2.1ZM92.29,29.89c2.15-.21,3.6.06,4.36.81.43.32.65.65.65.97-.11.54-.32,1.02-.65,1.45-1.29,1.4-4.2,2.05-8.72,1.94l-.16-.16c.11-.21.21-.32.32-.32,1.94-.32,3.28-.81,4.04-1.45.32-.43.48-.7.48-.81-.11-.21-.54-.81-1.29-1.78-.22-.32-.16-.48.16-.48.22-.11.48-.16.81-.16ZM94.55,62.17c.11,0,.16-.16.16-.48v-3.71c-.32.43-1.51,1.51-3.55,3.23,1.94.75,3.07,1.07,3.39.97ZM99.23,46.35c-.86.32-1.61.65-2.26.97v1.78c1.18-.43,1.83-.65,1.94-.65,0-.11.05-.21.16-.32.86-1.4,1.61-3.55,2.26-6.46.21-.65.16-1.02-.16-1.13-.43-.11-.86-.11-1.29,0-.86.22-1.67.65-2.42,1.29-.11.65-.16,1.45-.16,2.42h-.16c.86-.11,1.51,0,1.94.32.32.22.48.48.48.81.11.32.16.54.16.65,0,.22-.16.32-.48.32Z"/>
    </g>
    <g>
      <g>
        <path d="M41.22,78.72l-.26-.02s-.07.06-.13.13c-.06.08-.16.15-.29.21-.13.07-.21.13-.23.19-.03.06-.05.11-.08.15-.03.04-.06.08-.09.14-.03.06-.08.1-.13.14-.05.04-.09.1-.12.18-.03.08-.09.12-.17.12-.27,0-.41-.17-.41-.52,0-.1.06-.29.19-.56.13-.27.27-.43.42-.48.15-.05.27-.09.35-.13.08-.04.15-.07.22-.1.07-.03.24-.14.53-.35.01-.01.17-.06.48-.14l.35-.21c.05-.06.09-.1.13-.1.04,0,.09-.03.15-.06l.16-.02c.07-.08.18-.15.33-.19l.27-.11c.18-.1.4-.19.68-.27l.06-.04s.03-.03.06-.04l.26.02c.08,0,.13-.06.15-.18.03-.01.04-.02.06-.02l.24.02s.04-.02.09-.05c.05-.03.11-.05.18-.07.07-.01.12-.05.17-.1.04-.06.09-.08.14-.08h.16c.05,0,.11-.05.18-.15.07-.1.16-.2.28-.3.03.01.05.02.08.02.04,0,.07-.04.1-.13.03-.08.08-.15.14-.2.06-.05.13-.14.2-.27.08-.13.15-.21.21-.25.07-.03.13-.09.19-.15.06-.07.12-.1.18-.11l.02-.02v-.12c0-.1.09-.2.27-.28.03-.01.06-.04.1-.08v-.14s.03-.06.09-.13c.06-.07.09-.12.09-.16,0-.05.1-.18.3-.4.2-.22.34-.35.43-.4.09-.05.19-.18.31-.38l.13-.05c.13-.18.24-.3.33-.38.09-.08.17-.18.25-.31l.14-.16s.06-.04.06-.08-.04-.06-.11-.06c-.08,0-.2-.03-.35-.08l-.16.06-.17-.02-.24.11-.23-.02c-.16.1-.27.15-.33.16-.06.01-.11.03-.15.04-.03.01-.07.03-.12.04-.04.01-.1.04-.18.09-.08.04-.18.07-.31.07-.05,0-.11.03-.18.09-.07.06-.18.13-.34.22,0,.01,0,.02-.02.02l-.27-.02c-.28.28-.46.43-.54.43l-.22-.04c-.22.08-.39.18-.52.28-.12.11-.24.19-.36.26l-.17-.02c-.15.15-.25.24-.29.27-.04.03-.08.08-.11.15-.03.07-.1.1-.18.1l-.21.16c0,.09-.07.2-.22.31l-.02.04v.21c0,.05-.05.12-.15.2-.1.09-.17.13-.22.13-.11,0-.23-.07-.35-.22-.12-.15-.17-.3-.17-.46,0-.02.02-.09.06-.19l.09-.41c.05-.2.38-.39.98-.59l.15-.11c.13-.08.22-.11.27-.11l.11-.04.06-.14s.1-.06.19-.09c.09-.04.18-.09.25-.15.08-.06.19-.12.33-.18l.15-.09h.2c.3-.3.98-.6,2.05-.92,1.07-.32,1.94-.47,2.61-.47.18,0,.36.12.54.35.18.23.27.44.27.64,0,.12-.07.24-.21.37-.1.05-.18.17-.23.35-.05.18-.14.31-.26.39-.25.22-.39.36-.41.41l-.09.19c-.03.06-.07.1-.12.12-.06.02-.11.09-.16.21-.05.11-.18.2-.39.26-.01,0-.02.05-.03.12,0,.07-.08.15-.23.23l-.11.09c-.06.2-.12.32-.18.35l-.09.09c-.09.31-.23.46-.44.46-.04,0-.08.06-.12.17-.03.11-.13.21-.28.3v.06c.27-.09.47-.13.59-.13l.13-.02.06-.06s.08.04.11.04c.08,0,.17-.04.27-.13l.15.02s.03-.02.07-.02l.48-.14c.14-.03.29-.06.47-.1h.1c.22,0,.38.07.5.2.12.13.18.29.18.48l-.04.27.02.14s-.06.09-.18.17l-.09.08c-.15.13-.31.2-.48.2-.29,0-.46-.07-.52-.22,0-.03-.04-.04-.13-.05-.09,0-.15-.02-.19-.05-.04-.02-.08-.04-.1-.04-.08,0-.17-.01-.26-.04-.11.08-.24.11-.37.11h-.06l-.11-.04-.18.13s-.03,0-.06-.02c-.02-.01-.05-.02-.08-.02-.04,0-.08.01-.13.04-.05.03-.1.04-.15.04l-.13-.05s-.08.03-.13.04c-.05,0-.1.05-.16.12-.06.08-.12.11-.18.11-.11,0-.21.1-.31.31l-.06.06h-.06s-.08.05-.1.16c-.02.1-.04.17-.07.19-.1.01-.16.05-.19.1-.02.05-.06.16-.1.33l-.09.17-.11.07c-.06.24-.18.47-.35.68-.17.22-.29.39-.37.54-.08.14-.15.24-.22.29-.07.05-.11.13-.14.25-.03.12-.06.2-.09.24-.04.04-.11.18-.23.41l-.29.5-.12.28c-.04.09-.1.13-.17.13-.04,0-.06.03-.06.1v.19s-.06.18-.19.45l-.07.19s-.05.05-.11.09c-.06.03-.11.11-.13.25-.03.13-.06.22-.11.26-.05.04-.08.12-.09.24-.01.12-.08.2-.19.24-.01.11-.02.19-.03.23,0,.04-.06.08-.17.12h-.02l.06.32s-.01.07-.04.07c-.06.04-.09.07-.09.1l.04.11v.04s-.03.09-.08.18v.02s.03.14.08.35l-.06.11c0,.11.05.17.15.17l.29-.19c.09,0,.13.1.13.31l.03.09c-.06.04-.08.07-.08.09,0,.03,0,.05.02.09.01.03.02.06.02.09,0,.21-.19.31-.56.31h-.04s-.06-.01-.11-.04l-.2.02c-.08,0-.21-.07-.41-.22-.2-.14-.35-.36-.45-.66-.1-.29-.16-.55-.16-.77l.27-1.09s.04-.07.04-.12.02-.12.07-.2l.11-.31c.17-.3.27-.47.31-.49.04-.02.09-.06.16-.09.07-.04.12-.08.14-.11-.11-.04-.17-.07-.17-.1,0-.02.05-.11.15-.28.1-.17.18-.26.24-.27.01,0,.02,0,.02-.02s0-.04-.02-.08v-.02s.04-.08.11-.21l-.04-.14s.06-.08.11-.11c.05-.04.11-.14.19-.32.08-.17.14-.27.19-.29.04-.02.08-.05.09-.07l-.03-.27s.02-.06.07-.1l.06-.11c.03-.05.06-.1.09-.14.04-.04.09-.12.15-.23l.07-.08s.06-.12.11-.24c0-.13.07-.26.21-.41l.36-.56c.25-.39.38-.61.38-.66v-.02c-.14,0-.32.06-.54.18-.22.12-.34.18-.37.18l-.22-.06s-.13.11-.3.29c-.3,0-.58.1-.86.29l-.04.02h-.19l-.04.02-.06.1c-.07.02-.15.07-.26.13-.1.06-.19.1-.26.13l-.13.15Z"/>
        <path d="M42.4,86.15h-.04s-.07-.01-.12-.04l-.19.02h0c-.09,0-.23-.07-.44-.23-.21-.15-.36-.38-.47-.68-.11-.3-.16-.56-.16-.79h0s.27-1.11.27-1.11h0s.02-.06.02-.1c0-.07.02-.14.07-.22l.11-.31c.23-.42.3-.49.33-.52.04-.03.1-.06.16-.1.03-.02.06-.04.08-.05-.1-.04-.14-.08-.14-.12,0-.02,0-.04.15-.31.1-.17.18-.26.25-.29,0,0,0-.02-.01-.04h0v-.03s0-.03.11-.22l-.04-.14v-.02s.08-.08.13-.12c.03-.02.08-.09.18-.3.11-.24.17-.3.21-.31.03-.02.06-.03.07-.05l-.03-.25s.02-.08.07-.14l.05-.11c.03-.05.06-.1.1-.15.04-.04.09-.12.15-.22l.07-.08s.05-.1.1-.22c0-.14.08-.28.22-.43l.35-.55c.26-.4.34-.55.36-.61-.12.01-.28.07-.46.18-.34.19-.37.19-.39.19h-.01s-.2-.05-.2-.05c-.02.02-.09.08-.28.28h-.01s-.02.01-.02.01c-.29,0-.57.1-.84.28l-.05.03h-.21s-.06.11-.06.11h-.02c-.07.03-.15.07-.25.13-.1.06-.18.1-.25.13l-.14.16-.26-.02s-.05.04-.11.11c-.07.08-.17.16-.3.22-.15.08-.2.13-.21.17-.03.07-.05.12-.08.16-.03.04-.06.08-.09.13-.04.06-.08.11-.14.16-.04.03-.08.08-.11.16-.04.1-.11.15-.21.15-.21,0-.45-.1-.45-.57,0-.11.06-.3.19-.58.13-.29.28-.45.44-.5.15-.05.26-.09.34-.13.08-.04.15-.07.22-.1.04-.02.17-.09.52-.34,0,0,.02-.02.49-.15l.34-.2c.06-.07.11-.11.16-.11.03,0,.08-.02.14-.05h.02s.14-.02.14-.02c.08-.08.19-.15.34-.19l.26-.11c.17-.1.4-.19.68-.27l.05-.03s.03-.03.06-.04h.01s.27.01.27.01c.02,0,.07,0,.1-.14v-.02s.02-.01.02-.01c.03-.02.06-.02.08-.02l.24.02s.01,0,.07-.04c.05-.03.12-.06.19-.07.06-.01.1-.04.14-.09.05-.07.11-.1.18-.1h.16s.06-.01.14-.13c.07-.1.17-.2.29-.31l.02-.02h.03s.04.03.06.03c0,0,.03-.02.06-.1.03-.09.09-.17.15-.22.06-.05.12-.13.19-.26.08-.14.16-.22.23-.26.06-.03.12-.08.18-.14.06-.07.13-.11.19-.12v-.1c0-.12.1-.23.29-.33.01,0,.04-.02.08-.06v-.12s0-.04.11-.16c.08-.09.08-.12.08-.13,0-.05.04-.13.31-.43.2-.22.35-.36.44-.41.08-.05.18-.17.29-.36h0s.14-.06.14-.06c.13-.18.24-.3.33-.38.08-.08.16-.18.24-.3l.16-.18h.01s.02-.02.02-.04c0,0-.01-.01-.07-.01-.08,0-.2-.02-.35-.07l-.16.06-.17-.02-.24.11-.23-.02c-.16.09-.27.15-.33.16-.06.01-.11.02-.14.04-.04.01-.08.03-.12.04-.04.01-.1.04-.17.08-.08.05-.2.07-.34.07-.03,0-.08.01-.16.08-.07.06-.18.13-.33.22-.01.02-.03.04-.06.04l-.26-.02c-.38.38-.5.42-.56.42l-.21-.04c-.21.08-.37.17-.49.27-.12.11-.25.2-.36.26h-.01s-.16-.01-.16-.01c-.15.14-.24.23-.28.26-.03.02-.07.07-.1.13-.04.08-.11.12-.21.13l-.18.14c0,.1-.08.21-.23.32v.02s0,.2,0,.2c0,.07-.05.14-.16.24-.11.1-.19.14-.25.14-.13,0-.26-.08-.38-.24-.12-.16-.19-.32-.19-.49,0-.02,0-.06.06-.21l.09-.4c.05-.21.38-.42,1-.62l.15-.11c.13-.08.23-.12.29-.12l.09-.03.05-.14h.01s.11-.07.2-.11c.09-.04.17-.08.24-.14.08-.07.19-.13.34-.19l.16-.1h.19c.31-.3.98-.6,2.05-.92,1.07-.32,1.95-.48,2.62-.48.2,0,.39.12.58.36.19.24.28.46.28.67,0,.13-.08.27-.22.4h-.01c-.09.05-.16.16-.2.32-.05.19-.15.33-.27.42-.33.29-.38.37-.39.39l-.09.19c-.03.07-.08.12-.15.15-.03.01-.08.06-.14.19-.05.12-.19.22-.4.28,0,.01,0,.04-.01.08,0,.09-.09.18-.25.27l-.1.08c-.08.26-.15.33-.19.36l-.08.08c-.1.32-.26.49-.48.49,0,0-.04.02-.07.13-.03.09-.09.18-.19.25.2-.06.35-.09.46-.09l.11-.02.07-.07.03.02s.06.03.09.03c.07,0,.15-.04.24-.12h.02s.15,0,.15,0c.02-.01.04-.02.07-.02l.48-.14c.14-.03.3-.06.47-.1h.01s.1,0,.1,0c.23,0,.41.07.54.21.13.14.19.31.19.51l-.04.27.02.14c0,.06-.06.13-.2.22l-.09.07c-.16.14-.33.21-.51.21-.31,0-.5-.08-.56-.25h0s-.03-.01-.09-.02c-.09,0-.16-.02-.21-.05-.05-.03-.07-.03-.08-.03-.08,0-.16-.01-.25-.03-.12.07-.24.11-.38.11h-.07s-.09-.03-.09-.03l-.17.13h-.02s-.05,0-.08-.02c-.05-.02-.1-.02-.16.02-.06.03-.11.05-.17.05h-.02s-.11-.04-.11-.04c-.04.02-.08.03-.12.03-.02,0-.06.02-.13.11-.07.09-.14.13-.22.13-.09,0-.18.1-.27.29h0s-.07.08-.07.08h-.08s-.03.02-.05.12c-.03.15-.06.2-.08.22h-.01s-.02.01-.02.01c-.06,0-.13.03-.15.07-.02.05-.05.16-.1.32l-.09.19-.11.06c-.07.24-.18.47-.35.68-.17.21-.29.39-.37.53-.08.15-.16.25-.23.3-.06.04-.1.12-.12.22-.03.13-.06.21-.11.26-.02.03-.08.12-.22.4l-.3.51-.12.27c-.05.11-.12.16-.21.16,0,0-.01,0-.01.05v.19s0,.05-.19.47l-.06.19s-.06.07-.14.11c-.05.02-.09.1-.11.21-.03.14-.07.24-.12.28-.03.02-.06.07-.07.21-.01.13-.08.22-.19.27-.01.1-.02.17-.03.21-.01.05-.07.1-.18.15l.05.28c0,.09-.04.11-.07.12-.04.03-.06.04-.06.05l.04.11v.04s0,.07-.08.19h0s.01.08.07.35v.02s-.06.12-.06.12c0,.09.04.11.09.11l.29-.19h.01c.17,0,.18.26.18.35l.04.12-.03.02c-.06.04-.06.06-.07.06,0,.02,0,.04.02.07.02.04.02.07.02.1,0,.24-.2.36-.6.36ZM42.26,86.02h.01c.06.04.09.04.09.04h.04c.51,0,.51-.2.51-.27,0-.02,0-.04-.02-.07-.01-.04-.02-.07-.02-.1,0-.04.02-.07.08-.11l-.02-.08c0-.09-.01-.25-.08-.26l-.29.19h-.01c-.07,0-.2-.03-.2-.22h0s.05-.12.05-.12c-.06-.27-.07-.32-.07-.35v-.03h0c.07-.13.07-.16.07-.17v-.03l-.04-.12s.04-.09.12-.13h.01s0-.02,0-.03l-.07-.37h.06c.12-.05.13-.08.13-.09,0-.04.02-.11.03-.22v-.03s.03,0,.03,0c.1-.03.15-.1.16-.2.01-.14.05-.23.11-.27.03-.02.06-.08.09-.23.03-.15.08-.24.16-.28.08-.04.09-.06.09-.07l.06-.18c.16-.36.18-.43.19-.44v-.19c0-.13.07-.14.1-.14.02,0,.08,0,.13-.11l.12-.27.3-.51c.15-.32.21-.39.23-.42.02-.02.05-.08.08-.22.03-.13.08-.22.15-.28.06-.05.13-.14.21-.27.08-.14.21-.33.37-.54.16-.21.28-.43.34-.67v-.02s.12-.07.12-.07l.08-.16c.04-.16.08-.27.1-.32.03-.07.1-.11.2-.12.01-.02.03-.06.05-.16,0-.05.04-.19.14-.19h.04l.04-.04c.11-.22.22-.33.35-.33.05,0,.1-.03.14-.1.07-.09.13-.13.19-.14.04,0,.08-.02.11-.03h.02s.14.04.14.04c.04,0,.08-.01.12-.04.09-.06.17-.06.25-.03.01,0,.02,0,.03.01l.18-.13.13.04h.05c.12,0,.24-.04.34-.11h.02s.02,0,.02,0c.08.02.17.04.24.04.03,0,.08.01.13.04.04.02.1.04.18.04.05,0,.16.01.17.08.05.12.21.18.48.18.16,0,.31-.06.45-.19l.1-.08c.15-.1.16-.13.16-.14l-.02-.14.04-.27c0-.17-.06-.32-.17-.45-.11-.12-.27-.18-.47-.18h-.09c-.17.04-.32.07-.46.09l-.49.14s-.03,0-.03,0l-.02.02-.15-.02c-.14.12-.27.17-.4.1l-.04.04-.15.02c-.12,0-.31.04-.58.13l-.06.02v-.15h.02c.14-.1.23-.19.26-.29.03-.08.07-.2.16-.2.18,0,.31-.14.39-.43h0s.11-.12.11-.12c.02-.01.08-.07.16-.32h0s.12-.12.12-.12c.18-.1.21-.17.21-.2,0-.1.02-.14.05-.16.2-.06.32-.13.37-.23.06-.13.12-.2.18-.23.05-.02.08-.05.1-.1l.09-.19s.08-.12.42-.42c.11-.08.19-.2.24-.37.05-.19.14-.31.24-.37.13-.12.19-.23.19-.33,0-.18-.09-.39-.26-.61-.17-.22-.34-.33-.51-.33-.66,0-1.53.16-2.59.47-1.06.31-1.74.62-2.03.91h-.01s-.2.01-.2.01l-.14.09c-.15.06-.25.12-.33.18-.08.07-.17.12-.26.16-.08.03-.14.06-.17.08l-.06.15-.15.05s-.1.02-.25.11l-.16.12c-.72.24-.91.43-.95.55l-.09.41c-.05.14-.06.17-.06.18,0,.15.06.29.17.43.11.14.21.21.31.21.02,0,.08-.02.19-.12.12-.1.13-.15.13-.17v-.22l.04-.06c.13-.1.2-.2.2-.28v-.02l.24-.18h.02c.07,0,.12-.02.14-.08.04-.08.08-.13.13-.16.03-.02.1-.08.28-.26l.02-.02.18.02c.11-.06.22-.14.33-.24.13-.11.31-.21.53-.29h.01s.23.04.23.04c.02,0,.13-.04.5-.41h.01s.27,0,.27,0h.02c.15-.1.26-.17.33-.23.08-.07.15-.1.21-.1.12,0,.22-.02.29-.06.08-.05.14-.08.19-.09.04-.01.08-.02.11-.04.04-.01.09-.03.15-.04.06-.01.16-.06.32-.16h.01s.23.01.23.01l.24-.11.17.02.17-.06h.02c.15.05.26.08.34.08.14,0,.16.06.16.1,0,.05-.03.09-.08.12l-.13.15c-.07.12-.16.23-.25.31-.09.08-.19.2-.33.38h0s-.13.06-.13.06c-.12.2-.22.33-.32.38-.08.05-.22.18-.42.39-.27.29-.29.36-.29.37,0,.04-.03.1-.11.19-.06.07-.08.1-.08.11v.16h-.02c-.05.05-.08.08-.11.1-.16.08-.24.16-.24.24v.14l-.04.04h-.02c-.05,0-.1.04-.15.1-.06.07-.13.12-.2.16-.06.03-.12.11-.19.23-.08.13-.15.23-.21.28-.05.05-.1.11-.12.18-.03.07-.07.16-.15.16-.02,0-.05,0-.07-.01-.11.09-.19.18-.26.27-.08.11-.15.17-.22.17h-.16s-.07.02-.11.07c-.05.07-.12.11-.19.12-.06.01-.11.03-.16.06-.07.05-.1.05-.12.05l-.24-.02s0,0-.01,0c-.04.16-.13.19-.19.19l-.25-.02s-.03.02-.03.02l-.08.05c-.27.08-.5.17-.67.27l-.27.12c-.15.04-.25.1-.31.18h-.01s-.17.03-.17.03c-.06.03-.12.05-.16.06-.01,0-.05.02-.1.09h-.01s-.36.22-.36.22c-.39.1-.46.13-.47.14-.29.2-.46.32-.53.35-.07.03-.14.06-.22.1-.08.04-.2.08-.35.13-.14.04-.27.2-.39.45-.15.33-.19.48-.19.54,0,.43.21.47.36.47.06,0,.1-.03.13-.09.03-.09.08-.15.14-.19.05-.03.08-.08.12-.13.03-.06.06-.1.09-.14.02-.03.05-.08.07-.14.03-.08.11-.15.25-.22.12-.06.22-.13.27-.2.09-.11.13-.13.15-.14h.01s.25.01.25.01l.13-.14h.01c.07-.03.15-.07.25-.13.1-.06.18-.1.25-.13l.06-.09.06-.03h.22c.27-.21.56-.31.86-.31.26-.27.29-.28.3-.29h.02s.23.05.23.05c.02,0,.09-.04.34-.18.23-.13.42-.19.56-.19h.05v.06s-.05.17-.39.69l-.36.56c-.14.14-.2.27-.2.38v.02c-.06.12-.09.2-.12.24l-.07.08c-.06.1-.11.18-.15.23-.04.04-.07.09-.09.13l-.07.13c-.05.05-.05.07-.05.07l.03.28h-.01s-.06.07-.11.1c-.01,0-.06.04-.17.27-.09.18-.15.29-.21.33-.04.03-.07.06-.09.09l.04.14v.02c-.1.16-.12.19-.12.19h0c.02.05.02.07.02.09,0,.04-.03.06-.06.06-.01,0-.08.04-.2.25-.1.18-.13.24-.14.26,0,0,.04.03.14.06l.06.02-.03.05s-.08.09-.16.13c-.06.03-.12.07-.16.09-.01.01-.07.08-.3.48l-.11.31c-.04.08-.06.13-.06.18,0,.06-.01.11-.04.14l-.26,1.07c0,.21.05.47.15.75.1.28.25.5.44.64.25.18.35.21.39.21l.21-.02Z"/>
      </g>
      <g>
        <path d="M53.39,81.86l-.45.39s-.05-.04-.08-.04c-.06,0-.14.06-.23.17-.09.11-.16.17-.19.17l-.09-.02c-.16.12-.27.19-.34.21-.07.02-.15.05-.25.1-.1.05-.19.08-.27.08-.08,0-.14.03-.19.08-.05.05-.17.07-.37.07l-.15-.02c-.08.04-.14.06-.16.06-.05,0-.1-.03-.16-.08-.06-.05-.12-.08-.18-.09-.07,0-.13-.05-.2-.13-.07-.08-.13-.14-.19-.17-.06-.03-.11-.08-.15-.13l-.13-.11c-.11-.08-.21-.22-.31-.42-.1-.2-.15-.36-.15-.47v-.04l.02-.18-.02-.21s.06-.08.09-.16v-.3l.23-.76s-.01-.07-.08-.12c-.06.1-.13.15-.19.17-.06.02-.11.06-.13.13-.02.07-.06.1-.11.1l-.11-.04s-.04.08-.09.19c-.04.12-.12.17-.23.17-.11,0-.17-.04-.17-.13l.02-.17-.06-.24c0-.05.05-.15.15-.3.1-.15.19-.23.28-.26.09-.02.16-.08.22-.18.06-.1.19-.22.39-.36.11-.02.21-.11.29-.25.09-.07.2-.13.35-.17.14-.04.25-.11.32-.19.07-.09.29-.22.65-.4.36-.18.62-.27.78-.27.05,0,.12-.01.21-.04.09-.03.17-.05.25-.08.08-.02.16-.06.24-.1.08-.05.15-.07.2-.07l.28.1c.2.06.33.1.37.12.01.01.08.04.19.08.12.04.24.1.36.17.12.07.19.2.19.39-.11.16-.16.24-.16.26,0,.03.07.06.22.11.05.1.13.22.23.37l.1.33.02.78-.02.08c-.07.06-.1.1-.1.12l.03.19-.08.27c-.02.08-.05.14-.1.16-.04.03-.07.06-.08.1l-.06.08s-.04.07-.08.17c-.04.09-.09.16-.14.21-.05.05-.08.11-.09.18-.01.07-.04.12-.1.15-.05.03-.09.06-.11.1-.02.04-.06.06-.11.09ZM50.45,82.11l.04.22.02.02h.15l.05.02c.13.03.22.04.28.04.2,0,.35-.05.47-.15.12-.1.21-.15.28-.15s.13-.05.17-.14c.05-.09.08-.14.09-.14h.13l.04-.02c0-.15.06-.25.19-.31.13-.06.22-.15.27-.25.05-.1.12-.18.18-.24.07-.05.12-.13.14-.21l.08-.11s.04-.07.04-.14l.18-.34c.04-.16.06-.28.06-.37,0-.13-.07-.24-.2-.31-.14-.08-.2-.22-.2-.45,0-.14.07-.28.22-.4.15-.12.22-.2.22-.22,0-.04-.02-.06-.06-.06-.02,0-.09.03-.22.08-.04.09-.27.2-.67.35-.13-.06-.21-.09-.22-.09-.04,0-.08.04-.11.11-.04.08-.08.13-.11.16h-.12s-.05.04-.12.12c-.07.08-.16.12-.26.12l-.11.11c0,.1-.06.21-.19.31l-.1.12c-.06.08-.14.16-.25.27l-.17.43c-.07.16-.1.29-.1.37-.02.04-.06.08-.13.12-.07.04-.1.09-.1.16,0,.01.02.04.07.09.04.05.07.09.07.11l-.04.12-.04.35.09.3Z"/>
        <path d="M50.61,83.17c-.06,0-.13-.03-.19-.09-.05-.05-.1-.07-.16-.08-.08,0-.16-.06-.24-.15-.07-.08-.13-.13-.18-.16-.06-.03-.12-.08-.16-.14l-.13-.11c-.11-.08-.22-.22-.32-.43-.1-.21-.16-.37-.16-.49v-.04l.02-.19-.02-.22.02-.02s.04-.05.08-.14v-.31s.23-.76.23-.76c0,0,0-.01-.02-.04-.06.08-.12.13-.18.15-.05.01-.08.05-.1.1-.04.11-.1.14-.15.14h-.01s-.08-.03-.08-.03c-.01.02-.03.07-.06.16-.06.17-.18.2-.27.2-.19,0-.22-.11-.22-.18l.02-.17-.06-.24s.02-.11.16-.32c.11-.16.21-.25.31-.27.07-.02.14-.07.19-.16.06-.11.2-.23.41-.37h.02c.1-.03.19-.1.26-.23h.01c.09-.09.21-.15.36-.19.13-.04.23-.1.3-.18.08-.09.29-.22.66-.41.37-.18.63-.27.8-.27.05,0,.11-.01.2-.04.09-.03.17-.05.25-.08.07-.02.15-.05.23-.1.09-.05.16-.08.22-.08h.02s.28.1.28.1c.2.06.33.1.38.13h.01s.03.02.18.08c.12.04.24.1.37.17.14.08.21.22.21.43h0s0,.03,0,.03c-.09.14-.13.2-.15.22.02.01.07.04.18.08h.02s0,.02,0,.02c.05.09.13.22.23.36h0s.11.36.11.36l.02.78-.02.1h-.01c-.06.07-.08.09-.09.1l.03.19-.08.27c-.02.09-.06.16-.12.19-.03.02-.06.04-.06.07h0s-.06.09-.06.09c0,0-.02.04-.08.16-.04.1-.09.17-.15.23-.04.04-.07.1-.08.16-.02.08-.05.14-.12.18-.04.03-.08.06-.09.08-.03.04-.07.08-.12.1l-.47.41-.03-.03s-.03-.02-.04-.02c-.03,0-.09.02-.2.15-.13.17-.19.19-.23.19l-.08-.02c-.16.12-.27.18-.34.2-.07.02-.15.05-.24.1-.1.05-.2.08-.28.09-.07,0-.12.03-.17.07-.06.06-.19.08-.4.08l-.14-.02c-.11.05-.15.06-.17.06ZM49.17,81.1l.02.19-.02.19v.03c0,.11.05.26.15.45.1.19.2.33.3.4l.14.13c.03.05.08.09.13.12.07.03.13.09.21.18.06.07.12.11.17.12.08,0,.15.04.21.1.05.05.09.07.13.07,0,0,.03,0,.14-.05h.01s.16.02.16.02c.23,0,.31-.04.33-.06.06-.05.13-.09.22-.09.07,0,.16-.03.25-.08.1-.05.19-.09.26-.11.04-.01.14-.06.33-.2h.02s.11,0,.11,0c.01,0,.05-.02.16-.15.13-.17.24-.23.34-.16l.43-.37s.07-.05.09-.07c.03-.04.07-.08.12-.11.04-.02.06-.06.07-.12.01-.08.05-.15.11-.2.05-.05.09-.11.13-.2.06-.13.08-.16.08-.17l.05-.07s.05-.08.1-.11c.03-.02.06-.06.07-.13l.07-.26-.03-.18s.02-.07.11-.15v-.06s0-.76,0-.76l-.1-.32c-.09-.14-.17-.26-.22-.35-.2-.07-.23-.11-.23-.15,0-.02,0-.03.16-.27,0-.17-.06-.27-.16-.33-.12-.07-.24-.12-.35-.16-.15-.05-.19-.07-.21-.09-.03-.01-.11-.05-.36-.12l-.27-.09s-.08.02-.17.06c-.09.05-.17.09-.25.11-.08.02-.16.05-.25.08-.09.03-.17.05-.22.05-.16,0-.41.09-.76.27-.44.22-.58.33-.63.39-.08.09-.19.16-.34.21-.13.04-.24.09-.32.16-.09.14-.19.23-.31.26-.19.13-.32.25-.37.34-.07.11-.15.18-.25.2-.07.02-.16.1-.25.24-.12.18-.14.24-.14.27l.06.24-.02.18s0,.08.13.08c.09,0,.15-.05.19-.15.06-.17.08-.2.1-.21l.02-.02.13.04s.04-.01.06-.07c.03-.08.08-.14.16-.16.05-.02.11-.07.16-.15l.03-.04.04.03s.12.1.09.18l-.22.75v.32c-.04.07-.07.13-.09.16ZM50.99,82.45c-.07,0-.17-.01-.29-.04l-.05-.02h-.16l-.04-.04-.04-.23-.1-.31.04-.36.04-.12s-.01-.03-.05-.08c-.07-.07-.08-.1-.08-.12,0-.08.04-.15.12-.2.06-.04.09-.07.11-.09,0-.09.04-.21.11-.38l.18-.44c.1-.1.18-.19.24-.26l.1-.12c.13-.1.18-.19.18-.28v-.02s.14-.14.14-.14h.02c.09,0,.17-.04.23-.11.11-.13.13-.14.16-.14h.1s.06-.07.09-.14c.05-.09.1-.14.15-.14.01,0,.03,0,.22.09.5-.18.61-.28.63-.32v-.02s.02,0,.02,0c.18-.07.22-.08.23-.08.06,0,.1.04.1.1,0,.03-.02.07-.24.26-.14.11-.21.24-.21.37,0,.21.06.34.18.41.15.08.23.2.23.35,0,.09-.02.22-.06.38h0s-.17.34-.17.34c0,.08-.02.13-.05.16l-.07.1c-.03.09-.08.17-.16.23-.06.05-.12.12-.17.22-.06.11-.16.2-.29.27-.11.06-.17.14-.17.27v.03l-.07.04h-.13s-.03.04-.07.12c-.06.11-.13.17-.22.17-.04,0-.12.02-.25.14-.12.1-.29.16-.5.16ZM50.53,82.3h.15s.05.02.05.02c.11.02.21.03.27.03.18,0,.33-.05.44-.14.13-.11.23-.16.31-.16.02,0,.08,0,.13-.12.07-.14.1-.17.13-.17h.12c0-.15.08-.26.22-.33.12-.06.2-.14.25-.23.06-.11.12-.19.2-.25.06-.05.1-.11.13-.19h0s.08-.13.08-.13c.01-.01.03-.04.03-.12h0s.18-.36.18-.36c.04-.15.05-.27.05-.35,0-.12-.06-.21-.18-.27-.15-.08-.23-.25-.23-.49,0-.16.08-.31.24-.44.18-.15.2-.19.21-.2,0,0,0,0,0,0,0,0,0,0,0,0,0,0-.04,0-.19.07-.04.07-.17.17-.69.36h-.02s-.02,0-.02,0c-.16-.08-.2-.09-.2-.09,0,0-.02,0-.07.09-.04.08-.08.14-.13.18h-.01s-.13.01-.13.01c0,0-.04.03-.1.11-.07.09-.17.13-.28.14l-.09.09c0,.11-.07.22-.21.33l-.1.12c-.06.08-.15.17-.24.26l-.17.42c-.07.16-.1.28-.1.35h0s0,.02,0,.02c-.02.05-.07.09-.14.14-.05.03-.08.07-.08.12,0,0,.01.01.05.07.05.06.08.11.08.14h0s-.04.14-.04.14l-.04.33.09.29.04.2Z"/>
      </g>
      <g>
        <path d="M63.8,80.99h.04l.09.04s.03,0,.04-.02c0-.11.05-.2.15-.28.03-.12.1-.21.21-.27.11-.06.29-.17.53-.31l.24-.21.11-.06.08-.1c.07-.08.14-.12.2-.12.09,0,.14.04.14.1l-.09.19.04.31c0,.11-.04.22-.12.3-.08.09-.2.22-.36.39l-.48.51-.26.13c-.06.04-.12.08-.17.13l-.37.31c0,.09-.03.15-.08.2h-.15l-.08.04c-.04.12-.17.24-.39.35l-.13.09s-.09.06-.12.06l-.27-.04-.18.04c-.05,0-.12-.03-.2-.08-.09-.05-.17-.09-.26-.12-.09-.03-.2-.14-.34-.35-.14-.2-.21-.34-.22-.4,0-.02-.01-.07-.04-.13-.03-.06-.04-.1-.04-.11s.03-.08.09-.19v-.02s-.02-.06-.05-.13c-.03-.07-.05-.15-.05-.26,0-.06-.02-.13-.06-.22.05-.05.08-.09.08-.11s0-.06-.03-.11c-.02-.05-.03-.08-.03-.11l.06-.46-.04-.24.02-.23c0-.13-.06-.2-.17-.2-.05,0-.11.04-.19.1l-.07.02c-.17.08-.29.15-.36.2-.07.05-.14.08-.22.08-.04.04-.11.07-.22.1l-.08.06s-.08.06-.15.11c0,.02-.12.13-.35.32-.24.19-.45.37-.64.54-.19.17-.33.26-.41.28-.08.02-.13.1-.13.24,0,.03-.06.08-.17.15-.01,0-.08.07-.2.21-.1-.08-.16-.11-.17-.11-.08,0-.14.1-.18.31-.04.08-.14.13-.3.15-.01,0-.03.05-.07.14l-.04.04h-.1s-.06.04-.13.11c-.08.07-.14.12-.2.14-.08.17-.15.26-.21.26-.03,0-.06-.01-.11-.04-.05-.03-.11-.05-.18-.07-.07-.02-.15-.1-.23-.23-.09-.14-.13-.25-.13-.35,0-.7.14-1.08.41-1.15l.02-.04v-.08c0-.08.04-.14.11-.18.07-.03.15-.1.22-.21.08-.1.13-.16.15-.18h.12s.04-.07.04-.2c0-.04.02-.07.05-.1.03-.03.05-.08.06-.14,0-.06.05-.16.14-.29.09-.14.13-.22.13-.24l-.02-.04c-.16.15-.27.22-.34.24-.07.01-.16.1-.28.27l-.15-.03c-.27.2-.43.31-.49.33-.06.03-.13.1-.21.22,0,.04-.02.06-.07.08-.04.01-.13.06-.25.15h-.06c-.16,0-.24-.11-.24-.34l.2-.54c.06-.17.19-.31.4-.43.21-.12.39-.23.53-.34.14-.11.29-.16.44-.17l.07-.1c.21-.08.36-.21.44-.39.08-.18.18-.27.31-.27.35,0,.61.13.8.38.18.26.27.46.27.61l.02.26c0,.09-.02.21-.06.37-.08.11-.11.2-.11.26,0,.05.03.08.09.08.04,0,.09-.03.15-.08.06-.05.13-.1.21-.15.08-.04.12-.08.14-.11.06-.15.17-.26.33-.31.16-.06.26-.1.29-.14l.09-.08.08-.14c.17-.08.28-.15.34-.21.06-.06.13-.1.23-.12.09-.02.2-.08.32-.17l.14-.04.13-.08s.05-.03.11-.05c.06-.02.16-.05.28-.1.12-.05.21-.07.25-.07.32,0,.58.13.76.39.19.26.28.47.28.63l-.02.17.04.26v.04l-.08.52.02.18c0,.3-.06.5-.19.62-.03.01-.05.04-.05.09v.09l.19.4c.06.14.1.21.13.21l.3-.08c.09-.02.16-.09.22-.2.05-.02.14-.1.27-.23.04-.1.1-.15.18-.15Z"/>
        <path d="M62.86,82.84h0s-.26-.04-.26-.04l-.18.04c-.06,0-.13-.03-.23-.08-.08-.05-.17-.09-.25-.11-.1-.03-.22-.15-.36-.37-.14-.21-.22-.35-.23-.42,0-.02,0-.04-.04-.12-.04-.09-.05-.11-.05-.13,0-.01,0-.03.09-.2h0s0-.03-.05-.12c-.04-.08-.06-.17-.06-.28,0-.05-.02-.12-.05-.2v-.03s0-.02,0-.02c.06-.06.06-.08.06-.08,0-.01,0-.04-.02-.09-.02-.05-.03-.09-.03-.13l.06-.46-.04-.24.02-.23c0-.13-.06-.15-.12-.15-.02,0-.07.01-.16.09h0s-.08.03-.08.03c-.16.08-.28.14-.34.2-.07.06-.15.09-.23.09-.04.04-.11.07-.21.1l-.07.05s-.07.06-.14.11c-.02.04-.1.11-.36.32-.24.2-.45.38-.64.54-.2.18-.34.27-.43.29-.02,0-.09.02-.09.2,0,.04-.03.08-.19.19h-.01s-.06.06-.18.2l-.03.03-.03-.03c-.1-.08-.14-.1-.15-.1-.05,0-.1.11-.13.27h0c-.04.11-.15.16-.32.19,0,.01-.02.04-.05.11v.02s-.06.05-.06.05h-.11s-.04.03-.11.1c-.07.07-.14.12-.2.14-.09.18-.17.27-.24.27-.03,0-.08-.01-.13-.04-.04-.02-.1-.04-.17-.06-.08-.02-.17-.11-.26-.25-.09-.14-.14-.27-.14-.37,0-.71.14-1.1.42-1.19h0v-.07c0-.1.05-.17.14-.22.07-.03.13-.1.21-.19.11-.15.14-.18.17-.19h0s.11,0,.11,0c0-.02.01-.06.01-.15,0-.05.02-.1.06-.14.02-.02.04-.06.04-.11,0-.07.05-.17.14-.31.04-.06.06-.1.08-.13-.12.1-.2.15-.27.16-.03,0-.11.05-.25.26l-.02.02-.16-.03c-.35.26-.45.31-.49.33-.04.01-.1.06-.18.19,0,.04-.02.08-.1.11-.03,0-.09.04-.23.14h-.01s-.07,0-.07,0c-.13,0-.28-.07-.28-.39v-.02s.2-.54.2-.54c.06-.18.2-.33.42-.46.21-.11.39-.23.53-.33.14-.11.29-.17.44-.18l.06-.09h.01c.2-.08.34-.2.41-.37.08-.2.2-.29.35-.29.36,0,.64.14.83.4.19.27.28.48.28.64l.02.25c0,.1-.02.22-.06.38h0c-.09.15-.11.21-.11.24,0,.02,0,.03.05.03.01,0,.05,0,.12-.07.07-.06.14-.11.22-.15.1-.05.11-.08.12-.09.07-.16.19-.28.36-.34.19-.07.25-.11.28-.13l.09-.07.08-.15h.01c.16-.08.27-.15.33-.2.06-.07.15-.12.25-.14.09-.02.19-.07.3-.16h.02s.14-.04.14-.04l.12-.07s.05-.03.13-.05c.06-.02.15-.05.28-.1.13-.05.22-.07.27-.07.34,0,.6.14.8.41.19.27.29.48.29.65l-.02.17.04.25v.04s-.07.52-.07.52l.02.17c0,.31-.07.53-.2.66h-.01s-.02.03-.02.06v.07l.18.39c.05.13.08.17.09.18l.29-.08c.08-.02.14-.08.19-.18h0s.01-.02.01-.02c.03-.02.1-.06.25-.21.06-.14.15-.17.22-.17h.06s.07.03.07.03c0-.1.06-.19.16-.27.04-.12.11-.22.23-.29.11-.06.29-.17.53-.31l.24-.21.1-.05.07-.09c.08-.09.16-.14.24-.14.17,0,.19.11.19.15v.02s-.08.18-.08.18l.04.3c0,.13-.04.24-.13.34-.08.09-.2.21-.37.39l-.5.52-.26.13c-.06.03-.11.08-.16.12l-.36.3c0,.09-.04.16-.1.21h-.01s-.16.01-.16.01l-.05.03c-.05.13-.19.24-.4.36l-.13.09c-.05.04-.1.07-.15.07ZM56.83,80.34s-.05.05-.13.16c-.08.11-.16.18-.24.22-.06.03-.08.07-.08.13v.09l-.03.07h-.02c-.25.06-.37.43-.37,1.11,0,.09.04.19.12.32.1.16.17.2.21.21.07.02.13.04.18.07.06.03.08.03.09.03,0,0,.06,0,.17-.23v-.02s.03,0,.03,0c.05-.02.11-.06.18-.13.12-.11.14-.12.16-.12h.08l.02-.02c.05-.13.07-.15.09-.16h.02c.14-.02.23-.06.27-.12.02-.09.07-.34.22-.34.02,0,.03,0,.16.1.13-.15.17-.18.19-.19.12-.08.14-.11.14-.12,0-.2.09-.26.16-.28.05,0,.16-.06.39-.27.19-.17.4-.35.64-.55.26-.21.32-.27.34-.29h0s.02-.03.02-.03c.09-.06.13-.09.14-.11l.1-.07c.12-.04.17-.07.2-.09h.01s.02-.01.02-.01c.07,0,.13-.02.19-.07.07-.06.19-.12.37-.21l.06-.02c.08-.07.15-.11.21-.11.08,0,.22.03.22.24l-.02.23.04.24-.06.47s0,.03.03.09c.02.05.03.09.03.13,0,.03-.02.07-.07.12.03.08.05.15.05.21,0,.09.02.17.05.23.05.1.06.13.06.15v.03h0c-.06.14-.08.17-.08.18h0s0,.02.04.08c.03.07.05.11.05.15,0,.03.05.13.22.38.16.24.26.31.31.33.09.03.18.07.27.12.09.06.15.07.18.07l.18-.04.27.04s.06-.02.09-.05l.14-.1c.21-.11.33-.22.37-.33v-.02s.11-.05.11-.05h.15s.06-.09.06-.15v-.02l.39-.33c.05-.05.11-.1.18-.14l.25-.13.48-.51c.17-.18.29-.3.36-.39.07-.08.11-.17.11-.27l-.04-.32.09-.19s-.01-.05-.1-.05c-.05,0-.1.04-.16.11l-.09.11-.11.05-.23.2c-.24.15-.42.25-.53.32-.1.06-.16.14-.19.25v.02s-.02,0-.02,0c-.09.07-.13.14-.13.24v.02h-.01s-.05.05-.07.05h-.02s-.09-.04-.09-.04h-.03s-.1.01-.14.12v.02c-.13.12-.22.2-.27.23-.06.11-.14.18-.24.21l-.32.09s-.09-.04-.18-.24l-.19-.41v-.09c0-.08.03-.12.07-.13.11-.11.17-.3.17-.58l-.02-.18.08-.53v-.03s-.04-.25-.04-.25l.02-.18c0-.14-.09-.34-.27-.59-.18-.25-.42-.37-.72-.37-.03,0-.09.01-.23.07-.12.05-.22.08-.28.1-.08.02-.09.04-.09.04h0s-.14.09-.14.09l-.13.04c-.12.1-.23.15-.33.17-.08.02-.15.05-.2.11-.06.07-.17.14-.34.21l-.08.14-.09.08s-.14.09-.31.15c-.15.05-.25.15-.3.29-.02.04-.07.09-.16.14-.08.04-.14.09-.21.14-.07.06-.13.09-.18.09-.13,0-.14-.09-.14-.12,0-.07.04-.16.12-.27.04-.15.05-.27.05-.35l-.02-.25c0-.14-.09-.34-.27-.59-.18-.25-.42-.36-.76-.36-.11,0-.2.08-.27.24-.08.18-.23.32-.45.41l-.07.1h-.02c-.14,0-.27.06-.41.16-.15.11-.33.22-.54.34-.2.11-.33.25-.38.41l-.2.53c0,.26.11.29.19.29h.04c.16-.12.22-.14.25-.15.03,0,.03-.02.03-.03h0s0-.02,0-.02c.08-.13.16-.21.23-.24.06-.02.22-.13.48-.33h.02s.14.01.14.01c.12-.17.22-.25.3-.27.04,0,.13-.05.32-.23l.04-.04.05.1h0s-.01.08-.14.28c-.1.16-.13.24-.13.27,0,.07-.03.13-.07.16-.02.02-.03.05-.03.07,0,.16-.01.24-.08.24h-.11Z"/>
      </g>
      <g>
        <path d="M65.09,88.59l-.15.1c-.06.04-.13.06-.2.06-.16,0-.31-.1-.46-.31-.15-.21-.22-.42-.22-.64,0-.4.04-.68.12-.85.08-.17.12-.29.14-.37,0,0,.07-.16.2-.47.14-.31.26-.54.38-.7.12-.16.22-.31.3-.45l.04-.08c.09-.15.19-.26.27-.31,0-.04.12-.17.36-.39.24-.22.47-.41.69-.57l.09-.13c.15-.09.24-.14.27-.14l.55-.15c.05-.05.17-.15.37-.29h.08l.26-.08c.14-.06.35-.12.65-.17.29-.05.46-.12.5-.19.04-.07.07-.14.1-.2.03-.06.1-.2.21-.4.03-.11.05-.19.07-.26.02-.06.04-.1.06-.11.02-.01.06-.07.11-.18.05-.11.1-.2.15-.28.01,0,.02,0,.02-.02l-.06-.16c.05-.15.1-.24.16-.28.05-.03.08-.06.08-.07l-.07-.17.16-.35s-.01-.04-.04-.04c-.34.23-.53.35-.59.35-.03.04-.1.12-.21.23-.11.04-.18.1-.22.2l-.08.02-.06.1s-.02.03-.07.05c-.04.02-.13.07-.26.15l-.11-.02s-.06.06-.1.19c-.11.13-.21.2-.31.23-.1.03-.16.06-.18.1l-.08.09-.09-.02c-.13,0-.2.05-.2.15,0,.06-.04.12-.11.2-.05,0-.11.02-.19.06h-.14c-.06.14-.18.22-.34.26l-.27.19-.16.06c-.08.04-.15.08-.23.14-.08.05-.2.09-.39.1-.09-.05-.22-.1-.41-.15-.18-.05-.31-.36-.39-.92h-.02c-.05,0-.11.02-.17.06-.06.04-.1.06-.13.06-.15,0-.23-.06-.23-.19,0-.28.11-.47.32-.56l.24-.29.61-.6c.42-.42.71-.69.85-.81.15-.12.3-.24.47-.35l.48-.32c.16-.11.27-.17.3-.18.04,0,.08-.03.12-.06.04-.03.16-.08.35-.14l.17-.08c.35-.12.58-.18.68-.18l.13.02c.07,0,.14-.02.2-.08.09,0,.23-.07.41-.21l.34-.09c.09-.03.17-.05.24-.05h.18c.13,0,.22.1.26.31.04.21.08.31.11.31.01,0,.05-.05.11-.14l.13-.1c.09-.06.15-.09.18-.09.15,0,.25.06.28.19v.02l.04.05c.06.3.09.49.09.56,0,.3-.06.54-.19.71-.13.17-.21.29-.23.36-.13.51-.25.9-.38,1.16-.03.07-.11.25-.23.55l-.09.1s-.04.03-.04.06l.02.13c-.11.17-.16.31-.16.41,0,.06-.05.17-.15.35.01.01.07.05.17.1.1.05.21.15.33.3.12.15.19.26.19.34,0,.02-.04.14-.1.37-.23.17-.42.26-.58.26-.06,0-.16-.04-.28-.12l-.06.02v-.04c-.08-.02-.15-.04-.19-.07-.05-.03-.09-.04-.14-.04-.05,0-.08.03-.08.08,0,.03,0,.05.02.08-.04.03-.09.08-.15.14,0,.02-.04.11-.13.28-.09.17-.17.28-.24.34-.14,0-.23.11-.28.31-.05.2-.11.33-.18.39l-.09-.04c-.21.43-.43.74-.64.93-.13.03-.2.06-.2.07,0,.02,0,.06-.02.12,0,.07-.09.17-.23.31-.14.14-.23.21-.25.21l-.09.02-.06.06c0,.13-.16.33-.5.61-.18.1-.28.17-.29.21-.05.12-.24.26-.56.43l-.18.16c-.08.08-.16.13-.25.16l-.24.09ZM68.51,83.72l-.28.04c-.07-.05-.12-.08-.16-.08-.03,0-.04.02-.06.06-.08.1-.24.19-.5.26-.26.07-.43.14-.53.21-.09.07-.17.11-.23.12-.06,0-.09.02-.09.04-.06.05-.11.09-.14.13-.06.02-.13.06-.19.12-.06.05-.13.09-.2.1-.11.25-.2.37-.25.37-.01,0-.04,0-.1-.02h-.02c-.08.16-.15.26-.19.28-.04.02-.08.06-.11.11-.03.05-.09.1-.18.16-.09.06-.15.15-.18.29-.03.14-.07.23-.12.27-.05.05-.08.15-.09.32l-.06.13s-.05.15-.08.33c-.03.18-.05.27-.05.28,0,.09.04.17.11.24.03-.03.08-.05.16-.07l.56-.23s.09-.07.21-.18c.12-.1.23-.17.32-.2.09-.03.18-.09.25-.17.05-.08.11-.14.18-.19.07-.05.12-.11.13-.19.15-.13.28-.24.4-.36.12-.11.2-.2.23-.28.03-.07.09-.13.17-.18l.04-.12s.04-.01.08-.02c.04,0,.11-.11.2-.31l.26-.43c.15-.15.27-.34.37-.58l.13-.11s.04-.04.04-.09l-.02-.06ZM68.34,80.7l.11-.16c.04-.05.1-.09.19-.11.09-.03.17-.08.22-.16.15-.21.33-.37.54-.47l.09-.07c.09-.18.18-.28.26-.3.08-.02.14-.07.2-.17.06-.1.09-.18.09-.24,0-.03-.02-.04-.06-.04-.09,0-.17.02-.23.08-.07.05-.11.08-.14.08l-.19-.02c-.11.06-.27.14-.47.23l-.17.14c-.08.05-.14.08-.2.09-.06.01-.11.05-.14.12-.03.07-.07.1-.12.1l-.08.04s-.1.04-.22.04c-.06.04-.13.09-.19.16-.07.07-.11.1-.12.1-.15.16-.27.26-.37.29-.1.04-.17.09-.2.16-.12.03-.22.1-.3.21-.08.11-.16.19-.22.23-.07.04-.12.09-.18.16l-.09.08s-.09.11-.16.25c-.07.14-.1.24-.1.3,0,.04.02.06.07.06.06,0,.18-.05.36-.14.17-.09.29-.16.34-.21.05-.05.09-.08.1-.08l.36.02c.04-.08.1-.14.19-.16.09-.03.16-.08.21-.16.05-.08.19-.17.43-.27l.1-.17h.09Z"/>
        <path d="M64.74,88.8c-.17,0-.34-.11-.5-.33-.15-.22-.23-.44-.23-.67,0-.41.04-.69.12-.87.08-.16.12-.28.13-.36,0,0,0-.01.21-.48.14-.31.27-.55.39-.71.12-.16.22-.3.3-.44l.04-.07c.1-.15.19-.26.27-.32.02-.04.08-.13.37-.4.24-.22.47-.41.68-.57l.1-.14c.2-.12.25-.15.28-.15l.53-.15c.06-.05.18-.15.37-.29h.01s.08,0,.08,0l.25-.07c.14-.06.36-.12.65-.18.38-.07.45-.14.47-.17.04-.07.07-.14.1-.2.03-.06.1-.2.21-.4.02-.1.05-.19.07-.25.02-.08.05-.12.08-.14,0,0,.03-.03.09-.16.05-.11.1-.21.15-.29h0s-.05-.15-.05-.15h0c.05-.18.11-.28.17-.32.03-.02.04-.03.05-.04l-.06-.17.14-.31c-.34.24-.47.3-.53.32-.04.05-.1.12-.2.22h-.02c-.1.04-.16.1-.19.18v.02s-.09.02-.09.02l-.04.07s-.05.05-.09.07c-.04.02-.13.07-.26.15h-.01s-.11,0-.11,0c0,.01-.03.05-.06.15v.02c-.12.13-.23.22-.34.25-.11.03-.15.06-.16.08l-.1.12-.12-.02c-.13,0-.14.05-.14.11,0,.07-.04.15-.13.23h-.01s-.02.01-.02.01c-.04,0-.1.02-.17.05h0s-.12,0-.12,0c-.07.13-.19.22-.35.25l-.28.19-.16.06c-.07.03-.14.08-.22.13-.08.06-.22.09-.41.11h-.01s-.01,0-.01,0c-.08-.05-.22-.1-.4-.14-.2-.05-.34-.35-.42-.92-.04,0-.08.02-.12.05-.07.04-.12.06-.15.06-.24,0-.27-.15-.27-.24,0-.3.11-.5.34-.6l.23-.28.61-.6c.42-.42.71-.7.86-.82.15-.12.31-.24.48-.35l.48-.32c.23-.15.29-.17.32-.18.03,0,.07-.03.1-.05.03-.02.1-.06.36-.15l.17-.07c.37-.12.6-.18.7-.18l.14.02c.05,0,.11-.02.16-.07h.01s.02-.01.02-.01c.05,0,.16-.03.38-.2h.02s.34-.1.34-.1c.1-.03.18-.05.25-.05h.18c.16,0,.26.12.31.35.03.15.05.22.07.26.01-.02.04-.05.07-.1h.01s.13-.11.13-.11c.14-.09.18-.1.21-.1.22,0,.3.12.33.22v.02s.04.04.04.04h0c.06.32.09.51.09.58,0,.31-.07.56-.2.74-.13.17-.2.28-.23.35-.13.51-.25.9-.38,1.16-.03.07-.11.25-.23.55v.02s-.12.1-.12.1c-.01,0-.01.01-.01.02l.02.14h0c-.1.18-.15.31-.15.4,0,.04-.01.12-.14.34.02.01.06.04.13.07.1.06.22.16.34.31.13.16.2.28.2.37,0,.01,0,.03-.11.38h0s-.01.02-.01.02c-.24.18-.44.26-.61.26-.07,0-.16-.04-.28-.12l-.1.03v-.07c-.07-.02-.13-.04-.17-.07-.04-.02-.08-.04-.11-.04-.03,0-.03,0-.03.03,0,.02,0,.04.01.05l.02.03-.03.02s-.08.07-.14.13c0,.03-.04.09-.13.28-.09.18-.17.29-.25.35h-.01s-.02.01-.02.01c-.12,0-.2.1-.24.28-.05.21-.12.35-.2.41l-.02.02-.08-.03c-.21.41-.42.72-.64.9h0s-.01.01-.01.01c-.11.03-.16.04-.17.05,0,.02,0,.06-.02.11-.01.08-.09.19-.24.34-.21.21-.25.23-.28.23l-.07.02-.03.03c0,.14-.18.34-.52.62-.25.14-.28.18-.28.19-.06.13-.24.28-.58.45l-.18.16c-.08.08-.17.14-.26.17l-.23.08-.15.1c-.07.04-.15.06-.23.06ZM64.35,86.58c-.02.09-.06.22-.14.38-.08.16-.11.44-.11.83,0,.21.07.42.21.62.14.19.28.29.42.29.06,0,.12-.02.18-.05l.16-.11.24-.08c.08-.03.15-.08.23-.15l.19-.17c.39-.2.51-.33.54-.4.01-.04.06-.09.31-.23.42-.35.48-.5.48-.56v-.02s.08-.08.08-.08l.11-.02s.05-.03.23-.2c.18-.18.21-.26.21-.29,0-.07.02-.11.02-.13,0-.03.03-.06.23-.1.21-.19.42-.49.62-.91l.02-.04.11.04s.09-.14.15-.35c.05-.22.16-.33.31-.35.06-.06.13-.16.22-.31.11-.21.13-.25.13-.26v-.02h.01c.05-.06.09-.1.13-.13,0-.02,0-.04,0-.06,0-.08.05-.12.12-.12.05,0,.11.02.16.05.04.03.1.05.18.07h.04v.02h.02s.02,0,.02,0c.14.1.21.12.25.12.14,0,.33-.08.54-.24.08-.27.1-.33.1-.34,0-.04-.03-.13-.17-.3-.12-.14-.23-.24-.32-.29-.15-.08-.17-.1-.18-.11l-.03-.03.02-.03c.13-.22.15-.3.15-.33,0-.11.05-.24.16-.42l-.02-.12s.02-.08.06-.1l.08-.08c.12-.29.19-.47.22-.54.12-.25.25-.64.38-1.15.03-.08.11-.2.24-.38.12-.16.18-.39.18-.68,0-.07-.03-.25-.08-.54l-.04-.05v-.03c-.03-.1-.11-.15-.24-.15,0,0-.03,0-.15.09l-.12.09c-.09.14-.12.16-.15.16-.06,0-.1-.05-.15-.35-.05-.28-.18-.28-.22-.28h-.18c-.06,0-.13.02-.22.05l-.34.09c-.18.14-.31.2-.41.21-.07.05-.14.08-.22.08l-.14-.02c-.09,0-.31.06-.66.18l-.17.07c-.23.08-.31.12-.34.14-.05.04-.09.06-.14.07-.02,0-.08.03-.29.17l-.48.32c-.17.11-.33.23-.47.35-.14.12-.43.39-.85.81l-.61.6-.24.3h-.01c-.2.09-.29.26-.29.52,0,.07.02.14.18.14,0,0,.03,0,.1-.05.07-.04.13-.06.19-.06h.06v.04c.1.68.25.86.36.88.18.05.31.09.41.14.17-.01.28-.04.35-.09.08-.06.16-.1.23-.14l.16-.06.29-.19c.15-.03.25-.1.31-.23v-.03h.17c.07-.03.13-.05.18-.06.07-.08.09-.12.09-.15,0-.07.03-.2.24-.2h.08s.06-.06.06-.06c.03-.04.1-.08.21-.11.09-.02.18-.1.28-.21.05-.16.08-.21.14-.21l.1.02c.13-.08.21-.13.26-.14.02-.01.03-.02.04-.02l.07-.12.07-.02c.04-.09.12-.16.23-.2.1-.1.17-.17.2-.21v-.02h.04s.11-.03.56-.34h.01s.01,0,.01,0c.05,0,.08.03.08.08v.02s-.16.33-.16.33l.06.17s-.03.06-.1.11c-.03.02-.08.08-.13.24l.05.16s-.01.05-.04.06c-.05.07-.09.16-.14.26-.07.16-.1.19-.13.21,0,0-.02.01-.04.09-.02.06-.04.15-.07.25h0c-.11.21-.18.34-.21.41-.03.07-.06.14-.1.21-.03.06-.12.14-.53.21-.29.05-.5.11-.64.17l-.28.08h-.06c-.19.14-.3.23-.35.28h0s-.57.16-.57.16c0,0-.05.02-.23.13l-.1.14c-.21.16-.44.35-.68.57-.31.28-.35.35-.35.36v.02h-.02c-.08.06-.17.16-.26.31l-.04.07c-.08.14-.19.29-.31.45-.12.15-.24.39-.38.69-.17.39-.2.45-.2.46h0ZM64.81,87.54l-.04-.03c-.09-.08-.13-.17-.13-.27,0,0,0-.01.05-.29.05-.25.07-.31.08-.34l.05-.12c.01-.17.05-.28.1-.34.03-.03.07-.1.11-.25.03-.15.1-.25.21-.32.09-.05.14-.1.17-.14.04-.05.08-.1.13-.12.02,0,.07-.05.17-.27v-.02s.07,0,.07,0c.07.02.08.02.08.02,0,0,.06-.03.2-.34v-.02s.03,0,.03,0c.06-.01.12-.04.18-.09.06-.05.13-.09.19-.12.03-.04.07-.08.13-.12.02-.05.1-.05.13-.06.05,0,.12-.04.21-.11.1-.08.27-.15.54-.22.24-.07.4-.14.47-.23.03-.07.07-.08.1-.08.05,0,.1.02.17.07l.3-.04.03.11c0,.07-.03.11-.06.12l-.12.1c-.1.23-.22.43-.37.58l-.25.42c-.13.27-.19.32-.23.33-.03,0-.04.01-.05.01l-.04.12h-.01c-.07.05-.12.11-.15.18-.04.08-.12.17-.24.29-.12.11-.24.22-.39.35-.02.08-.07.15-.14.2-.07.05-.13.11-.17.18-.09.09-.18.15-.27.19-.09.03-.19.1-.3.19-.16.14-.2.17-.21.18h0s-.57.23-.57.23c-.09.01-.12.04-.13.05l-.03.04ZM65.79,85.12c-.11.21-.16.26-.19.28-.04.02-.07.05-.1.09-.04.05-.1.11-.2.17-.08.05-.14.14-.16.26-.03.15-.08.24-.13.3-.03.03-.06.1-.08.29h0s-.06.15-.06.15c-.01.03-.04.1-.08.32-.01.07-.05.26-.05.27,0,.06.02.12.07.17.03-.02.08-.04.15-.05l.55-.22s.06-.05.2-.17c.12-.11.24-.18.33-.21.08-.03.16-.08.23-.16.05-.07.11-.14.19-.2.06-.04.1-.1.11-.16v-.02s.02-.01.02-.01c.15-.13.28-.25.4-.35.12-.11.19-.19.22-.26.04-.07.09-.14.17-.19l.04-.13h.02s.03-.02.09-.04c0,0,.05-.03.17-.28l.26-.44c.15-.15.27-.34.36-.56h0s.15-.14.15-.14c0,0,.01-.02.01-.04h0s-.27.02-.27.02h-.02c-.08-.07-.12-.08-.13-.08,0,0,0,0-.01.03h0c-.08.12-.26.21-.53.29-.25.07-.42.14-.51.2-.1.08-.18.12-.26.13-.03,0-.04,0-.05,0h0s-.02.02-.02.02c-.06.05-.11.09-.14.13h0s-.01.01-.01.01c-.06.02-.12.06-.18.11-.06.05-.13.09-.2.1-.15.31-.22.38-.28.38-.01,0-.03,0-.09-.02ZM66.15,81.91c-.08,0-.11-.05-.11-.1,0-.06.03-.17.1-.32.09-.2.14-.25.17-.27l.09-.07c.05-.07.11-.12.18-.16.06-.04.13-.11.21-.22.08-.11.19-.19.31-.22.04-.07.11-.13.22-.17.1-.04.22-.13.36-.28h.01s.01-.01.01-.01c0,0,.03-.03.09-.09.07-.07.14-.13.2-.17h.01s.01,0,.01,0c.16,0,.18-.02.19-.02h.01s.09-.05.09-.05h.01s.05,0,.08-.07c.04-.08.09-.13.17-.14.05-.01.12-.04.19-.09l.18-.15c.2-.09.36-.16.47-.23h.01s.2.01.2.01c0,0,.02,0,.1-.07.07-.06.16-.09.26-.09.08,0,.1.04.1.08,0,.07-.03.16-.09.26-.06.11-.14.17-.23.19-.03,0-.11.05-.22.28h0s-.1.08-.1.08c-.21.1-.38.25-.53.46-.06.09-.15.15-.25.18-.08.02-.14.06-.17.1l-.13.18h-.09l-.1.16h-.01c-.28.12-.37.2-.4.25-.06.09-.14.15-.24.18-.08.02-.13.07-.16.14v.03s-.4-.02-.4-.02c0,0-.01,0-.07.06-.05.05-.17.13-.35.22-.18.1-.3.14-.38.14ZM67.74,80.17c-.15.16-.27.26-.38.3-.09.03-.15.08-.18.14v.02s-.03,0-.03,0c-.11.03-.2.09-.28.2-.09.12-.16.19-.24.24-.06.04-.12.09-.16.15h0s-.09.08-.09.08c-.02.01-.06.05-.14.23-.08.17-.1.24-.1.28,0,0,0,.01.02.01.04,0,.13-.02.33-.13.17-.09.28-.16.33-.21.06-.06.1-.09.14-.09l.33.02c.04-.08.11-.13.21-.16.08-.02.14-.07.19-.14.06-.09.2-.18.43-.28l.11-.18h.1l.1-.14c.05-.06.12-.1.22-.13.08-.02.15-.07.2-.14.16-.22.34-.39.56-.49l.08-.06c.1-.19.19-.29.28-.31.06-.01.12-.06.17-.15.05-.09.08-.16.08-.21,0,0,0,0-.01,0-.08,0-.15.02-.2.07-.1.08-.14.08-.17.08l-.18-.02c-.11.06-.26.13-.46.22l-.17.14c-.08.06-.16.09-.22.1-.05.01-.08.04-.1.09-.05.1-.11.12-.15.13l-.06.03s-.08.04-.23.05c-.06.04-.12.08-.17.15-.07.07-.1.1-.13.11Z"/>
      </g>
      <g>
        <path d="M80.18,77.72l.11-.11v-.08s.03-.1.09-.23c.06-.13.12-.22.18-.26.05-.04.09-.1.12-.16.03-.06.08-.1.17-.11-.04-.06-.06-.11-.06-.15l-.04-.18s.02-.04.06-.08l.06-.08s.07-.06.12-.09c.05-.04.08-.09.09-.16,0-.07.05-.16.14-.27.08-.12.15-.18.19-.18s.08-.01.11-.04c.03-.02.06-.04.09-.04.04,0,.07.03.1.09.03.06.05.08.06.08.05,0,.08-.03.08-.09,0-.03-.03-.06-.09-.07-.06-.02-.1-.05-.12-.1-.02-.05-.04-.09-.06-.13-.02-.03-.03-.06-.03-.07,0-.05.03-.11.09-.17.06-.06.12-.09.17-.09s.1-.03.15-.09c-.08-.04-.11-.08-.11-.13.08-.08.15-.19.22-.34.07-.15.15-.22.24-.22.01,0,.04.01.09.04.01-.03.05-.11.1-.26l-.07-.19c.12-.17.21-.27.26-.29l.08-.06c.04-.18.19-.33.45-.45.33-.35.54-.53.61-.53.01,0,.04.02.08.07l.09-.03s.06.02.06.07c-.2.19-.3.29-.3.3h0s.04-.03.07-.06c.03-.03.08-.07.15-.13,0,.02.01.04.04.04.07-.09.1-.18.1-.27,0-.01-.03-.04-.1-.08l-.02-.06s.11-.16.34-.35c.22-.2.47-.37.74-.52l.09-.11s.06-.05.1-.05c.05,0,.12.03.22.1l.04-.02s-.02-.07-.02-.14c0-.04.02-.06.07-.08.06-.09.2-.18.4-.25.21-.07.35-.14.42-.2l.2-.08c.1-.01.19-.03.26-.06.07-.03.16-.04.26-.04.02,0,.07-.02.15-.06.08-.04.14-.06.18-.06s.11.04.21.12c0,.01.01.02.04.02l.12-.08h.02c.09.08.18.16.28.24.27.2.4.43.4.71l-.05.4.02.33c0,.11-.05.2-.15.28-.04.28-.1.49-.17.61-.07.12-.13.29-.17.51-.04.21-.23.52-.55.9,0,.01-.04.07-.12.17-.08.1-.17.27-.29.52-.18.19-.29.34-.34.45-.05.11-.14.19-.27.25h-.04l.04.21c-.24.39-.48.59-.71.59-.14,0-.28-.06-.42-.19-.14-.13-.21-.26-.21-.39,0-.31.36-.69,1.08-1.13.01,0,.04,0,.08.02l.08-.13c-.03-.05-.04-.08-.04-.09,0-.09.1-.19.29-.31.09-.18.18-.28.28-.29l.37-.58.04-.1v-.14s.07-.08.2-.17l.02-.04v-.2c0-.08.05-.14.15-.19.03-.03.05-.13.08-.31.03-.17.08-.33.16-.47-.02-.3-.06-.48-.11-.54-.05-.07-.12-.1-.22-.1-.09,0-.24.06-.45.17-.21.11-.34.17-.41.17-.03,0-.05,0-.08-.03-.03-.02-.05-.03-.08-.03-.03,0-.06.03-.09.1-.03.07-.07.11-.11.12-.04.01-.1.05-.17.1-.07.06-.16.11-.27.16l-.15.2-.16.11c-.02.13-.1.2-.25.2-.03,0-.09.08-.16.23l-.08.08h-.15l-.02.09v.09s-.02.07-.07.09l-.36.39-.07.04h-.08l-.04.02c-.02.23-.08.34-.19.35,0,.08-.09.19-.27.33l-.08.1h-.12l-.02.02s.07.06.07.08c0,.04-.04.11-.11.21-.07.1-.13.15-.17.14-.03.18-.08.33-.18.46l-.08.14c-.04.06-.08.11-.11.15v.08c0,.16-.15.31-.46.45l.06.24c-.03.05-.08.13-.15.23l-.08.18c-.04.11-.08.18-.13.21-.02.06-.05.11-.09.15-.04.04-.06.08-.06.1l.02.13c-.09.17-.15.29-.17.36-.02.07-.05.14-.09.2-.04.06-.08.13-.1.21-.02.08-.09.16-.18.25-.08.27-.11.42-.11.45l-.13.11s-.02.06-.06.14l-.02.08v.13c0,.08-.08.18-.24.29.08.03.11.08.11.15,0,.15-.03.26-.09.33-.06.08-.1.15-.12.23-.03.08-.07.18-.14.31.07.04.1.1.1.16l-.09.63.07.18s-.05.03-.12.06c.01.08.05.14.11.19.06.05.16.21.29.47.03.03.08.04.16.04.08,0,.13,0,.17-.02.04-.01.12-.03.25-.04.13-.02.27-.07.41-.18h.15c.15,0,.26-.06.32-.17.06-.11.12-.17.19-.17.06,0,.15-.03.27-.08h.06c.02-.05.05-.09.08-.1.03-.02.08-.08.16-.17.08-.1.15-.15.21-.15.22-.15.39-.27.51-.39.01-.01.05-.02.1-.03.06,0,.1-.04.13-.09.03-.06.17-.19.43-.4.25-.21.4-.37.45-.5.05-.12.11-.18.18-.18.03,0,.07,0,.13.02h.02s.04-.03.06-.09c.01-.06.14-.16.39-.3,0-.13.1-.24.29-.33l.33-.32.15.02s.06-.08.07-.17c0-.09.06-.15.15-.18h.08l.06-.04c.04-.21.12-.31.22-.31h.08c.05,0,.08-.06.08-.18s.14-.2.41-.27l.19-.09s.04-.03.08-.03c.16,0,.25.13.25.39,0,.07-.03.12-.08.16l-.13.11-.02.16-.34.31c-.06.04-.09.1-.09.18,0,.07-.03.11-.06.11-.02.03-.06.06-.12.08-.06.02-.1.06-.12.1-.09.21-.23.33-.42.38-.11.25-.21.39-.3.44-.09.05-.15.1-.16.15-.03.16-.11.24-.26.23-.23.23-.38.4-.44.53,0,.01,0,.02-.02.02l-.13-.02s-.05.05-.1.11c-.05.06-.13.1-.22.1-.09,0-.16.06-.19.17-.04.1-.07.17-.1.19-.03.02-.07.07-.1.13-.04.06-.08.09-.11.09-.06,0-.1-.05-.12-.16-.05.03-.1.07-.15.14l.06.13s-.01.05-.04.07c-.03.02-.07.08-.14.18-.07.1-.22.17-.47.21-.01,0-.04.04-.08.13-.04.08-.13.13-.27.15-.13.2-.24.29-.33.29l-.41.13c-.07,0-.13,0-.18-.02-.04.09-.08.13-.13.13l-.13.04c-.04.06-.1.1-.16.1-.09,0-.13-.02-.13-.08,0-.01,0-.03.02-.06v-.04s-.01-.06-.04-.06c0,.27-.07.41-.22.41-.03,0-.09-.02-.21-.08h-.02l-.18.09s-.04.02-.08.02c-.23,0-.47-.07-.7-.22h-.09c-.2,0-.34-.11-.45-.34l-.02-.04c-.15-.04-.24-.14-.26-.29-.03-.04-.09-.1-.19-.2-.01-.09-.04-.17-.09-.24-.04-.07-.07-.12-.07-.13l-.22-.71c-.03-.21-.04-.38-.04-.51l-.02-.08v-.06l.04-.26-.02-.09c0-.05.06-.24.18-.56.12-.32.19-.56.22-.72.03-.16.06-.26.09-.29l.28-.74Z"/>
        <path d="M81.53,83.25c-.24,0-.48-.07-.71-.22h-.08c-.21,0-.38-.12-.49-.37v-.02c-.16-.05-.25-.15-.28-.32-.03-.04-.09-.1-.18-.18h-.01s0-.03,0-.03c-.01-.08-.04-.16-.08-.22-.06-.09-.07-.12-.07-.14l-.22-.71c-.03-.21-.04-.39-.04-.52l-.02-.08v-.06l.04-.25-.02-.09s.02-.15.18-.58c.12-.32.19-.56.22-.71.04-.21.07-.28.09-.31l.28-.75.1-.1v-.06s.01-.07.1-.25c.07-.14.13-.23.19-.28.05-.04.08-.09.11-.14.03-.06.07-.1.14-.12-.02-.04-.03-.08-.03-.11l-.04-.18s.02-.06.07-.11l.06-.08s.07-.06.12-.1c.04-.03.06-.07.07-.12,0-.08.05-.17.15-.3.1-.13.17-.19.23-.19.03,0,.06,0,.08-.03.04-.03.08-.05.11-.05h0s-.01-.02-.02-.03c-.02-.05-.04-.09-.05-.12-.02-.04-.03-.07-.03-.09,0-.06.03-.13.1-.2.07-.07.13-.11.2-.11.02,0,.05-.01.08-.03-.06-.04-.08-.09-.08-.14v-.02h.01c.07-.08.14-.19.21-.34.08-.17.18-.25.28-.25.01,0,.03,0,.07.02.02-.04.04-.11.08-.19l-.07-.2v-.02c.18-.24.25-.29.29-.31l.06-.04c.05-.18.2-.34.46-.46.45-.47.57-.54.63-.54.03,0,.05.02.09.06l.08-.02s.06,0,.07.03c0,0,0-.02,0-.03,0,0-.03-.02-.08-.05h-.02s-.03-.1-.03-.1c0-.04.03-.1.35-.39.22-.19.47-.37.74-.52l.09-.11s.08-.06.14-.06c.05,0,.12.03.2.08,0-.02,0-.06,0-.09,0-.03.01-.09.09-.12.07-.1.21-.18.42-.25.2-.07.34-.13.41-.19h.01s.21-.09.21-.09c.1-.01.18-.03.25-.06.08-.03.17-.04.28-.04,0,0,.03,0,.13-.06.09-.05.15-.07.2-.07.03,0,.09.01.24.13h0s.11-.08.11-.08h.06c.09.09.18.17.28.25.28.2.42.46.42.75l-.05.4.02.32c0,.12-.05.22-.15.31-.05.28-.1.48-.17.61-.07.12-.12.28-.16.49-.04.22-.22.52-.56.91,0,.02-.04.06-.12.17-.08.09-.17.26-.28.51h0c-.17.2-.28.34-.33.45-.05.12-.15.21-.29.28h0s.03.18.03.18h0c-.25.42-.5.62-.75.62-.15,0-.31-.07-.46-.21-.15-.14-.22-.28-.22-.43,0-.33.36-.71,1.1-1.17h.01s.01,0,.01,0c0,0,.02,0,.05.01l.04-.08c-.03-.05-.03-.08-.03-.09,0-.11.1-.22.3-.35.09-.18.18-.28.29-.3l.36-.56.03-.08v-.13s.02-.07.21-.2v-.02s0-.19,0-.19c0-.09.06-.17.17-.23.01-.02.03-.08.07-.28.03-.17.08-.33.16-.47-.03-.35-.07-.47-.1-.51-.04-.05-.1-.08-.19-.08-.06,0-.17.03-.42.16-.29.15-.38.17-.43.17-.04,0-.07-.01-.1-.04-.02-.01-.03-.02-.05-.02,0,0-.02,0-.05.07-.04.08-.09.13-.14.14-.04.01-.09.04-.15.09-.07.06-.16.11-.27.16l-.15.2-.15.1c-.03.14-.13.22-.29.22,0,0-.03.02-.12.2h0s-.09.1-.09.1h-.13v.04s0,.09,0,.09c0,.04-.01.09-.08.13l-.37.39-.08.04h-.08c-.02.21-.09.33-.19.36-.02.09-.11.19-.28.32l-.09.11h-.07s.02.03.02.05c0,.03-.01.09-.12.24-.06.09-.12.14-.16.16-.03.17-.09.32-.18.45l-.07.14c-.04.06-.07.11-.11.15v.06c0,.18-.15.33-.46.47l.05.22h0c-.03.07-.08.14-.15.25l-.08.18c-.04.11-.08.18-.14.22-.02.06-.05.11-.09.15-.05.05-.05.07-.05.07l.02.14h0c-.09.18-.15.3-.17.37-.02.08-.05.15-.1.22-.04.06-.07.13-.1.2-.03.08-.09.17-.18.26-.1.35-.11.41-.11.42v.02s-.02.01-.02.01l-.12.1s-.02.06-.06.14v.06s-.01.13-.01.13c0,.09-.06.18-.2.29.05.04.07.09.07.16,0,.15-.03.28-.09.36-.05.07-.09.14-.12.22-.02.07-.07.17-.13.28.06.05.09.11.09.17l-.08.63.07.2-.02.02s-.03.03-.1.05c.02.05.04.09.09.13.07.06.17.21.3.48.01,0,.04.02.12.02.07,0,.12,0,.16-.02.04-.01.13-.03.26-.04.12-.01.25-.07.39-.17h.01s.17,0,.17,0c.13,0,.23-.05.28-.14.07-.13.14-.19.23-.19.03,0,.11-.01.26-.07h.02s.03,0,.03,0c.02-.04.05-.07.08-.1.01,0,.05-.04.15-.17.08-.1.16-.16.23-.16.21-.14.38-.27.49-.38.02-.02.06-.03.13-.04.04,0,.07-.03.1-.07.02-.04.09-.13.44-.41.25-.2.39-.36.44-.48.06-.14.13-.21.22-.21.03,0,.08,0,.14.02h0s0-.01.01-.05c.01-.05.07-.13.39-.32.02-.13.12-.25.31-.34l.34-.33.15.02s.03-.07.04-.13c0-.07.04-.17.18-.22h.01s.06,0,.06,0l.03-.02c.05-.22.14-.33.26-.33h.08s.03-.02.03-.13c0-.14.14-.24.44-.31l.18-.09s.06-.04.11-.04c.13,0,.29.08.29.43,0,.08-.03.15-.09.2l-.12.1-.02.16-.35.32s-.07.09-.08.14c0,.08-.03.13-.08.15-.03.03-.07.06-.13.08-.05.02-.08.04-.09.07-.09.21-.23.35-.43.4-.11.25-.21.39-.32.44-.08.04-.13.08-.14.12-.03.22-.17.26-.27.26h-.01c-.22.21-.36.38-.42.5,0,.03-.03.05-.06.05l-.12-.02s-.04.05-.08.09c-.06.07-.15.11-.25.12-.07,0-.12.05-.15.14-.04.11-.08.18-.12.21-.03.02-.06.06-.09.12-.05.08-.1.11-.15.11-.07,0-.12-.04-.15-.13-.02.02-.05.05-.07.08l.05.13s0,.07-.06.1c0,0-.04.04-.13.17-.07.12-.23.19-.49.23,0,0-.02.04-.05.1-.04.1-.14.15-.28.17-.13.19-.25.29-.35.3l-.42.13c-.06,0-.11,0-.15-.01-.04.08-.09.12-.15.13l-.11.03c-.05.07-.11.1-.19.1-.06,0-.11-.01-.13-.03-.04.14-.12.21-.24.21-.02,0-.07,0-.22-.07l-.16.09s-.06.03-.1.03ZM79.87,82.09c.1.09.16.16.18.2h0s0,.02,0,.02c.02.14.09.22.22.25h.02s.03.06.03.06c.09.21.23.32.4.32h.12c.22.15.45.22.68.22.03,0,.04,0,.04,0h.01s.19-.11.19-.11h.05c.15.07.18.08.19.08.04,0,.17,0,.17-.36v-.05h.05s.08.03.08.1v.05h0s-.01.05-.01.05c0,.02.05.03.09.03.05,0,.09-.02.12-.07h0s.16-.06.16-.06c.04,0,.07-.07.09-.11l.02-.04h.04s.1.03.16.03l.41-.13s.13-.04.29-.27v-.02s.03,0,.03,0c.12-.01.2-.05.23-.12.05-.12.08-.16.12-.16.22-.03.37-.1.43-.19.09-.14.13-.18.15-.2.01,0,.02-.02.02-.02l-.06-.15.02-.02c.06-.08.11-.13.17-.16l.05-.03v.06s.05.13.09.13c.02,0,.05-.02.07-.07.04-.06.08-.11.11-.14.01-.01.04-.05.09-.17.06-.15.16-.19.23-.2.08,0,.14-.03.19-.09.05-.06.09-.1.1-.12l.02-.02.13.02c.07-.13.22-.31.45-.53h.02s.02-.01.02-.01c0,0,.02,0,.03,0,.07,0,.15-.02.18-.19.02-.07.08-.13.19-.18.06-.03.15-.12.28-.42v-.02s.03,0,.03,0c.18-.04.3-.16.38-.35.02-.06.07-.1.14-.12.06-.02.09-.05.1-.06v-.02h.04s0-.02.01-.07c0-.09.05-.16.11-.21l.33-.3.02-.16.15-.13s.06-.07.06-.13c0-.34-.15-.34-.2-.34-.04,0-.05,0-.05,0h0s-.21.11-.21.11c-.24.06-.37.13-.37.22,0,.15-.04.23-.12.23h-.08c-.09,0-.15.15-.17.28v.02s-.09.06-.09.06h-.08c-.07.03-.11.07-.11.14,0,.11-.04.17-.09.21h-.01s-.15,0-.15,0l-.33.31c-.17.09-.26.18-.27.29v.02s-.02.01-.02.01c-.34.2-.36.26-.37.27-.02.08-.05.12-.1.12h-.02c-.08-.02-.12-.02-.13-.02-.06,0-.11.08-.14.16-.05.13-.21.3-.47.52-.32.27-.4.36-.42.39-.04.07-.1.11-.17.12-.06,0-.08.02-.08.02-.12.11-.3.25-.52.39h-.01s-.01,0-.01,0c-.05,0-.11.04-.18.13-.11.14-.15.17-.16.18-.01.01-.03.03-.06.09v.03h-.09c-.13.05-.22.08-.28.08-.04,0-.09.05-.14.14-.07.13-.19.19-.36.19h-.14c-.15.1-.29.16-.42.18-.16.02-.22.03-.24.04-.04.01-.1.02-.19.02-.1,0-.16-.02-.19-.05h0c-.16-.32-.24-.43-.28-.47-.07-.06-.11-.14-.13-.22v-.04s.03-.01.03-.01c.04-.01.07-.03.08-.03l-.06-.16.09-.65s-.03-.08-.08-.12l-.04-.02.02-.04c.07-.12.11-.22.14-.3.03-.08.07-.17.13-.25.05-.07.08-.17.08-.3,0-.06-.03-.09-.08-.11l-.09-.03.07-.05c.18-.13.22-.21.22-.26v-.14s.02-.08.02-.08c.05-.11.05-.13.06-.13v-.02h.02s.12-.11.12-.11c0-.04.03-.14.11-.43h0s0-.02,0-.02c.09-.08.14-.16.17-.23.03-.08.06-.16.11-.23.04-.06.07-.12.09-.19.02-.08.07-.19.17-.36l-.02-.12s.02-.09.07-.14c.04-.04.06-.08.08-.13v-.02s.02,0,.02,0c.03-.01.07-.06.11-.18l.09-.19c.07-.09.11-.16.14-.21l-.06-.26.04-.02c.29-.12.44-.26.44-.4v-.1h.01s.07-.1.11-.16l.07-.14c.09-.13.15-.28.18-.45v-.05s.06.02.06.02c0,0,.03,0,.11-.12.08-.11.1-.16.1-.18,0,0-.02-.02-.05-.05l-.04-.03.07-.07h.12l.07-.09c.22-.17.26-.26.26-.3v-.04h.04c.1,0,.13-.17.15-.31v-.03s.07-.04.07-.04h.07l.05-.03.37-.39s.04-.05.04-.05v-.1s.03-.12.03-.12h.17l.06-.06c.1-.21.15-.25.2-.25.12,0,.18-.05.2-.16v-.02s.17-.12.17-.12l.15-.2h.01c.11-.05.2-.11.26-.16.07-.06.13-.1.18-.11.03,0,.06-.04.08-.09.02-.03.06-.13.14-.13.04,0,.07.01.1.04.02.01.03.02.05.02.03,0,.12-.02.39-.16.22-.11.37-.17.47-.17.12,0,.2.04.26.12.03.05.08.16.12.57h0s0,.03,0,.03c-.07.13-.12.29-.15.45-.04.24-.07.3-.09.33h-.02c-.09.05-.13.1-.13.16v.21l-.03.06h-.01c-.14.1-.17.14-.18.15v.15s-.04.1-.04.1l-.39.6h-.02c-.08.01-.17.1-.25.27h0s-.01.02-.01.02c-.24.15-.27.23-.27.27h0s0,.02.03.07v.02s-.1.19-.1.19h-.04s-.04-.02-.05-.03c-.69.43-1.04.79-1.04,1.08,0,.12.07.24.2.36.13.12.26.18.39.18.21,0,.43-.19.66-.55l-.04-.25h.08c.12-.05.2-.12.24-.22.05-.12.16-.27.34-.46.12-.25.21-.42.29-.52.08-.1.1-.13.11-.14h0s.01-.02.01-.02c.32-.38.5-.67.54-.88.04-.22.1-.39.17-.52.07-.12.12-.32.17-.6v-.02s.02-.01.02-.01c.09-.07.13-.16.13-.25l-.02-.33.05-.41c0-.26-.12-.48-.38-.67-.09-.07-.18-.14-.27-.22l-.12.08h-.01s-.07-.02-.08-.04c-.12-.1-.16-.1-.17-.1-.02,0-.06,0-.16.06-.12.06-.15.07-.17.07-.1,0-.18.01-.25.04-.07.03-.16.05-.26.06l-.19.07c-.08.07-.22.13-.43.2-.2.07-.32.14-.38.23h-.01s-.02.02-.02.02c-.04.01-.04.02-.04.03,0,.08,0,.11.01.12l.02.04-.1.05-.02-.02c-.12-.08-.18-.1-.2-.1-.03,0-.05,0-.07.03l-.11.12c-.26.15-.51.32-.73.52-.25.22-.31.29-.32.31v.03c.09.05.12.07.12.11,0,.11-.04.21-.11.3v.02h-.04s-.03,0-.05-.01c-.05.04-.08.08-.11.1-.03.03-.06.05-.08.06h-.01s-.07,0-.07,0v-.05s0-.04.3-.32c0,0,0,0,0,0l-.12.03-.02-.02s-.04-.04-.05-.05c-.03,0-.15.08-.57.52h-.01c-.24.12-.39.26-.42.42v.02s-.09.07-.09.07c-.03.02-.09.07-.23.26l.06.18v.02c-.08.2-.1.24-.11.26l-.02.04-.04-.02c-.06-.03-.08-.03-.08-.03-.07,0-.13.07-.2.2-.07.14-.14.25-.22.33,0,.03.04.05.09.08l.05.03-.04.04c-.06.07-.12.1-.19.1-.04,0-.08.03-.13.08-.05.05-.08.1-.08.14h0s0,.01.02.05c.02.04.04.08.06.13.01.04.04.06.09.07.08.02.12.06.12.12,0,.09-.05.14-.12.14-.04,0-.07-.04-.1-.11-.01-.02-.03-.06-.06-.06-.01,0-.03,0-.06.03-.04.03-.09.05-.14.05,0,0-.05,0-.16.16-.1.14-.13.21-.13.25,0,.08-.04.14-.1.19-.05.04-.09.07-.12.09l-.05.07s-.04.05-.05.05l.04.18s0,.06.05.13l.04.06h-.07c-.07.02-.12.05-.13.09-.03.07-.07.13-.13.17-.05.04-.1.12-.16.25-.08.17-.09.2-.09.21v.09l-.12.12-.28.74s-.04.08-.08.28c-.03.16-.11.4-.22.73-.15.41-.17.52-.17.54l.02.09-.04.26v.04s.02.08.02.08c0,.13.01.3.04.51l.22.72s0,.02.06.1c.04.07.07.16.09.24ZM81.74,75.56s0,.01,0,.02c.02.03.03.05.03.06,0,0,.02-.01.02-.05,0,0,0-.01-.06-.03,0,0,0,0,0,0Z"/>
      </g>
      <g>
        <path d="M92.89,81.86l-.45.39s-.05-.04-.08-.04c-.06,0-.14.06-.23.17-.09.11-.16.17-.19.17l-.09-.02c-.16.12-.27.19-.34.21-.07.02-.15.05-.25.1-.1.05-.19.08-.27.08-.08,0-.14.03-.19.08-.05.05-.17.07-.37.07l-.15-.02c-.08.04-.14.06-.16.06-.05,0-.1-.03-.16-.08-.06-.05-.12-.08-.18-.09-.07,0-.13-.05-.2-.13-.07-.08-.13-.14-.19-.17-.06-.03-.11-.08-.15-.13l-.13-.11c-.11-.08-.21-.22-.31-.42-.1-.2-.15-.36-.15-.47v-.04l.02-.18-.02-.21s.06-.08.09-.16v-.3l.23-.76s-.01-.07-.08-.12c-.06.1-.13.15-.19.17-.06.02-.11.06-.13.13-.02.07-.06.1-.11.1l-.11-.04s-.04.08-.09.19c-.04.12-.12.17-.23.17-.11,0-.17-.04-.17-.13l.02-.17-.06-.24c0-.05.05-.15.15-.3.1-.15.19-.23.28-.26.08-.02.16-.08.22-.18.06-.1.19-.22.39-.36.11-.02.21-.11.29-.25.09-.07.2-.13.35-.17.14-.04.25-.11.32-.19.07-.09.29-.22.65-.4.36-.18.62-.27.78-.27.05,0,.12-.01.21-.04.09-.03.17-.05.25-.08.08-.02.16-.06.24-.1.08-.05.15-.07.2-.07l.28.1c.2.06.33.1.37.12.01.01.08.04.19.08.12.04.24.1.36.17.12.07.18.2.18.39-.11.16-.16.24-.16.26,0,.03.07.06.22.11.05.1.13.22.23.37l.1.33.02.78-.02.08c-.07.06-.1.1-.1.12l.03.19-.08.27c-.02.08-.05.14-.1.16-.04.03-.07.06-.09.1l-.06.08s-.04.07-.08.17c-.04.09-.09.16-.14.21-.05.05-.08.11-.1.18-.01.07-.04.12-.09.15-.05.03-.09.06-.11.1-.02.04-.06.06-.11.09ZM89.95,82.11l.04.22.02.02h.15l.05.02c.13.03.22.04.28.04.2,0,.35-.05.47-.15.12-.1.21-.15.28-.15s.13-.05.18-.14c.05-.09.08-.14.09-.14h.13l.04-.02c0-.15.06-.25.19-.31.13-.06.22-.15.27-.25.05-.1.12-.18.18-.24.07-.05.12-.13.14-.21l.08-.11s.04-.07.04-.14l.18-.34c.04-.16.06-.28.06-.37,0-.13-.07-.24-.2-.31-.14-.08-.2-.22-.2-.45,0-.14.07-.28.22-.4.15-.12.22-.2.22-.22,0-.04-.02-.06-.06-.06-.02,0-.09.03-.22.08-.04.09-.27.2-.67.35-.13-.06-.2-.09-.22-.09-.04,0-.08.04-.11.11-.04.08-.08.13-.11.16h-.12s-.05.04-.12.12c-.07.08-.16.12-.27.12l-.11.11c0,.1-.06.21-.19.31l-.1.12c-.06.08-.14.16-.25.27l-.17.43c-.07.16-.1.29-.1.37-.02.04-.06.08-.13.12-.07.04-.1.09-.1.16,0,.01.02.04.07.09.04.05.07.09.07.11l-.04.12-.04.35.09.3Z"/>
        <path d="M90.11,83.17c-.06,0-.13-.03-.19-.09-.05-.05-.1-.07-.16-.08-.08,0-.16-.06-.23-.15-.07-.08-.13-.13-.18-.16-.06-.03-.12-.08-.16-.14l-.13-.11c-.11-.08-.22-.22-.32-.43-.11-.21-.16-.37-.16-.49v-.04l.02-.19-.02-.22h.02s.04-.06.08-.15v-.31s.23-.76.23-.76c0,0,0-.01-.02-.04-.06.08-.12.13-.18.15-.05.01-.08.05-.1.1-.04.11-.1.14-.15.14h-.01s-.08-.03-.08-.03c-.01.02-.03.07-.06.16-.06.17-.18.2-.27.2-.19,0-.22-.11-.22-.18l.02-.17-.06-.24s.02-.11.16-.32c.11-.16.21-.25.31-.27.07-.02.14-.07.19-.16.06-.1.2-.23.41-.37h.02c.1-.03.19-.1.26-.23h.01c.09-.09.21-.15.36-.19.13-.04.23-.1.3-.18.08-.09.29-.22.66-.41.37-.18.63-.27.8-.27.05,0,.11-.01.19-.04.09-.03.17-.05.25-.08.07-.02.15-.05.23-.1.09-.05.16-.08.22-.08h.01s.28.1.28.1c.2.06.33.1.38.13h.01s.03.03.18.08c.12.04.24.1.37.17.14.08.21.22.21.43h0s0,.03,0,.03c-.09.14-.13.2-.15.22.02.01.07.04.18.08h.02s0,.02,0,.02c.05.09.13.22.23.36h0s.11.36.11.36l.02.78-.02.1h-.01c-.06.07-.08.09-.09.1l.03.19-.08.28c-.02.09-.06.16-.12.19-.03.02-.06.04-.06.07h0s-.06.09-.06.09c0,0-.02.04-.08.16-.04.1-.09.17-.15.23-.04.04-.07.1-.08.16-.01.08-.05.14-.12.18-.04.03-.08.06-.1.08-.03.04-.07.08-.12.1l-.47.41-.03-.03s-.03-.02-.04-.02c-.03,0-.09.02-.2.15-.13.17-.19.19-.23.19l-.08-.02c-.16.12-.27.18-.34.2-.07.02-.15.05-.24.1-.1.05-.2.08-.28.09-.07,0-.12.03-.17.07-.06.06-.19.08-.4.08l-.14-.02c-.11.05-.15.06-.17.06ZM88.67,81.1l.02.19-.02.19v.03c0,.11.05.26.15.45.1.19.2.33.3.4l.14.13c.03.05.08.09.13.12.07.03.13.09.21.18.06.07.12.11.17.12.08,0,.15.04.21.1.05.05.09.07.13.07,0,0,.03,0,.14-.05h.01s.17.02.17.02c.23,0,.31-.04.33-.06.06-.05.13-.09.22-.09.07,0,.16-.03.25-.08.1-.05.19-.09.26-.11.04-.01.14-.06.33-.2h.02s.11,0,.11,0c.01,0,.05-.02.16-.15.1-.13.19-.19.27-.19.03,0,.05,0,.07.02l.43-.37s.07-.05.09-.07c.03-.04.07-.08.12-.11.04-.02.06-.06.07-.12.01-.08.05-.15.11-.2.05-.05.09-.11.13-.2.06-.13.08-.16.08-.17l.05-.07s.05-.08.1-.11c.03-.02.06-.06.07-.13l.07-.26-.03-.18s.02-.07.11-.15v-.06s0-.76,0-.76l-.1-.32c-.09-.14-.17-.26-.22-.35-.19-.07-.23-.11-.23-.15,0-.02,0-.03.16-.27,0-.17-.06-.27-.16-.33-.12-.07-.24-.12-.35-.16-.15-.05-.19-.07-.21-.09-.03-.02-.12-.05-.36-.12l-.27-.09s-.08.02-.17.06c-.09.05-.17.09-.25.11-.08.02-.16.05-.25.08-.09.03-.17.05-.22.05-.16,0-.41.09-.76.27-.44.22-.58.33-.63.39-.08.09-.19.16-.34.21-.13.04-.24.09-.33.16-.09.14-.19.23-.31.26-.19.13-.32.25-.37.34-.07.11-.15.18-.25.2-.07.02-.16.1-.25.24-.12.18-.14.24-.14.27l.06.24-.02.18s0,.08.13.08c.09,0,.15-.05.19-.15.07-.18.09-.2.1-.21l.02-.02.13.04s.04-.01.06-.07c.03-.08.08-.14.16-.16.05-.02.11-.07.16-.15l.03-.04.04.03s.12.1.09.18l-.22.75v.32c-.04.07-.07.12-.09.16ZM90.49,82.45c-.07,0-.17-.01-.29-.04l-.05-.02h-.16l-.04-.04-.04-.23-.1-.31.04-.36.04-.12s-.01-.03-.05-.08c-.07-.07-.08-.1-.08-.12,0-.08.04-.15.12-.2.06-.04.09-.07.11-.09,0-.09.04-.21.11-.38l.18-.44c.1-.1.18-.19.24-.26l.1-.12c.13-.1.18-.19.18-.28v-.02s.14-.14.14-.14h.02c.09,0,.17-.04.23-.11.11-.13.13-.14.16-.14h.1s.06-.07.09-.14c.05-.09.1-.14.15-.14.01,0,.03,0,.22.09.5-.18.61-.28.63-.32v-.02s.02,0,.02,0c.18-.07.22-.08.23-.08.06,0,.1.04.1.1,0,.03-.02.07-.24.26-.14.11-.21.24-.21.37,0,.21.06.34.18.41.15.08.23.2.23.35,0,.09-.02.22-.06.38h0s-.17.34-.17.34c0,.08-.02.13-.05.16l-.07.1c-.03.09-.08.17-.16.23-.06.05-.12.12-.17.22-.06.11-.16.2-.3.27-.11.06-.17.14-.17.27v.03l-.07.04h-.13s-.03.04-.06.12c-.06.11-.13.17-.22.17-.04,0-.11.02-.25.14-.12.1-.29.16-.5.16ZM90.03,82.3h.14s.05.02.05.02c.11.02.21.03.27.03.18,0,.33-.05.44-.14.13-.11.23-.16.31-.16.02,0,.08,0,.13-.12.07-.14.1-.17.13-.17h.12c0-.15.08-.26.22-.33.12-.06.2-.14.25-.23.06-.11.12-.19.2-.25.06-.05.1-.11.13-.19h0s.08-.13.08-.13c.01-.01.03-.04.03-.12h0s.18-.36.18-.36c.04-.15.05-.27.05-.35,0-.12-.06-.21-.18-.27-.15-.08-.23-.25-.23-.49,0-.16.08-.31.24-.44.18-.15.2-.19.21-.2,0,0,0,0,0,0,0,0,0,0-.01,0,0,0-.04,0-.19.07-.04.07-.17.17-.69.36h-.02s-.02,0-.02,0c-.16-.08-.2-.09-.2-.09,0,0-.02,0-.07.09-.04.08-.08.14-.13.18h-.01s-.13.01-.13.01c0,0-.04.03-.1.11-.07.09-.17.13-.28.14l-.09.09c0,.11-.07.22-.21.33l-.1.12c-.06.08-.14.16-.24.26l-.17.42c-.07.16-.1.28-.1.35h0s0,.02,0,.02c-.02.05-.07.09-.14.14-.05.03-.08.07-.08.12,0,0,0,.01.05.07.05.06.08.11.08.14h0s-.04.14-.04.14l-.04.33.09.29.04.2Z"/>
      </g>
      <g>
        <path d="M103.3,80.99h.04l.1.04s.02,0,.04-.02c0-.11.05-.2.15-.28.03-.12.1-.21.21-.27.11-.06.29-.17.53-.31l.24-.21.11-.06.08-.1c.07-.08.14-.12.2-.12.1,0,.14.04.14.1l-.09.19.04.31c0,.11-.04.22-.12.3-.08.09-.2.22-.36.39l-.48.51-.26.13c-.06.04-.12.08-.17.13l-.37.31c0,.09-.03.15-.08.2h-.15l-.08.04c-.04.12-.17.24-.39.35l-.13.09s-.09.06-.12.06l-.27-.04-.18.04c-.05,0-.12-.03-.2-.08-.09-.05-.17-.09-.26-.12-.09-.03-.2-.14-.34-.35-.14-.2-.21-.34-.22-.4,0-.02-.01-.07-.04-.13-.03-.06-.04-.1-.04-.11s.03-.08.09-.19v-.02s-.02-.06-.05-.13c-.03-.07-.05-.15-.05-.26,0-.06-.02-.13-.06-.22.05-.05.08-.09.08-.11s0-.06-.03-.11c-.02-.05-.03-.08-.03-.11l.06-.46-.04-.24.02-.23c0-.13-.06-.2-.17-.2-.05,0-.11.04-.19.1l-.07.02c-.17.08-.29.15-.36.2-.07.05-.14.08-.22.08-.04.04-.11.07-.22.1l-.08.06s-.08.06-.15.11c0,.02-.12.13-.35.32-.24.19-.45.37-.64.54-.19.17-.33.26-.41.28-.08.02-.13.1-.13.24,0,.03-.06.08-.17.15-.01,0-.08.07-.2.21-.1-.08-.16-.11-.17-.11-.08,0-.14.1-.18.31-.04.08-.14.13-.3.15-.01,0-.04.05-.07.14l-.04.04h-.09s-.06.04-.13.11c-.08.07-.14.12-.2.14-.08.17-.15.26-.21.26-.03,0-.06-.01-.11-.04-.05-.03-.11-.05-.18-.07-.07-.02-.15-.1-.23-.23-.09-.14-.13-.25-.13-.35,0-.7.14-1.08.41-1.15l.02-.04v-.08c0-.08.04-.14.11-.18.07-.03.15-.1.22-.21.08-.1.13-.16.15-.18h.12s.04-.07.04-.2c0-.04.02-.07.05-.1.03-.03.05-.08.06-.14,0-.06.05-.16.14-.29.09-.14.13-.22.13-.24l-.02-.04c-.16.15-.27.22-.34.24-.07.01-.16.1-.28.27l-.15-.03c-.27.2-.43.31-.49.33-.06.03-.13.1-.21.22,0,.04-.02.06-.07.08-.04.01-.13.06-.25.15h-.06c-.16,0-.24-.11-.24-.34l.2-.54c.06-.17.19-.31.4-.43.21-.12.39-.23.53-.34.15-.11.29-.16.44-.17l.07-.1c.21-.08.36-.21.44-.39.08-.18.18-.27.31-.27.35,0,.61.13.8.38.18.26.27.46.27.61l.02.26c0,.09-.02.21-.06.37-.08.11-.11.2-.11.26,0,.05.03.08.09.08.04,0,.09-.03.15-.08.06-.05.13-.1.21-.15.08-.04.12-.08.14-.11.06-.15.17-.26.33-.31.16-.06.26-.1.29-.14l.09-.08.08-.14c.17-.08.28-.15.34-.21.06-.06.13-.1.23-.12.1-.02.2-.08.32-.17l.14-.04.13-.08s.05-.03.11-.05c.06-.02.16-.05.28-.1.12-.05.21-.07.25-.07.32,0,.58.13.76.39.19.26.28.47.28.63l-.02.17.04.26v.04l-.08.52.02.18c0,.3-.06.5-.19.62-.03.01-.05.04-.05.09v.09l.19.4c.06.14.1.21.13.21l.3-.08c.09-.02.16-.09.22-.2.05-.02.14-.1.27-.23.04-.1.1-.15.18-.15Z"/>
        <path d="M102.36,82.84h0s-.26-.04-.26-.04l-.18.04c-.06,0-.13-.03-.23-.08-.08-.05-.17-.09-.25-.11-.1-.03-.22-.15-.36-.37-.14-.21-.22-.35-.23-.42,0-.02,0-.04-.04-.12-.04-.09-.05-.11-.05-.13,0-.01,0-.03.09-.2h0s0-.03-.05-.12c-.04-.08-.06-.17-.06-.28,0-.05-.02-.12-.05-.2v-.03s0-.02,0-.02c.06-.06.06-.08.06-.08,0-.01,0-.04-.03-.09-.02-.05-.03-.09-.03-.13l.06-.46-.04-.24.02-.23c0-.13-.06-.15-.12-.15-.03,0-.07.02-.16.09h0s-.08.03-.08.03c-.16.08-.28.14-.34.2-.07.06-.15.09-.23.09-.04.04-.11.07-.21.1l-.07.05s-.07.06-.14.11c-.02.04-.1.11-.36.32-.24.2-.45.38-.64.54-.2.18-.34.27-.43.29-.02,0-.09.02-.09.2,0,.04-.03.08-.19.19h-.01s-.06.06-.18.2l-.03.03-.03-.03c-.1-.08-.14-.1-.15-.1-.05,0-.1.11-.13.27h0c-.04.11-.15.16-.32.19,0,.01-.02.04-.05.11v.02s-.06.05-.06.05h-.11s-.04.03-.11.1c-.07.07-.14.12-.2.14-.09.18-.17.27-.24.27-.03,0-.08-.01-.13-.04-.04-.02-.1-.04-.17-.06-.08-.02-.17-.11-.26-.25-.09-.14-.13-.27-.13-.37,0-.71.14-1.1.42-1.19h0v-.07c0-.1.05-.17.13-.22.07-.03.13-.1.21-.19.11-.15.14-.18.17-.19h0s.11,0,.11,0c0-.02.01-.06.01-.15,0-.05.02-.1.06-.14.02-.02.04-.06.04-.11,0-.07.05-.17.14-.31.04-.06.06-.1.08-.13-.12.1-.2.15-.27.16-.03,0-.11.05-.25.26l-.02.02-.16-.03c-.35.26-.45.31-.49.33-.04.01-.1.06-.18.19,0,.04-.02.08-.1.11-.02,0-.08.03-.23.14h-.01s-.07,0-.07,0c-.13,0-.28-.07-.28-.39v-.02s.2-.54.2-.54c.06-.18.2-.33.42-.46.21-.11.39-.23.53-.33.14-.11.29-.17.44-.18l.06-.09h.01c.2-.08.34-.2.41-.37.08-.2.2-.29.36-.29.36,0,.64.14.83.4.19.27.28.48.28.64l.02.25c0,.1-.02.22-.06.38h0c-.09.15-.11.21-.11.24,0,.02,0,.03.05.03.01,0,.05,0,.12-.07.07-.06.14-.11.22-.15.1-.05.11-.08.12-.09.07-.16.19-.28.36-.34.19-.07.25-.11.28-.13l.09-.07.08-.15h.01c.16-.08.27-.15.33-.2.06-.07.15-.12.25-.14.09-.02.19-.07.3-.16h.02s.14-.04.14-.04l.12-.07s.05-.03.13-.05c.06-.02.15-.05.28-.1.13-.05.22-.07.27-.07.34,0,.6.14.8.41.19.27.29.48.29.65l-.02.17.04.25v.04l-.08.52.02.17c0,.31-.07.53-.2.66h-.01s-.02.03-.02.06v.07l.18.39c.05.13.08.17.09.18l.29-.08c.08-.02.14-.08.19-.18h0s.01-.02.01-.02c.03-.02.1-.06.25-.21.06-.14.15-.17.22-.17h.05s.07.03.07.03c0-.1.06-.19.16-.27.04-.12.11-.22.23-.29.11-.06.29-.17.53-.31l.24-.21.11-.05.07-.09c.08-.09.16-.14.24-.14.17,0,.19.11.19.15v.02s-.08.18-.08.18l.04.3c0,.13-.04.24-.13.34-.08.09-.2.22-.37.39l-.5.52-.26.13c-.06.03-.11.08-.16.12l-.36.3c0,.09-.04.16-.1.21h-.01s-.16.01-.16.01l-.05.03c-.05.13-.19.24-.4.36l-.13.09s-.1.07-.15.07ZM96.33,80.34s-.05.05-.13.16c-.08.11-.16.19-.24.22-.06.03-.08.07-.08.13v.09l-.03.07h-.02c-.25.06-.37.43-.37,1.11,0,.09.04.19.12.32.1.16.17.2.2.21.07.02.13.04.18.07.05.03.08.03.09.03,0,0,.06,0,.17-.23v-.02s.03,0,.03,0c.05-.02.11-.06.18-.13.12-.11.14-.12.17-.12h.08l.02-.02c.05-.13.07-.15.09-.16h.02c.14-.02.23-.06.26-.12.02-.09.07-.34.22-.34.02,0,.03,0,.16.1.13-.15.17-.18.19-.19.12-.08.14-.11.14-.12,0-.2.09-.26.16-.28.05,0,.16-.06.39-.27.19-.17.4-.35.64-.55.26-.21.32-.27.34-.29h0s.02-.03.02-.03c.07-.05.12-.08.14-.11l.1-.07c.12-.04.18-.07.2-.09h.01s.02-.01.02-.01c.07,0,.13-.02.19-.07.07-.06.19-.12.37-.21l.06-.02c.08-.07.15-.11.21-.11.08,0,.22.03.22.24l-.02.23.04.24-.06.47s0,.03.03.09c.02.05.03.09.03.13,0,.03-.02.07-.07.12.03.08.05.15.05.21,0,.09.02.17.05.23.05.1.06.13.06.15v.03h0c-.07.14-.08.17-.08.18h0s0,.02.04.08c.03.07.05.11.05.15,0,.03.05.13.22.38.16.24.26.31.31.33.09.03.18.07.27.12.09.06.15.07.18.07l.18-.04.27.04s.06-.02.09-.05l.14-.1c.21-.11.33-.22.37-.33v-.02s.11-.05.11-.05h.15s.06-.09.06-.15v-.02l.39-.33c.05-.05.11-.1.18-.14l.25-.13.48-.51c.17-.17.29-.3.36-.39.07-.08.11-.17.11-.27l-.04-.32.09-.19s-.01-.05-.1-.05c-.05,0-.1.04-.16.11l-.09.11-.11.05-.23.2c-.25.15-.42.25-.54.32-.1.06-.16.14-.19.25v.02s-.02,0-.02,0c-.09.07-.13.14-.13.24v.02h-.01s-.05.05-.07.05h-.02s-.09-.04-.09-.04h-.03s-.1.01-.14.12v.02c-.13.12-.22.2-.28.23-.06.11-.14.18-.24.21l-.32.09s-.1-.04-.18-.24l-.19-.41v-.09c0-.08.04-.12.07-.13.11-.11.17-.3.17-.58l-.02-.18.08-.53v-.03s-.04-.25-.04-.25l.02-.18c0-.14-.09-.34-.27-.59-.18-.25-.42-.37-.72-.37-.02,0-.08,0-.23.07-.12.05-.22.08-.28.1-.08.02-.09.04-.09.04h0s-.14.09-.14.09l-.13.04c-.12.1-.23.15-.33.17-.08.02-.15.05-.2.11-.06.07-.17.14-.34.21l-.08.14-.09.08s-.14.09-.31.15c-.15.05-.25.15-.3.29-.02.04-.07.09-.16.14-.08.04-.14.09-.21.14-.07.06-.13.09-.18.09-.13,0-.14-.09-.14-.12,0-.07.04-.16.12-.27.04-.15.05-.27.05-.35l-.02-.25c0-.14-.09-.34-.27-.59-.18-.25-.42-.36-.76-.36-.11,0-.2.08-.27.24-.08.18-.23.32-.45.41l-.07.1h-.02c-.14,0-.27.06-.41.16-.15.11-.33.22-.54.34-.2.11-.33.25-.38.41l-.2.53c0,.26.11.29.19.29h.04c.16-.12.22-.14.25-.15.03,0,.03-.02.03-.03h0s0-.02,0-.02c.08-.13.16-.21.23-.24.04-.02.16-.09.48-.33h.02s.14.01.14.01c.12-.17.22-.25.3-.27.04,0,.13-.05.32-.23l.04-.04.05.1h0s-.01.08-.14.28c-.1.16-.13.24-.13.27,0,.07-.03.13-.07.16-.02.02-.03.05-.03.07,0,.16-.01.24-.08.24h-.11Z"/>
      </g>
    </g>
  </g>
  <g>
    <path d="M175.14,71.52c-.54,1.34-1.61,2.68-3.08,4.02.13.2.2.34.34.47v1.81c-.6.13-1.14.27-1.68.34.74.94,1.14,1.61,1.14,2.15s-.67,1.27-1.88,2.28c-.27.6-.67,1.14-1.07,1.61,3.55-.54,6.17-.8,7.91-.8.47,0,1.21.2,2.28.6,1.21.8,1.88,1.34,2.08,1.47.13.13.27.6.4,1.48.07.8.13,1.34.13,1.61,0,.2-.4.67-1.14,1.41-.67.34-1.14.54-1.48.54-.13,0-1.07-.47-2.68-1.34-1.07-.27-2.01-.34-2.82-.34-4.29,0-10.66.47-18.98,1.41-6.3,1.48-9.86,2.28-10.59,2.35-.13,0-.67-.6-1.74-1.74-1.01-1.07-1.54-1.74-1.54-1.88,0-.6.07-1.07.2-1.34h1.21c0,.27,0,.47.07.67.47,0,2.88-.54,7.31-1.54.6-.13,1.21-.34,1.81-.47-.27-.4-.47-.8-.6-1.34,0-.94-.6-2.35-1.68-4.09,2.28.13,4.29.94,6.04,2.41,2.41-1.21,3.96-2.08,4.63-2.68-.34.94-1.41,2.55-3.29,4.83.6,0,1.21-.07,1.88-.13,2.35-.13,4.43-.34,6.24-.54,1.14-1.54,1.74-3.08,1.74-4.56,0-.47-.07-.87-.13-1.14-2.08.4-4.16.8-6.24,1.07-1.07.2-2.15.4-3.22.67-1.01.2-2.15.34-3.35.34-.4-.07-.67-.27-.94-.54-.8-.13-1.48-.6-1.94-1.48-.67-.94-1.27-2.48-1.81-4.49-.47-1.21-.87-2.41-1.14-3.49-.34-.6-.47-1.21-.47-1.74h1.01c1.14.54,2.21,1.14,3.15,1.74,3.35-2.55,9.39-4.16,18.24-4.83,3.76.07,5.7,1.81,5.7,5.23ZM163.07,35.18c1.21,1.21,1.81,2.15,1.81,2.95,0,1.14-.4,4.16-1.21,8.99-.34,2.68-.6,5.23-.8,7.78,1.14-.13,2.28-.34,3.42-.6,0-.4.07-.74.13-1.14h-.27c-1.68-.07-2.48-.6-2.48-1.68,0-.27.13-.47.4-.47.34,0,1.21-.27,2.68-.94,0-.27.07-.6.13-.87h-.13c-1.81-.07-2.68-.67-2.68-1.88,0-.34.13-.54.4-.54.4,0,1.34-.2,2.75-.74,0-.27.07-.6.13-.87h-.27c-1.14-.27-1.88-1.14-2.28-2.75,0-.13.13-.2.4-.2.34.07.6.07.74.07.6-.13,1.21-.34,1.74-.54.07-.67.13-1.34.27-2.01-.67-1.21-1.07-2.28-1.34-3.08,1.88,0,3.62.74,5.16,2.21,0,.67-.07,1.27-.07,1.88.27-.07.47-.13.74-.2,1.07.27,1.81.8,2.28,1.48,0,.47-.13.87-.34,1.21-1.07.67-2.01,1.27-2.88,1.81h.13c1.34,0,2.08.8,2.21,2.35,0,.34-1.01.67-2.95,1.07-.2.07-.34.13-.47.13-.07.2-.07.34-.07.34.27,0,.6-.07.94-.07,1.27,0,2.01.8,2.21,2.35,0,.34-1.07.74-3.08,1.21-.47.13-.87.2-1.14.27-.13.4-.2.8-.34,1.14.87-.13,1.74-.27,2.55-.4.4,0,.8.07,1.07.07.34-.54.6-1.14.87-1.74,1.34-2.15,2.01-4.96,2.15-8.38,0-1.14.54-1.74,1.74-1.74.4,0,1.21.94,2.55,2.75l.87,1.61c0,.54-.27,1.27-.67,2.21-.54,1.27-1.21,2.55-2.01,3.89-.47.94-.94,1.74-1.48,2.48-.8,1.27-1.27,1.94-1.48,2.01-.13.47-1.01,1.07-2.48,1.74-1.47.54-2.75.74-3.75.74v-.94c.13-.07.2-.13.27-.27-7.51,1.21-13.81,2.41-19.04,3.69-.54,0-1.14-.13-1.81-.4-.54-.13-1.01-.47-1.48-1.01-.54-.47-.87-1.34-1.01-2.61-.54-5.5-1.68-9.12-3.42-11,0-.4,0-.6.07-.67.13-.07.34-.13.47-.13,2.28,0,4.02.8,5.3,2.35.8,3.62,1.21,6.64,1.21,9.05,1.21-.13,2.35-.34,3.49-.6v-.6c-.13.07-.27.07-.34.07-1.94-.07-2.88-.74-2.88-2.01,0-.4.13-.6.47-.6s1.21-.27,2.55-.94c-.07-.27-.07-.47-.07-.67h-.07c-1.94-.13-2.88-.8-2.88-2.01,0-.4.13-.6.47-.6s1.14-.34,2.35-1.07c0-.27-.07-.6-.07-.87-.67.27-1.34.4-2.01.47-1.07-.2-1.74-1.01-2.08-2.48,0-.13.13-.27.4-.27.27.13.47.13.6.13.94-.4,1.88-.8,2.75-1.21-.34-1.47-.87-2.95-1.54-4.56,0-.2.2-.34.47-.4,3.08.47,4.63,1.27,4.63,2.41v1.01c.34-.13.67-.27,1.01-.4.94.27,1.68.74,2.08,1.34,0,.4-.13.8-.27,1.07-1.07.8-2.01,1.54-2.88,2.21v.27c.27-.07.47-.13.74-.13,1.21,0,1.88.74,2.01,2.15,0,.54-.8,1.07-2.41,1.74-.13.13-.27.13-.34.13v.6c.54-.13,1.07-.27,1.61-.27,1.07,0,1.68.67,1.81,1.94,0,.54-.94,1.14-2.68,1.81-.34.13-.6.27-.74.34v.94c1.21-.13,2.35-.27,3.49-.54.07-2.41.13-4.76.2-7.11.13-3.22.2-6.37.34-9.52-.13-1.54-.67-2.68-1.68-3.49-.4-.27-.6-.67-.6-1.27,1.14-.13,2.35-.2,3.55-.2.8.13,1.48.6,2.15,1.27ZM153.01,62.94c6.44-1.47,11.73-2.68,16.03-3.55,1.47.4,2.48,1.01,3.15,1.94,0,.67-.2,1.21-.47,1.68-1.07.47-2.15.87-3.22,1.21-1.88.67-3.69,1.34-5.43,1.94-1.61.74-2.55,1.07-2.82,1.07,0-.13.4-.54,1.21-1.21-2.21.4-4.49.74-6.84.87-1.54-.34-2.61-1.61-3.15-3.76.07-.2.27-.34.6-.34.47.13.8.13.94.13ZM153.88,77.02c1.48-.13,3.29-.47,5.43-.87,2.68-.47,5.5-1.07,8.38-1.74.94-1.34,1.41-2.75,1.41-4.16-4.43.13-9.19,1.07-14.35,2.82-1.07,0-1.81-.07-2.35-.34.74,1.48,1.14,2.55,1.14,3.08,0,.47-.07.87-.07,1.27.13,0,.27-.07.4-.07Z"/>
    <path d="M236.56,39.8c1.34.54,2.08,1.41,2.28,2.61,0,.47-.34.87-.87,1.14-2.01.4-4.02,1.14-6.03,2.35,2.08.4,3.42,1.14,3.96,2.28.94-.27,2.01-.4,3.08-.4,3.08.27,5.5,1.74,7.24,4.36.13.6.34,1.14.54,1.61-.07.27-.13.54-.13.74,1.88.4,3.29,1.21,4.22,2.28-.13,1.14-2.55,1.74-7.24,1.81-.94,1.21-1.81,2.75-2.62,4.56,1.21.67,1.94,1.61,2.28,2.88-.2.4-2.88,1.07-8.05,2.01-.4.2-.74.34-1.01.4-.27,3.35-.47,6.84-.6,10.53.2,2.01.34,4.96.34,8.78,0,.8-.2,1.88-.6,3.15-.4,1.27-1.01,1.94-1.81,1.94-2.88-1.54-5.5-4.43-7.91-8.72-2.28,2.08-4.49,3.49-6.77,4.43-.47-1.27-.67-2.75-.67-4.63,1.21-.47,2.55-2.41,3.96-5.83-.07-1.81-.2-2.75-.4-2.75-.8.67-1.41,1.48-1.68,2.48-.87-.67-1.41-1.61-1.61-2.68.74-1.88,2.41-2.82,5.03-2.95,1.21.27,1.94,1.34,2.28,3.35,0,1.21-.34,2.35-.87,3.49,2.15-1.34,4.43-2.82,6.91-4.36.13-1.61.2-3.22.34-4.83-1.34.4-2.48.54-3.42.54-2.15,0-4.02-.2-5.56-.6,0-1.21,1.07-2.61,3.22-4.09,2.15-.27,4.16-.74,6.03-1.41,0-.67.07-1.27.13-1.88-4.29,1.34-6.64,1.94-7.04,1.94-1.01,0-2.28-.47-3.76-1.48-.4-.4-.74-.74-.87-1.14-.6.94-1.14,1.88-1.68,2.82-6.7,17.03-10.73,25.55-12.14,25.55-1.21-.2-1.94-1.41-2.08-3.69,1.07-1.94,1.68-3.42,1.68-4.49.47.13,1.01.2,1.61.27,3.02-7.84,5.9-14.35,8.65-19.58,2.28-5.3,5.57-10.26,9.86-14.95-1.47.67-3.08,1.34-4.96,2.01-3.89,2.01-6.1,2.95-6.77,2.95-1.74-.13-2.95-1.41-3.69-3.89,0-.8.13-1.48.54-2.01,1.74.13,3.42.27,5.16.4,6.03-1.34,11.33-3.42,15.82-6.17.2-.27.4-.54.6-.74-.67-.13-1.21-.34-1.61-.54-5.77,1.48-9.52,2.61-11.26,3.35,2.21-1.61,5.1-3.82,8.65-6.64-1.48-1.61-2.21-3.15-2.21-4.56,7.24.54,11.13,3.22,11.53,7.98ZM230.12,57.91c.13,0,.27-.07.4-.13-.07-.74-.07-1.48-.07-2.15-.87.27-1.74.54-2.68.8-2.01,0-3.69-.2-4.89-.67q-.13,0-.13-.07c-.94,1.34-1.81,2.68-2.62,4.02,2.55-.2,5.9-.8,9.99-1.81ZM228.38,51.81c.67-.34,1.27-.67,1.94-1.01v-.54c-.13-1.21-.34-2.15-.67-2.82-.2.13-.34.27-.4.34-1.61,1.48-3.22,3.35-4.89,5.63,1.34-.6,2.68-1.14,4.02-1.61ZM224.42,83.39c1.01.54,2.01.8,3.08.8.8,0,1.34-.34,1.68-1.14.13-1.88.27-3.69.4-5.5-1.74,2.28-3.42,4.22-5.16,5.83ZM235.62,62.8c.54-.67,1.07-1.54,1.61-2.48-.94.27-1.74.54-2.48.74-.07.67-.13,1.34-.13,2.01.4-.07.74-.13,1.01-.27ZM238.97,55.23c.13-.47.2-.94.34-1.41,0-.67-.54-1.07-1.61-1.07-.67.4-1.47.74-2.28,1.07-.13.87-.2,1.74-.27,2.55,1.48-.4,2.75-.8,3.82-1.14ZM243.53,70.58c1.41,1.07,2.15,2.01,2.15,2.82,0,.54-.54,1.14-1.54,1.88-1.07.8-2.68,1.68-4.76,2.75,1.74,1.07,3.49,1.94,5.23,2.61,1.54.94,2.55,2.15,2.95,3.62,0,1.34-.34,2.08-.87,2.35-2.68,0-4.76-.67-6.37-2.15-1.61-1.34-2.75-3.42-3.35-6.17.67-.8,1.27-1.68,1.74-2.48.47-.74.87-1.54,1.14-2.41-.27-.4-.8-.8-1.47-1.14-.8-.27-1.68-.54-2.75-.67.4-.6,1.01-1.07,1.81-1.48.74-.27,1.61-.4,2.68-.4,1.34,0,2.48.34,3.42.87Z"/>
    <path d="M271.02,58.31c2.62-1.14,5.3-2.61,8.11-4.43,2.08-1.14,3.76-2.08,5.1-2.82v-1.27c-.54-.87-.8-2.08-.8-3.69,2.28.67,3.96,1.81,4.96,3.42,0,.07.07.13.07.13,2.35.27,3.69,1.54,3.96,3.82,0,.54-.6,1.27-1.81,2.15-.8.67-1.81,1.41-3.15,2.21-.07.54-.13,1.07-.2,1.54.6,1.01.94,2.01.94,2.95-.13.4-.67,1.21-1.54,2.41-.13,1.34-.27,2.55-.4,3.62,1.61-1.34,3.29-2.75,4.96-4.36-1.47,2.62-3.22,5.1-5.36,7.51-.2,1.34-.34,2.41-.47,3.08.13,3.49.4,6.91.67,10.39-.4,2.21-1.01,3.49-1.94,3.76-1.21-.27-2.15-1.81-2.88-4.56.07-2.41.34-5.23.74-8.52-3.35,3.42-5.5,5.16-6.57,5.23-.47,0-1.07-.6-1.74-1.94-.6-1.48-.87-2.61-.87-3.42,1.21-2.15,2.82-4.36,4.76-6.77,2.01-2.68,3.35-5.16,4.09-7.31-.67.4-1.27.74-1.81,1.01-2.15,1.48-3.96,2.41-5.36,2.88-2.01,0-3.62-.67-4.83-2.01-1.01-1.41-1.47-3.22-1.47-5.5.94.34,1.94.47,2.88.47ZM291.34,38.06c1.68,1.47,2.55,2.75,2.55,3.82-.13,1.27-.47,1.88-1.01,1.88-.94.47-1.88.87-2.82,1.14-3.35.47-7.24,1.14-11.6,1.94-2.41-.13-4.76-.27-7.11-.4,2.41-.6,4.56-1.41,6.44-2.41,3.89-2.55,6.91-4.63,9.05-6.1,0-.34-.2-1.27-.54-2.75,1.74.54,3.42,1.54,5.03,2.88ZM281.28,71.85c.2,0,.6-.2,1.21-.6.13-.74.27-1.48.4-2.28-1.07,1.34-1.61,2.28-1.61,2.88ZM309.98,33.5c.6.27,1.07.4,1.41.54.2.13.47.2.8.2,1.74,1.27,2.61,2.15,2.61,2.61-.54,1.68-.87,4.16-1.01,7.38-.13,3.15-.27,6.84-.4,11.06-.07.54-.07,1.07-.07,1.54.8.54,1.68,1.07,2.55,1.61,2.95.8,4.76,1.74,5.43,2.68,0,.8-.27,1.48-.67,2.15-2.55.07-5.16.4-7.78,1.07-.54,8.18-1.01,16.29-1.47,24.47-.67,2.82-1.21,4.22-1.47,4.36-.07,0-.34-1.07-.8-3.22-.2-1.48-.4-3.15-.67-5.23-.07-6.71-.07-13.08-.07-18.98-4.22,1.61-8.58,3.96-13.14,6.97-2.15-.07-3.42-1.68-3.89-4.89,3.76-1.01,7.44-2.61,11-4.76,2.28-1.14,4.29-2.01,6.03-2.68v-3.69c.13-4.02.47-8.45.94-13.28.13-3.02.34-5.3.67-6.77-.27-.4-.54-.94-.8-1.61-1.14,1.27-2.21,2.55-3.29,3.76v-3.29c.2-.2.47-.67.8-1.48.54-.2.87-.4,1.14-.54h2.15ZM301.86,53.75c1.88.8,3.08,1.94,3.55,3.55,0,1.94-1.68,3.02-4.96,3.22-1.94.54-4.29,1.14-7.11,1.74,2.35-2.01,3.96-3.55,4.76-4.76-1.61-1.21-2.35-2.82-2.35-4.83,2.28,0,4.36.4,6.1,1.07ZM302.74,43.76c1.88.8,3.08,2.01,3.55,3.55,0,1.21-1.27,1.88-3.76,2.01-1.47.4-3.22.74-5.3,1.07.8-1.21,1.41-2.15,1.68-2.82-1.61-1.21-2.35-2.82-2.35-4.83,2.35,0,4.43.34,6.17,1.01Z"/>
    <path d="M354.03,37.52c2.88,1.27,4.36,2.55,4.36,3.82,0,1.21-.67,3.75-1.94,7.64.4-.2.74-.4,1.07-.54,1.41.13,2.48.74,3.15,1.74.67.94,1.07,1.74,1.07,2.48.8,0,1.61-.13,2.41-.27,2.28-1.14,4.49-2.15,6.5-3.08.47-3.02.8-6.44.94-10.19,0-1.07-.47-1.61-1.27-1.74-.74.2-1.07,1.07-1.07,2.55-.8-1.07-1.14-1.94-1.14-2.61.13-2.08,1.14-3.42,2.88-3.96,3.22.27,4.96,2.15,5.23,5.63-.07,3.02-.2,5.7-.4,8.11.34-.13.67-.2.94-.34h2.55c1.81.27,3.15,1.61,4.02,4.02,0,.67-.47,1.21-1.27,1.61-.67.4-1.94.94-3.82,1.54-1.41.6-2.68,1.07-3.76,1.47-.6,2.41-1.34,4.22-2.28,5.57,5.1,0,7.71,1.88,7.71,5.5-.4,2.68-1.01,4.96-1.74,6.97.34.27.6.54.87.67,5.23,2.68,8.78,5.77,10.66,9.19,1.21,2.01,1.81,3.89,1.81,5.77-2.75,0-6.57-2.28-11.47-6.84-1.48-1.61-2.82-3.02-4.16-4.22-2.41,3.62-5.77,5.77-9.99,6.57-6.5,0-10.19-2.61-11-7.91,1.88,2.41,4.29,3.55,7.24,3.55,3.75-.67,6.7-2.68,8.85-5.97-2.68-1.74-5.36-2.95-8.05-3.49-3.08,0-5.7.47-7.98,1.27,0-2.15,1.54-3.89,4.76-5.1,4.83,0,9.32,1.07,13.41,3.22.54-1.48,1.01-3.15,1.41-4.89-2.01,0-3.89.67-5.63,1.88-1.74-.6-2.62-2.35-2.62-5.23.87-1.27,1.68-2.82,2.35-4.63-.8.2-1.41.27-1.81.27-1.21,0-3.08-1.34-5.77-4.09-1.21,1.07-3.35,2.48-6.37,4.36-.2,1.07-.34,2.08-.47,3.08,1.34-1.27,2.62-2.61,3.96-4.09,0,2.08-1.34,4.83-3.89,8.18-.13.27-.27.54-.4.67-.13,1.68-.27,3.42-.54,5.16-.13,2.55-.2,4.09-.2,4.63,0,1.14.2,3.42.74,6.91.13,2.41.27,4.16.27,5.23,0,.54-.27,1.14-.74,1.81-.47.4-.94.67-1.47.67-.74,0-2.62-2.41-5.63-7.24-1.07-1.74-1.94-3.15-2.48-4.29-.6.54-1.07.74-1.41.74-2.01-.67-3.22-2.68-3.55-5.9.2-.94,1.54-1.94,4.02-3.08,2.15-1.34,4.22-2.95,6.3-4.96.4-.34.8-.67,1.21-1.01,0-1.34.07-2.68.2-4.02-2.28,1.41-4.29,2.68-6.17,3.82-.8,0-2.35-.6-4.63-1.94-2.41-2.48-3.55-4.43-3.55-5.83,1.21.67,2.41,1.01,3.76,1.07,1.88-.94,4.83-2.41,8.72-4.43.87-.54,1.74-1.01,2.68-1.41.07-.67.13-1.34.27-2.15.13-3.15.27-5.16.27-6.04,0-.54-.47-1.68-1.41-3.35-.94-1.88-1.34-3.15-1.34-3.69.67,0,2.28.4,4.83,1.14ZM349,72.32c-1.54,2.28-2.82,3.96-3.89,5.1.4.4.87.67,1.27.94,1.74,1.34,2.95,2.01,3.62,2.01.13-.94.2-4.09.2-9.52-.4.54-.8,1.01-1.21,1.48Z"/>
  </g>
</svg>