<?xml version="1.0" encoding="UTF-8"?>
<svg id="_圖層_1" data-name="圖層 1" xmlns="http://www.w3.org/2000/svg" xmlns:xlink="http://www.w3.org/1999/xlink" viewBox="0 0 349.18 120">
  <defs>
    <style>
      .cls-1 {
        fill: none;
      }

      .cls-2 {
        clip-path: url(#clippath-1);
      }

      .cls-3 {
        clip-path: url(#clippath);
      }
    </style>
    <clipPath id="clippath">
      <rect class="cls-1" x="35.71" y="20.96" width="277.76" height="78.08"/>
    </clipPath>
    <clipPath id="clippath-1">
      <rect class="cls-1" x="35.71" y="20.96" width="277.76" height="78.08"/>
    </clipPath>
  </defs>
  <g id="_圖稿_7" data-name="圖稿 7">
    <g class="cls-3">
      <g class="cls-2">
        <path d="M235.63,85.16h4.66v9.91h4.35v-9.91h3.73c.64,0,.93-.28.93-.62v-2.17h-13.67v2.8Z"/>
        <path d="M312.54,85.16c.73,0,.93-.28.93-.62v-2.17h-12.43v2.8h0v2.19h0v2.8h0v2.13h0v2.8h11.5c.7,0,.93-.28.93-.62v-2.17h-8.08v-2.13h5.9c.76,0,.93-.28.93-.62v-2.17h-6.83v-2.19h7.15Z"/>
        <path d="M186.69,85.1v2.87c0,1.37,1.09,2.18,3.73,2.18h4.85c.6,0,.75.22.75.56v1.01c0,.34-.16.56-.75.56h-8.57v2.8h9.94c2.63,0,3.73-1.02,3.73-2.73v-2.19c0-2.3-1.2-2.8-3.73-2.8h-4.85c-.68,0-.75-.22-.75-.56v-1.07c0-.34.12-.56.75-.56h7.64c.87,0,.93-.28.93-.62v-2.17h-9.94c-2.68,0-3.73,1.02-3.73,2.73"/>
        <path d="M213.16,82.41h-5.03c-2.97,0-4.97,1.64-4.97,4.04v4.6c0,2.4,2,4.04,4.97,4.04h5.03c2.97,0,4.97-1.64,4.97-4.04v-4.6c0-2.4-2-4.04-4.97-4.04M213.78,90.99c0,.69-.87,1.3-1.55,1.3h-3.16c-.69,0-1.55-.62-1.55-1.3v-4.51c0-.69.87-1.3,1.55-1.3h3.16c.69,0,1.55.62,1.55,1.3v4.51Z"/>
        <path d="M220.94,95.07h4.35v-4.92h6.53c.63,0,.93-.28.93-.62v-2.17h-7.46v-2.19h7.15c.69,0,.93-.28.93-.62v-2.17h-12.43v12.71Z"/>
        <path d="M259.59,89.1l1.49,5.95h2.53c1.03,0,1.38-.55,1.54-1.21l2.81-11.49h-2.47c-.99,0-1.39.55-1.55,1.22l-1.26,5.31-1.54-6.54h-1.85c-1.1,0-1.39.55-1.55,1.22l-1.25,5.31-1.55-6.54h-3.73l3.11,12.7h2.49c1.17,0,1.36-.49,1.54-1.19l1.24-4.76Z"/>
        <path d="M283.31,95.15h-4.35l-2.88-9.35-1.93,6.57h2.59l-.68,2.35c-.08.27-.3.45-.91.45l-6.31-.02,3.62-11.59c.21-.66.46-1.11,1.52-1.11h5.35l3.97,12.7Z"/>
        <path d="M295.14,82.39l-9.57-.03v12.71h4.35v-9.91h3.05c.87,0,.91.5.91,1.01v.8c0,.34-.05.94-.92.94h-1.58l2.12,6.12c.22.64.44,1.07,1.5,1.07h3.22l-1.88-5.44c1.12-.64,1.88-1.3,1.88-3.24v-.4c0-3.09-1.38-3.62-3.1-3.62"/>
        <path d="M242.74,69.52V25.91h37.13c5.14,0,7.64,2.76,7.64,8.45v12.11c0,5.68-2.5,8.45-7.64,8.45h-22.39c-.32,0-.59.26-.59.59v14.03h-14.15ZM257.48,34.59c-.32,0-.59.26-.59.59v10.47c0,.32.26.59.59.59h15.43c1.08,0,1.96-.88,1.96-1.96v-7.72c0-1.08-.88-1.96-1.96-1.96h-15.43Z"/>
        <path d="M299,69.52V28.93c0-1.57,1.28-2.85,2.85-2.85h11.3v43.45h-14.15Z"/>
        <path d="M202.79,69.52v-33.18c0-.32-.26-.59-.59-.59h-15.84v-9.85h47v8.25c0,.64,0,1.6-2.7,1.6h-13.14c-.32,0-.59.26-.59.59v33.18h-14.16Z"/>
        <path d="M35.71,23.63v17.43c0,1.18.71,2.67,3.2,2.67h21.2c3.58,0,4.53,2.19,4.53,4.11v48.54c0,1.18.93,2.67,3.2,2.67h18.67c10.46,0,13.17-3.98,13.17-8.89v-24.24c-.45-21.16,16.68-34.17,35.04-41.21,2.18-.91,4.36-1.74,6.52-2.49.69-.24.52-1.25-.21-1.25H38.9c-2.24,0-3.2,1.49-3.2,2.67"/>
        <path d="M129.82,76.35c-1.09.1-1.92.91-1.92,3.19v16.83c0,1.18.97,2.67,3.2,2.67h35.46c2.46,0,3.21-1.49,3.21-2.67v-34.28c0-.52-.59-.82-1.01-.52-5.02,3.62-14.14,12.4-38.93,14.78"/>
        <path d="M164.68,41.05c2.04,5.19-4.17,12.47-13.85,16.28-9.69,3.8-19.19,2.68-21.22-2.51-2.04-5.19,4.17-12.47,13.85-16.28,9.69-3.8,19.19-2.68,21.22,2.51"/>
      </g>
    </g>
  </g>
</svg>