<?xml version="1.0" encoding="UTF-8"?>
<svg id="_圖層_1" data-name="圖層 1" xmlns="http://www.w3.org/2000/svg" viewBox="0 0 409.18 120">
  <defs>
    <style>
      .cls-1 {
        fill: #fff;
        fill-rule: evenodd;
      }
    </style>
  </defs>
  <g>
    <path class="cls-1" d="M161.73,73.3l19.59-23.56h-14.03l-16.44,19.78c-.48.57-1.17.9-1.91.9h-9.66c-1.36,0-2.47-1.1-2.47-2.47v-18.21h-11.72v52.13h11.72v-18.21c0-1.36,1.1-2.47,2.47-2.47h9.66c.74,0,1.44.32,1.91.9l16.44,19.78h14.03l-19.59-23.56c-1.21-1.45-1.21-3.55,0-5.01h0Z"/>
    <path class="cls-1" d="M214.03,48.81h-20.68c-1.36,0-2.47,1.1-2.47,2.47v48.13c0,1.36,1.1,2.47,2.47,2.47h20.68c9.66,0,18.01,0,23.78-3.31,6.17-3.53,9.04-10.91,9.04-23.21,0-26.53-13.06-26.53-32.82-26.53h0ZM217.69,92.03h-13.29c-1.03,0-1.87-.84-1.87-1.87v-29.63c0-1.03.84-1.87,1.87-1.87h13.29c13.75,0,16.7,1.44,16.7,16.69s-2.95,16.68-16.7,16.68Z"/>
    <path class="cls-1" d="M285.84,48.28c-12.66,0-16.02,1.52-19.97,13.4-3.23,9.72-11.26,34.08-13.27,40.18h11.66l4.02-12.17c.33-1.01,1.28-1.69,2.34-1.69h30.37c1.06,0,2,.67,2.34,1.69l4.07,12.18h11.68l-13.43-40.18c-4-11.96-7.1-13.41-19.8-13.41h0ZM274.63,78.39c-1.28,0-2.19-1.25-1.78-2.47l2.86-8.61c2.24-6.7,2.74-8.82,10.07-8.82s7.84,2.12,10.07,8.81l2.88,8.61c.41,1.21-.5,2.47-1.78,2.47h-22.34Z"/>
    <path class="cls-1" d="M368.89,100.02l-26.55-31.19c-.64-.76-1.88-.3-1.88.69v32.35h-12.15v-48.91c0-2.07,1.68-3.75,3.75-3.75h6.68c1.1,0,2.15.48,2.86,1.32l26.55,31.19c.64.76,1.88.3,1.88-.69v-31.81h12.31v48.37c0,2.07-1.68,3.75-3.75,3.75h-6.82c-1.1,0-2.15-.48-2.86-1.32h0Z"/>
  </g>
  <g>
    <g>
      <path d="M161.73,73.3l19.59-23.56h-14.03l-16.44,19.78c-.48.57-1.17.9-1.91.9h-9.66c-1.36,0-2.47-1.1-2.47-2.47v-18.21h-11.72v52.13h11.72v-18.21c0-1.36,1.1-2.47,2.47-2.47h9.66c.74,0,1.44.32,1.91.9l16.44,19.78h14.03l-19.59-23.56c-1.21-1.45-1.21-3.55,0-5.01h0Z"/>
      <path d="M214.03,48.81h-20.68c-1.36,0-2.47,1.1-2.47,2.47v48.13c0,1.36,1.1,2.47,2.47,2.47h20.68c9.66,0,18.01,0,23.78-3.31,6.17-3.53,9.04-10.91,9.04-23.21,0-26.53-13.06-26.53-32.82-26.53h0ZM217.69,92.03h-13.29c-1.03,0-1.87-.84-1.87-1.87v-29.63c0-1.03.84-1.87,1.87-1.87h13.29c13.75,0,16.7,1.44,16.7,16.69s-2.95,16.68-16.7,16.68Z"/>
      <path d="M285.84,48.28c-12.66,0-16.02,1.52-19.97,13.4-3.23,9.72-11.26,34.08-13.27,40.18h11.66l4.02-12.17c.33-1.01,1.28-1.69,2.34-1.69h30.37c1.06,0,2,.67,2.34,1.69l4.07,12.18h11.68l-13.43-40.18c-4-11.96-7.1-13.41-19.8-13.41h0ZM274.63,78.39c-1.28,0-2.19-1.25-1.78-2.47l2.86-8.61c2.24-6.7,2.74-8.82,10.07-8.82s7.84,2.12,10.07,8.81l2.88,8.61c.41,1.21-.5,2.47-1.78,2.47h-22.34Z"/>
      <path d="M368.89,100.02l-26.55-31.19c-.64-.76-1.88-.3-1.88.69v32.35h-12.15v-48.91c0-2.07,1.68-3.75,3.75-3.75h6.68c1.1,0,2.15.48,2.86,1.32l26.55,31.19c.64.76,1.88.3,1.88-.69v-31.81h12.31v48.37c0,2.07-1.68,3.75-3.75,3.75h-6.82c-1.1,0-2.15-.48-2.86-1.32h0Z"/>
    </g>
    <g>
      <g>
        <path d="M68.18,82.64V16.63c0-2.03-2.46-3.06-3.9-1.61L27.51,51.78c-.89.89-.89,2.33,0,3.23l32.71,32.71c1.91-2.56,4.72-4.41,7.95-5.09h0Z"/>
        <path d="M104.94,58.71h-29.16c-1.26,0-2.28,1.03-2.28,2.28v21.61c3.26.64,6.09,2.48,8.02,5.04l25.03-25.03c1.44-1.44.42-3.9-1.61-3.9h0Z"/>
      </g>
      <circle cx="70.9" cy="95.67" r="7.99"/>
    </g>
  </g>
</svg>