<svg width="51" height="51" viewBox="0 0 51 51" fill="none" xmlns="http://www.w3.org/2000/svg">
<path d="M36 12.25H16C13.9289 12.25 12.25 13.9289 12.25 16V36C12.25 38.0711 13.9289 39.75 16 39.75H36C38.0711 39.75 39.75 38.0711 39.75 36V16C39.75 13.9289 38.0711 12.25 36 12.25Z" stroke="#1432E6" stroke-width="2" stroke-linejoin="round"/>
<path d="M33.5 17.25H18.5C17.8096 17.25 17.25 17.8096 17.25 18.5V33.5C17.25 34.1904 17.8096 34.75 18.5 34.75H33.5C34.1904 34.75 34.75 34.1904 34.75 33.5V18.5C34.75 17.8096 34.1904 17.25 33.5 17.25Z" stroke="#1432E6" stroke-width="2" stroke-linejoin="round"/>
<path d="M26 12.25V9.75M32.25 12.25V9.75M19.75 12.25V9.75M26 42.25V39.75M32.25 42.25V39.75M19.75 42.25V39.75M39.75 26H42.25M39.75 32.25H42.25M39.75 19.75H42.25M9.75 26H12.25M9.75 32.25H12.25M9.75 19.75H12.25" stroke="#1432E6" stroke-width="2" stroke-linecap="round" stroke-linejoin="round"/>
</svg>
