<svg width="51" height="51" viewBox="0 0 51 51" fill="none" xmlns="http://www.w3.org/2000/svg">
<path d="M15.7353 15.0227C15.3843 15.0227 15.0476 15.1614 14.7994 15.4083C14.5512 15.6553 14.4118 15.9902 14.4118 16.3394C14.4118 16.6886 14.5512 17.0236 14.7994 17.2705C15.0476 17.5174 15.3843 17.6562 15.7353 17.6562H25.4412C25.7922 17.6562 26.1288 17.5174 26.3771 17.2705C26.6253 17.0236 26.7647 16.6886 26.7647 16.3394C26.7647 15.9902 26.6253 15.6553 26.3771 15.4083C26.1288 15.1614 25.7922 15.0227 25.4412 15.0227H15.7353ZM14.4118 35.6518C14.4118 35.3025 14.5512 34.9676 14.7994 34.7207C15.0476 34.4737 15.3843 34.335 15.7353 34.335H19.4112C19.0756 35.1755 18.8813 36.0652 18.8359 36.9685H15.7353C15.3843 36.9685 15.0476 36.8298 14.7994 36.5828C14.5512 36.3359 14.4118 36.001 14.4118 35.6518ZM21.0929 31.7015C22.3752 30.339 24.0807 29.4448 25.9353 29.1628C25.7776 29.102 25.6103 29.0699 25.4412 29.068H15.7353C15.3843 29.068 15.0476 29.2067 14.7994 29.4537C14.5512 29.7006 14.4118 30.0355 14.4118 30.3848C14.4118 30.734 14.5512 31.0689 14.7994 31.3158C15.0476 31.5628 15.3843 31.7015 15.7353 31.7015H21.0929ZM28.5294 13.267V29.068H31.1765V13.267C31.1765 11.8701 30.6187 10.5304 29.6259 9.54267C28.633 8.55491 27.2864 8 25.8824 8H15.2941C13.89 8 12.5435 8.55491 11.5506 9.54267C10.5578 10.5304 10 11.8701 10 13.267V37.8463C10 39.2432 10.5578 40.5829 11.5506 41.5707C12.5435 42.5584 13.89 43.1133 15.2941 43.1133H21.0929C20.3725 42.3473 19.8021 41.4542 19.4112 40.4798H15.2941C14.5921 40.4798 13.9188 40.2024 13.4224 39.7085C12.9259 39.2146 12.6471 38.5448 12.6471 37.8463V13.267C12.6471 12.5686 12.9259 11.8987 13.4224 11.4048C13.9188 10.911 14.5921 10.6335 15.2941 10.6335H25.8824C26.5844 10.6335 27.2577 10.911 27.7541 11.4048C28.2505 11.8987 28.5294 12.5686 28.5294 13.267ZM40 37.4074C40 35.6613 39.3028 33.9867 38.0617 32.752C36.8207 31.5173 35.1375 30.8237 33.3824 30.8237L33.2024 30.836C32.8701 30.8814 32.5677 31.0507 32.3561 31.3095C32.1444 31.5683 32.0395 31.8973 32.0623 32.2302C32.0852 32.563 32.2342 32.8748 32.4792 33.1026C32.7242 33.3303 33.047 33.4571 33.3824 33.4572L33.6541 33.466C34.6826 33.5343 35.6441 33.9978 36.3353 34.7586C37.0265 35.5194 37.3932 36.5178 37.3579 37.5427C37.3226 38.5676 36.8881 39.5387 36.1462 40.2506C35.4043 40.9626 34.4131 41.3596 33.3824 41.3577L33.3771 41.3665L33.1971 41.3787C32.8639 41.4243 32.5606 41.5943 32.3489 41.8542C32.1372 42.1142 32.0328 42.4445 32.0571 42.7783C32.0813 43.112 32.2324 43.424 32.4795 43.6509C32.7267 43.8778 33.0514 44.0026 33.3876 44V43.9912L33.7406 43.9824C35.4313 43.8912 37.0227 43.1587 38.187 41.9356C39.3514 40.7126 40.0002 39.092 40 37.4074ZM28.5294 32.1404C28.5294 31.7912 28.39 31.4563 28.1418 31.2093C27.8936 30.9624 27.5569 30.8237 27.2059 30.8237L26.8529 30.8325C25.1287 30.9211 23.5076 31.6766 22.3354 32.9378C21.1633 34.199 20.533 35.866 20.5791 37.5831C20.6251 39.3001 21.3439 40.9313 22.5819 42.1285C23.82 43.3257 25.4794 43.9942 27.2059 43.9912L27.3859 43.9789C27.7181 43.9334 28.0206 43.7642 28.2322 43.5054C28.4438 43.2466 28.5488 42.9175 28.5259 42.5847C28.5031 42.2518 28.3541 41.94 28.109 41.7123C27.864 41.4845 27.5412 41.3578 27.2059 41.3577L26.9341 41.3489C25.9056 41.2806 24.9441 40.817 24.2529 40.0563C23.5617 39.2955 23.195 38.2971 23.2303 37.2722C23.2656 36.2473 23.7002 35.2762 24.4421 34.5642C25.184 33.8523 26.1751 33.4553 27.2059 33.4572L27.3859 33.4449C27.7027 33.4016 27.9931 33.2457 28.2034 33.0059C28.4136 32.766 28.5294 32.4586 28.5294 32.1404ZM34.7059 37.4074C34.7059 37.0582 34.5664 36.7233 34.3182 36.4763C34.07 36.2294 33.7334 36.0907 33.3824 36.0907H27.2059L27.0259 36.103C26.6937 36.1484 26.3912 36.3177 26.1796 36.5765C25.968 36.8353 25.863 37.1643 25.8858 37.4972C25.9087 37.83 26.0577 38.1418 26.3027 38.3696C26.5478 38.5973 26.8705 38.7241 27.2059 38.7242H33.3824L33.5624 38.7119C33.8792 38.6686 34.1696 38.5127 34.3798 38.2729C34.59 38.033 34.7059 37.7256 34.7059 37.4074Z" fill="#1432E6"/>
</svg>
