<svg width="51" height="51" viewBox="0 0 51 51" fill="none" xmlns="http://www.w3.org/2000/svg">
<path d="M27.3086 12.4664C28.1249 12.4665 28.817 12.7426 29.3711 13.2955C29.9253 13.8486 30.2013 14.5407 30.2002 15.358V17.4664H37.3086C38.125 17.4665 38.8171 17.7433 39.3701 18.2975C39.9228 18.8515 40.199 19.5438 40.2002 20.36V36.6412C40.2002 37.4577 39.9241 38.1506 39.3701 38.7047C38.8161 39.2587 38.124 39.5329 37.3086 39.5319V39.5328H12.6934C11.8759 39.5328 11.1831 39.2579 10.6299 38.7047C10.0769 38.1516 9.80099 37.4585 9.7998 36.6403V20.36C9.7998 19.5424 10.0765 18.8497 10.6309 18.2965C11.1848 17.7439 11.8763 17.4676 12.6914 17.4664H19.7998V15.358C19.7999 14.5418 20.076 13.8496 20.6299 13.2955C21.184 12.7414 21.8768 12.4653 22.6934 12.4664H27.3086ZM11.8662 36.6412C11.8662 36.8343 11.9455 37.0213 12.1289 37.2057C12.3116 37.3892 12.497 37.4672 12.6904 37.4664H37.3086C37.5016 37.4664 37.6878 37.388 37.8721 37.2047C38.0556 37.0222 38.1345 36.8361 38.1338 36.6412V30.3668H28.5332V32.8668H21.4668V30.3668H11.8662V36.6412ZM23.5332 30.8004H26.4668V27.8668H23.5332V30.8004ZM11.8662 28.3004H21.4668V25.8004H28.5332V28.3004H38.1338V20.36C38.1338 20.1655 38.0543 19.9787 37.8711 19.7946C37.6884 19.611 37.503 19.5321 37.3096 19.5328H12.6914C12.4984 19.5329 12.3122 19.6122 12.1279 19.7955C11.9444 19.9781 11.8654 20.1641 11.8662 20.359V28.3004ZM21.8662 17.4664H28.1338V15.358C28.1337 15.165 28.0544 14.9788 27.8711 14.7946C27.6884 14.611 27.503 14.5321 27.3096 14.5328H22.6914C22.4984 14.5329 22.3122 14.6122 22.1279 14.7955C21.9443 14.9782 21.8655 15.1636 21.8662 15.3571V17.4664Z" fill="#1432E6" stroke="#1432E6" stroke-width="0.4"/>
</svg>
