<svg width="51" height="51" viewBox="0 0 51 51" fill="none" xmlns="http://www.w3.org/2000/svg">
<path d="M41 17.6667C41 21.35 34.2833 24.3333 26 24.3333C17.7167 24.3333 11 21.35 11 17.6667M41 17.6667C41 13.9833 34.2833 11 26 11C17.7167 11 11 13.9833 11 17.6667M41 17.6667V26M11 17.6667V26M41 26C41 29.6833 34.2833 32.6667 26 32.6667C17.7167 32.6667 11 29.6833 11 26M41 26V34.3333C41 38.0167 34.2833 41 26 41C17.7167 41 11 38.0167 11 34.3333V26" stroke="#1432E6" stroke-width="2.5" stroke-linecap="round" stroke-linejoin="round"/>
</svg>
