<?xml version="1.0" encoding="UTF-8"?>
<svg id="_圖層_1" data-name="圖層 1" xmlns="http://www.w3.org/2000/svg" viewBox="0 0 397.88 120">
  <path d="M63.66,64.42c-.64,0-1-.36-1-.9v-6.7c-.01-.53.28-1,.89-1h16.51c.43,0,.72.43.72.77.05,2.25.05,4.28-.17,6.52-.85,8.54-5.71,16.03-13.27,20.1-3.43,1.85-7.05,2.63-10.94,2.84-8.04.44-15.52-2.68-20.97-8.51-4.64-4.96-7.18-11.22-7.34-18.03-.18-7.49,2.49-14.39,7.67-19.74,5.11-5.28,11.87-8.26,19.3-8.24,4.75.01,9.21,1.08,13.27,3.54,4.44,2.69,7.97,6.46,10.3,11.09.14.28,0,.63-.08.78s-.39.39-.7.39h-8.95c-.57.01-1.11-.21-1.46-.63-6.26-7.43-18.08-7.42-24.73-.19-7.38,8.02-5.99,22,3.95,27.82,2.64,1.55,5.53,2.15,8.61,2.16,7.41.03,13.77-4.85,15.59-12.04l-7.21-.03Z"/>
  <path d="M368.81,85.52h-8.72c-.61,0-1.11-.19-1.49-.67l-11.74-14.83-5.25,5.59v9.12c-.06.37-.31.77-.74.77h-8.05c-.43.01-.88-.31-.88-.83v-51.47c0-.62.29-1.04.89-1.04h8.04c.4.1.72.31.72.8l.03,30.21,16.2-17.51c.48-.52.93-.83,1.66-.83h8.66c.42,0,.77.14.94.45.13.24.2.66-.11.99l-16.08,17.22,16.75,20.62c.25.31.16.68.09.92-.09.31-.48.48-.91.48Z"/>
  <path d="M233.26,85.52h-8.14c-.43-.13-.67-.32-.73-.84v-51.71c.06-.52.3-.7.73-.83h8.05c.46,0,.88.26.88.82v51.72c-.03.51-.27.71-.8.83Z"/>
  <path d="M156.52,44.9c-9.68-2.63-19.6,1.74-24.28,10.05-4.98,8.86-3.05,19.67,4.12,26.25,7.37,6.76,18.26,7.48,26.51,1.95.06,1.55.19,2.89-.03,4.39-.56,3.81-2.79,7.4-6.2,9.3-6.5,3.63-14.38.57-17.2-6.15l-8.53-.03c-.52,0-.97.54-.85,1.02,2.77,10.54,12.98,17.25,23.7,15.75,10.42-1.46,18.42-10.38,18.43-21.17v-20.68c0-9.85-6.62-18.22-15.68-20.68ZM152.87,77.42c-6.47,1.12-12.77-3.23-13.95-9.78-1.16-6.41,3.02-12.84,9.78-14.04,6.81-1.21,13,3.4,14.09,10,1.06,6.45-3.37,12.68-9.92,13.82Z"/>
  <path d="M326.27,63.16c-.9-10.54-9.74-18.68-20.16-19.01-10.49-.33-19.84,7.27-21.33,17.8-.93,6.63,1.11,13,5.7,17.75,8.29,8.58,21.68,8.53,29.95,0,4.32-4.45,6.37-10.34,5.84-16.55ZM304.13,77.04c-5.92-.67-10.24-5.66-10.48-11.41-.25-5.89,3.76-11.25,9.72-12.34,7.11-1.29,13.65,4.08,13.87,11.45.22,7.34-5.98,13.1-13.11,12.29Z"/>
  <path d="M126.19,62.84c-1.08-10.8-10.47-18.89-21.18-18.7-10.66.19-19.75,8.55-20.45,19.36-.4,6.22,1.68,11.95,6,16.35,8.31,8.47,21.7,8.36,29.95-.28,4.31-4.51,6.31-10.44,5.68-16.73ZM114.42,72.84c-2.33,2.85-6.04,4.57-9.96,4.24-5.92-.5-10.39-5.31-10.82-11.02-.45-5.86,3.31-11.28,9.14-12.65,6.15-1.44,12.23,2.25,13.98,8.41,1.13,3.98.2,7.94-2.33,11.03Z"/>
  <path d="M218.87,63.5c-.75-10.9-9.94-19.28-20.69-19.37-10.71-.09-20.03,8.1-20.95,18.91-.55,6.41,1.56,12.34,6.02,16.86,8.2,8.31,21.37,8.28,29.61-.05,4.33-4.38,6.44-10.15,6.02-16.36ZM209.72,66.76c-.94,6.65-6.94,11.22-13.46,10.21-5.96-.92-10.1-6.16-10.04-12,.07-5.94,4.43-11.08,10.49-11.8,3.7-.44,7.22.92,9.71,3.5,2.52,2.61,3.85,6.2,3.3,10.09Z"/>
  <path d="M281.27,63.95c-.5-10.91-9.52-19.5-20.29-19.81-10.7-.31-20.18,7.67-21.34,18.47-.68,6.35,1.29,12.35,5.63,16.93,8.3,8.77,21.86,8.74,30.16.1,4.1-4.27,6.1-9.73,5.83-15.69ZM270.88,70.65c-1.69,3.32-4.72,5.47-7.87,6.17-3.88.87-7.62-.19-10.43-2.74-5.47-4.96-5.28-13.52.35-18.25,4.07-3.42,9.85-3.67,14.2-.58,4.9,3.48,6.52,9.96,3.75,15.4Z"/>
</svg>