<?xml version="1.0" encoding="UTF-8"?>
<svg id="_圖層_1" data-name="圖層 1" xmlns="http://www.w3.org/2000/svg" viewBox="0 0 243.53 120">
  <defs>
    <style>
      .cls-1 {
        fill: #7fc242;
      }

      .cls-2 {
        fill: #58595b;
      }
    </style>
  </defs>
  <g>
    <path class="cls-1" d="M116.63,70.1c1.49-.47,2.62-1.53,2.95-3.07l.71-3.3c3.94,6.18,13.44,7.51,20.25,7.6,5.21.07,10.28-.01,15.47-.24,2.46-.11,8.52-.15,9.39-2.88l1.82-5.73c.09-.28,0-.64-.14-.82-.12-.14-.44-.28-.75-.27l-12.28.57c-4.92.23-13.58.53-18.07-.81-3.08-.92-4.88-3.81-4.46-6.91l25.7-3.34c3.99-.52,7.68-1.54,11.29-3.12,3.14-1.31,5.58-3.29,8-5.8l-7.99,27.81c-.08.76.53,1.46,1.34,1.46h10.68c1.24.01,2.05-.67,2.38-1.82l8.67-30.19c.66-2.31,2.25-3.95,4.47-4.83,1.68-.66,3.44-1.05,5.31-1.04l14.57.11c.98,0,1.8-.56,2.09-1.47.51-1.61,1.25-3.09,1.66-4.75.35-1.44-.86-2.74-2.21-3.13-1.79-.52-3.57-.55-5.45-.59-3.7-.07-7.27-.2-10.95.1-8.67.71-17.02,3.53-21.78,11.37.62-5.57-2.99-8.21-7.63-9.74-6.3-2.02-16.01-2.15-22.53-1.45-11.19,1.2-20.9,5.93-26.47,16.03-3.19,5.89-5.96,14.97-3.62,21.5l-13.05.77c-3.99.24-10.13.02-13.71-1.73-1.68-.82-2.84-2.17-3.13-4.03-.58-3.7.82-8.89,2.28-12.3,3.6-8.41,11.62-11.21,20.25-11.33,4.26-.06,8.38.21,12.62.6.85.08,1.53-.58,1.43-1.43l-.56-4.42c-.38-2.97-3.36-3.64-5.86-3.79-4.46-.28-8.78-.35-13.22.14-10.47,1.17-19.48,5.17-25.33,14.36.2-2.2.39-4.11-.25-6.11-2.77-8.71-16.99-8.71-24.37-8.61-4.08.06-15.38.12-18.77,1.21-1.51.49-2.89,1.44-3.39,2.96l-1.51,4.58c-.1.31-.04.61.09.79.16.21.47.38.84.35,7.07-.62,14.02-1.27,21.13-1.45,4.02-.1,14.42-.13,13.04,6.2-.31,1.43-1.13,2.26-2.58,2.48l-22.41,3.34c-6.11.91-13.13,2.68-17.94,6.64-3.17,2.61-5.02,6.36-4.92,10.49.17,7.8,10.95,9.66,16.96,10.03,9.9.62,19.74.12,29.55-1.36,2.47-.37,5-1.17,5.78-3.67l3.31-10.55c.07,1.86.19,3.53.71,5.26,2.81,9.24,14.04,10.62,22.3,10.6,4.76-.01,14.01.02,18.26-1.31ZM136.28,39.26c1.14-1.9,2.51-3.53,4.39-4.72,4.76-2.92,13.93-2.97,19.29-2.33,1.57.19,3.03.61,4.33,1.37,1.38.81,1.93,2.29,1.47,3.79-.36,1.16-1.06,2.09-2.03,2.83-2.64,2.02-7.16,3.11-10.48,3.58l-19.89,2.82c.73-2.76,1.62-5.09,2.92-7.35ZM60.09,62.16c-4.42.6-8.71.82-13.14.74-2.73.04-5.31-.09-8.08-.59-2.47-.51-5.97-1.71-5.42-4.74.66-3.63,4-5.26,7.38-5.83l23.48-3.15-4.23,13.58Z"/>
    <path class="cls-2" d="M150.87,89.9c-1.74,2.54-2.18,7.61.92,8.44,1.27.34,2.45-.02,3.5-.62.06-.14.14-.28.32-.37.17.34-.04.54-.1.72-.08,1.1-.53,2.14-1.45,2.64-1.43.77-3.1.17-4.12-1.07-.99.38-1.5,1.62-.85,2.48.77,1.01,1.98,1.22,3.18,1.32,3.81.33,5.77-2.31,6.35-5.78l1.56-9.4c-3.23-1.92-7.07-1.63-9.3,1.64ZM156.09,94.04c-.28,1.39-1.58,2.48-2.66,1.93-1.21-.61-.85-4.06.75-5.76.7-.75,1.7-.99,2.67-.53-.2,1.46-.46,2.89-.75,4.36Z"/>
    <path class="cls-2" d="M218.79,87.61c-1.48-.99-3.29-.49-4.66.57l.64-4.32c.11-.77-.23-1.53-1-1.73-.6-.16-1.21-.16-1.82.03l-2.67,16.04c1.05.11,2.04.05,3.12.04l1.05-6.58c.13-.85.68-1.67,1.46-1.94.48-.17,1.01-.12,1.33.16.27.24.43.79.35,1.27l-1.12,7.07c1.08.04,2.04.1,3.17-.02l1.22-7.57c.18-1.1-.15-2.4-1.08-3.01Z"/>
    <path class="cls-2" d="M103.21,90.35l-3.05-2.05c-.62-.42-.9-1.12-.75-1.86.12-.59.73-1.05,1.45-1.16,1.4-.22,2.43.52,3.46,1.38.67.06,1.27-.94,1.32-1.49.25-2.51-4.85-3.59-7.79-1.67-1.37.89-1.85,2.4-1.75,3.94.28,4.26,6.45,4.09,5.4,7.24-.18.55-.78,1.12-1.54,1.24-1.59.24-3.02-.38-4.16-1.52-.82.36-1.46,1.33-1.2,2.28.53,1.92,4.75,2.3,7.12,1.63,2.06-.58,3.19-2.32,3.25-4.32.05-1.53-.51-2.79-1.77-3.63Z"/>
    <path class="cls-2" d="M113.23,88.78l-2.61,6.04-.58-5.79c-.07-.66-.32-1.4-1-1.64-.75-.27-1.6-.12-2.35.22l1.62,10.29c.05.29.32.44.52.62-.11.7-.57,1.51-1.02,2.01-.91,1.03-1.89.16-2.72-.19-.84-.09-1.48,1.63-.71,2.28,1.07.9,2.41,1.01,3.8.64.96-.26,1.89-1.18,2.44-2.35l6.27-13.26c-1.46-.8-3.04-.33-3.67,1.14Z"/>
    <path class="cls-2" d="M168.25,88.8l-2.6,6.14-.61-6.08c-.06-.62-.37-1.29-.99-1.48-.77-.24-1.59-.11-2.33.23l1.67,10.44c.04.28.32.29.59.42-.28.72-.64,1.55-1.15,2.09-.95,1.01-1.9.07-2.74-.21-.82-.11-1.45,1.61-.71,2.24,1.09.92,2.41,1.02,3.8.66.99-.25,1.92-1.19,2.47-2.36l6.27-13.24c-1.46-.83-3.05-.32-3.67,1.15Z"/>
    <path class="cls-2" d="M126.3,87.58c-1.57-1.01-3.57-.46-4.82.8-.74-1.19-1.49-1.27-2.92-.91l-1.76,10.75h3.11s1.22-6.88,1.22-6.88c.14-.8.83-1.56,1.65-1.7.57-.1.98.06,1.18.36.13.19.31.59.25.95l-1.15,7.27,3.16-.02,1.14-7.59c.17-1.11-.12-2.43-1.07-3.04Z"/>
    <path class="cls-2" d="M195.57,93.48c1.95-.82,2.94-2.89,2.04-4.84-.33-.73-1.09-1.27-1.89-1.44-2.92-.65-5.77.92-6.86,3.69-.58,1.47-.75,2.97-.46,4.51.33,1.76,1.64,2.95,3.41,3.16,1.58.19,3.15-.03,4.44-.97.54-.39.87-1.06.73-1.6-.11-.41-.76-1.31-1.2-1-.86.6-1.42,1.25-2.44,1.28-1.21.04-2.24-.94-1.99-2.18,1.54.04,2.91-.03,4.22-.59ZM193.5,89.5c.51-.16,1.06-.14,1.36.22.25.3.35.93-.02,1.4-.79,1.01-2.16,1.21-3.31,1,.27-1.13.85-2.26,1.97-2.62Z"/>
    <path class="cls-2" d="M138.78,90.25c.07-1.37-.63-2.62-2.01-3-2.8-.77-5.73.67-6.92,3.32-.7,1.57-.9,3.21-.58,4.86.33,1.69,1.59,2.85,3.29,3.09,2.6.38,5.77-.84,5.27-2.6-.12-.41-.71-1.22-1.18-.95-.39.23-2.56,2.31-3.97.7-.37-.43-.7-1.02-.43-1.62,2.79.19,6.36-.61,6.52-3.81ZM134.38,89.49c.5-.16,1.05-.11,1.32.19.29.33.38.96.03,1.42-.78,1.03-2.12,1.22-3.32,1.04.23-1.14.84-2.29,1.98-2.65Z"/>
    <path class="cls-2" d="M190.23,82.94l-9.77-.06c-.74,0-1.53.13-1.91.68-.38.56-.61,1.33-.39,1.91l4.28.06-2.09,12.68c1.11.02,2.09.07,3.14-.02l2.09-12.71c1.3-.06,2.37.14,3.47-.13,1.01-.25,1.28-1.37,1.17-2.41Z"/>
    <path class="cls-2" d="M206.96,87.35c-2.74-.89-5.64.4-6.89,2.98-.76,1.57-.97,3.26-.71,4.96.3,1.96,1.84,3.2,3.81,3.3,1.49.08,2.96-.22,4-1.32.4-.43.53-1.1.28-1.62-.16-.33-.74-.92-1.14-.71-.66.42-1.01,1.14-2,1.21-.92.06-1.73-.41-1.88-1.32-.31-1.84.27-5.3,2.94-5.37.83-.02,1.12.67,1.72,1.21.5.26,1.53-.71,1.49-1.35-.07-.93-.74-1.69-1.63-1.98Z"/>
    <path class="cls-2" d="M148.74,87.67c-.93-1.11-3.21-.4-4.25.84-.55-1.76-2.85-1.21-2.89-.94l-1.78,10.66c1.1-.02,2.09.09,3.16-.05l1.09-6.52c.19-1.14,1.17-2.24,2.46-1.83.35.11.63.62.88,1.01.72-.13,1.53-.84,1.67-1.64.1-.59.02-1.11-.33-1.53Z"/>
  </g>
  <g>
    <path d="M116.63,70.1c1.49-.47,2.62-1.53,2.95-3.07l.71-3.3c3.94,6.18,13.44,7.51,20.25,7.6,5.21.07,10.28-.01,15.47-.24,2.46-.11,8.52-.15,9.39-2.88l1.82-5.73c.09-.28,0-.64-.14-.82-.12-.14-.44-.28-.75-.27l-12.28.57c-4.92.23-13.58.53-18.07-.81-3.08-.92-4.88-3.81-4.46-6.91l25.7-3.34c3.99-.52,7.68-1.54,11.29-3.12,3.14-1.31,5.58-3.29,8-5.8l-7.99,27.81c-.08.76.53,1.46,1.34,1.46h10.68c1.24.01,2.05-.67,2.38-1.82l8.67-30.19c.66-2.31,2.25-3.95,4.47-4.83,1.68-.66,3.44-1.05,5.31-1.04l14.57.11c.98,0,1.8-.56,2.09-1.47.51-1.61,1.25-3.09,1.66-4.75.35-1.44-.86-2.74-2.21-3.13-1.79-.52-3.57-.55-5.45-.59-3.7-.07-7.27-.2-10.95.1-8.67.71-17.02,3.53-21.78,11.37.62-5.57-2.99-8.21-7.63-9.74-6.3-2.02-16.01-2.15-22.53-1.45-11.19,1.2-20.9,5.93-26.47,16.03-3.19,5.89-5.96,14.97-3.62,21.5l-13.05.77c-3.99.24-10.13.02-13.71-1.73-1.68-.82-2.84-2.17-3.13-4.03-.58-3.7.82-8.89,2.28-12.3,3.6-8.41,11.62-11.21,20.25-11.33,4.26-.06,8.38.21,12.62.6.85.08,1.53-.58,1.43-1.43l-.56-4.42c-.38-2.97-3.36-3.64-5.86-3.79-4.46-.28-8.78-.35-13.22.14-10.47,1.17-19.48,5.17-25.33,14.36.2-2.2.39-4.11-.25-6.11-2.77-8.71-16.99-8.71-24.37-8.61-4.08.06-15.38.12-18.77,1.21-1.51.49-2.89,1.44-3.39,2.96l-1.51,4.58c-.1.31-.04.61.09.79.16.21.47.38.84.35,7.07-.62,14.02-1.27,21.13-1.45,4.02-.1,14.42-.13,13.04,6.2-.31,1.43-1.13,2.26-2.58,2.48l-22.41,3.34c-6.11.91-13.13,2.68-17.94,6.64-3.17,2.61-5.02,6.36-4.92,10.49.17,7.8,10.95,9.66,16.96,10.03,9.9.62,19.74.12,29.55-1.36,2.47-.37,5-1.17,5.78-3.67l3.31-10.55c.07,1.86.19,3.53.71,5.26,2.81,9.24,14.04,10.62,22.3,10.6,4.76-.01,14.01.02,18.26-1.31ZM136.28,39.26c1.14-1.9,2.51-3.53,4.39-4.72,4.76-2.92,13.93-2.97,19.29-2.33,1.57.19,3.03.61,4.33,1.37,1.38.81,1.93,2.29,1.47,3.79-.36,1.16-1.06,2.09-2.03,2.83-2.64,2.02-7.16,3.11-10.48,3.58l-19.89,2.82c.73-2.76,1.62-5.09,2.92-7.35ZM60.09,62.16c-4.42.6-8.71.82-13.14.74-2.73.04-5.31-.09-8.08-.59-2.47-.51-5.97-1.71-5.42-4.74.66-3.63,4-5.26,7.38-5.83l23.48-3.15-4.23,13.58Z"/>
    <path d="M150.87,89.9c-1.74,2.54-2.18,7.61.92,8.44,1.27.34,2.45-.02,3.5-.62.06-.14.14-.28.32-.37.17.34-.04.54-.1.72-.08,1.1-.53,2.14-1.45,2.64-1.43.77-3.1.17-4.12-1.07-.99.38-1.5,1.62-.85,2.48.77,1.01,1.98,1.22,3.18,1.32,3.81.33,5.77-2.31,6.35-5.78l1.56-9.4c-3.23-1.92-7.07-1.63-9.3,1.64ZM156.09,94.04c-.28,1.39-1.58,2.48-2.66,1.93-1.21-.61-.85-4.06.75-5.76.7-.75,1.7-.99,2.67-.53-.2,1.46-.46,2.89-.75,4.36Z"/>
    <path d="M218.79,87.61c-1.48-.99-3.29-.49-4.66.57l.64-4.32c.11-.77-.23-1.53-1-1.73-.6-.16-1.21-.16-1.82.03l-2.67,16.04c1.05.11,2.04.05,3.12.04l1.05-6.58c.13-.85.68-1.67,1.46-1.94.48-.17,1.01-.12,1.33.16.27.24.43.79.35,1.27l-1.12,7.07c1.08.04,2.04.1,3.17-.02l1.22-7.57c.18-1.1-.15-2.4-1.08-3.01Z"/>
    <path d="M103.21,90.35l-3.05-2.05c-.62-.42-.9-1.12-.75-1.86.12-.59.73-1.05,1.45-1.16,1.4-.22,2.43.52,3.46,1.38.67.06,1.27-.94,1.32-1.49.25-2.51-4.85-3.59-7.79-1.67-1.37.89-1.85,2.4-1.75,3.94.28,4.26,6.45,4.09,5.4,7.24-.18.55-.78,1.12-1.54,1.24-1.59.24-3.02-.38-4.16-1.52-.82.36-1.46,1.33-1.2,2.28.53,1.92,4.75,2.3,7.12,1.63,2.06-.58,3.19-2.32,3.25-4.32.05-1.53-.51-2.79-1.77-3.63Z"/>
    <path d="M113.23,88.78l-2.61,6.04-.58-5.79c-.07-.66-.32-1.4-1-1.64-.75-.27-1.6-.12-2.35.22l1.62,10.29c.05.29.32.44.52.62-.11.7-.57,1.51-1.02,2.01-.91,1.03-1.89.16-2.72-.19-.84-.09-1.48,1.63-.71,2.28,1.07.9,2.41,1.01,3.8.64.96-.26,1.89-1.18,2.44-2.35l6.27-13.26c-1.46-.8-3.04-.33-3.67,1.14Z"/>
    <path d="M168.25,88.8l-2.6,6.14-.61-6.08c-.06-.62-.37-1.29-.99-1.48-.77-.24-1.59-.11-2.33.23l1.67,10.44c.04.28.32.29.59.42-.28.72-.64,1.55-1.15,2.09-.95,1.01-1.9.07-2.74-.21-.82-.11-1.45,1.61-.71,2.24,1.09.92,2.41,1.02,3.8.66.99-.25,1.92-1.19,2.47-2.36l6.27-13.24c-1.46-.83-3.05-.32-3.67,1.15Z"/>
    <path d="M126.3,87.58c-1.57-1.01-3.57-.46-4.82.8-.74-1.19-1.49-1.27-2.92-.91l-1.76,10.75h3.11s1.22-6.88,1.22-6.88c.14-.8.83-1.56,1.65-1.7.57-.1.98.06,1.18.36.13.19.31.59.25.95l-1.15,7.27,3.16-.02,1.14-7.59c.17-1.11-.12-2.43-1.07-3.04Z"/>
    <path d="M195.57,93.48c1.95-.82,2.94-2.89,2.04-4.84-.33-.73-1.09-1.27-1.89-1.44-2.92-.65-5.77.92-6.86,3.69-.58,1.47-.75,2.97-.46,4.51.33,1.76,1.64,2.95,3.41,3.16,1.58.19,3.15-.03,4.44-.97.54-.39.87-1.06.73-1.6-.11-.41-.76-1.31-1.2-1-.86.6-1.42,1.25-2.44,1.28-1.21.04-2.24-.94-1.99-2.18,1.54.04,2.91-.03,4.22-.59ZM193.5,89.5c.51-.16,1.06-.14,1.36.22.25.3.35.93-.02,1.4-.79,1.01-2.16,1.21-3.31,1,.27-1.13.85-2.26,1.97-2.62Z"/>
    <path d="M138.78,90.25c.07-1.37-.63-2.62-2.01-3-2.8-.77-5.73.67-6.92,3.32-.7,1.57-.9,3.21-.58,4.86.33,1.69,1.59,2.85,3.29,3.09,2.6.38,5.77-.84,5.27-2.6-.12-.41-.71-1.22-1.18-.95-.39.23-2.56,2.31-3.97.7-.37-.43-.7-1.02-.43-1.62,2.79.19,6.36-.61,6.52-3.81ZM134.38,89.49c.5-.16,1.05-.11,1.32.19.29.33.38.96.03,1.42-.78,1.03-2.12,1.22-3.32,1.04.23-1.14.84-2.29,1.98-2.65Z"/>
    <path d="M190.23,82.94l-9.77-.06c-.74,0-1.53.13-1.91.68-.38.56-.61,1.33-.39,1.91l4.28.06-2.09,12.68c1.11.02,2.09.07,3.14-.02l2.09-12.71c1.3-.06,2.37.14,3.47-.13,1.01-.25,1.28-1.37,1.17-2.41Z"/>
    <path d="M206.96,87.35c-2.74-.89-5.64.4-6.89,2.98-.76,1.57-.97,3.26-.71,4.96.3,1.96,1.84,3.2,3.81,3.3,1.49.08,2.96-.22,4-1.32.4-.43.53-1.1.28-1.62-.16-.33-.74-.92-1.14-.71-.66.42-1.01,1.14-2,1.21-.92.06-1.73-.41-1.88-1.32-.31-1.84.27-5.3,2.94-5.37.83-.02,1.12.67,1.72,1.21.5.26,1.53-.71,1.49-1.35-.07-.93-.74-1.69-1.63-1.98Z"/>
    <path d="M148.74,87.67c-.93-1.11-3.21-.4-4.25.84-.55-1.76-2.85-1.21-2.89-.94l-1.78,10.66c1.1-.02,2.09.09,3.16-.05l1.09-6.52c.19-1.14,1.17-2.24,2.46-1.83.35.11.63.62.88,1.01.72-.13,1.53-.84,1.67-1.64.1-.59.02-1.11-.33-1.53Z"/>
  </g>
</svg>