<?xml version="1.0" encoding="UTF-8"?>
<svg id="_圖層_1" data-name="圖層 1" xmlns="http://www.w3.org/2000/svg" viewBox="0 0 365.76 120">
  <g id="_群組_20250905" data-name="&amp;lt;群組&amp;gt;20250905">
    <g>
      <path d="M37.35,93.61c-.19.06-.42.12-.7.16-.28.04-.56.06-.86.06-.66,0-1.23-.13-1.72-.4-.49-.26-.77-.74-.86-1.41-.53.53-1.17.98-1.91,1.35s-1.72.56-2.93.56c-.55,0-1.11-.06-1.67-.19-.56-.13-1.07-.36-1.53-.7-.46-.34-.83-.8-1.13-1.37-.3-.57-.45-1.3-.45-2.19,0-1.1.28-2,.84-2.7s1.26-1.25,2.08-1.65,1.71-.68,2.66-.83c.94-.15,1.81-.23,2.59-.25h.67c.25,0,.48.01.67.03v-.48c0-.96-.23-1.7-.68-2.2-.46-.5-1.33-.75-2.62-.75-.95,0-1.76.12-2.42.37-.66.24-1.29.58-1.91,1h-.32c-.17-.28-.31-.57-.43-.89-.12-.32-.17-.57-.17-.76,0-.27.17-.53.51-.77.34-.24.78-.45,1.32-.64.54-.19,1.14-.33,1.8-.44.66-.1,1.3-.16,1.94-.16,1.08,0,1.98.12,2.7.35.72.23,1.3.58,1.75,1.05.44.47.76,1.05.94,1.75.18.7.27,1.51.27,2.42v6.26c0,.51.02.91.06,1.19s.12.5.24.64c.12.14.27.23.48.27.2.04.46.06.78.06v1.27ZM33.16,86.11h-.92c-.68,0-1.37.04-2.07.13-.7.09-1.34.24-1.91.48-.57.23-1.04.56-1.4.99-.36.42-.54.96-.54,1.62s.19,1.2.57,1.69c.38.49,1.09.73,2.13.73.55,0,1.08-.08,1.57-.24.5-.16.94-.35,1.32-.59.38-.23.68-.49.91-.76.22-.28.33-.54.33-.8v-3.24Z"/>
      <path d="M53.22,93.64h-2.7v-8.93c0-.4,0-.79-.02-1.16-.01-.37-.07-.72-.17-1.03-.17-.55-.48-.97-.94-1.27-.46-.3-1.14-.45-2.05-.45-.61,0-1.17.06-1.65.19-.49.13-.9.3-1.24.51-.34.21-.6.46-.79.73-.19.28-.29.55-.29.83v10.59h-2.7v-15.01c.15-.02.26-.03.35-.03h.19c.49,0,.93.12,1.32.37.39.24.63.66.72,1.26.49-.49,1.15-.92,1.99-1.3.84-.38,1.83-.57,2.97-.57,1.44,0,2.54.32,3.31.95.76.64,1.26,1.43,1.49,2.39.11.42.17.9.19,1.41.02.52.03,1.02.03,1.51v9.03Z"/>
      <path d="M81.1,93.64h-2.89l-2.13-5.72h-8.58l-2.07,5.72h-2.8l7.69-21.08c.15-.06.37-.13.67-.19.3-.06.59-.1.89-.1.4,0,.77.09,1.1.27.33.18.59.52.78,1.03l7.34,20.06ZM75.35,85.63l-3.56-10.14-3.59,10.14h7.15Z"/>
      <path d="M94.08,82.45c-.36-.42-.83-.82-1.4-1.19-.57-.37-1.35-.56-2.32-.56-.8,0-1.49.14-2.07.41-.57.28-1.04.66-1.41,1.16-.37.5-.64,1.08-.81,1.75-.17.67-.25,1.38-.25,2.15s.08,1.52.25,2.21c.17.69.44,1.29.81,1.8.37.51.85.91,1.45,1.21.59.3,1.3.44,2.13.44.57,0,1.09-.09,1.54-.27.46-.18.84-.39,1.16-.62.42-.28.76-.57,1.02-.89.08.09.18.2.3.33s.23.29.35.45c.12.16.21.32.29.49s.11.33.11.48c0,.3-.22.64-.67,1.02-.4.36-.98.67-1.73.92-.75.25-1.67.38-2.75.38-.68,0-1.43-.1-2.24-.29-.82-.19-1.58-.57-2.29-1.14-.71-.57-1.31-1.37-1.8-2.4-.49-1.03-.73-2.39-.73-4.09,0-1.57.25-2.86.76-3.88.51-1.02,1.13-1.82,1.88-2.4.74-.58,1.53-.99,2.37-1.22.84-.23,1.57-.35,2.21-.35.76,0,1.45.08,2.05.24.6.16,1.12.36,1.56.6.43.24.77.5,1,.78.23.28.35.54.35.8s-.08.54-.25.86c-.17.32-.34.59-.51.83h-.35Z"/>
      <path d="M100.05,86.68c.06,1.55.47,2.79,1.22,3.74.75.94,1.91,1.41,3.48,1.41.59,0,1.12-.06,1.59-.19.47-.13.87-.28,1.21-.46s.62-.38.84-.59.41-.4.56-.57c.23.3.44.62.62.95.18.34.27.6.27.79,0,.17-.05.35-.16.52-.11.18-.29.37-.54.56-.49.36-1.11.66-1.88.91-.76.24-1.69.37-2.77.37-1,0-1.93-.14-2.81-.43-.88-.29-1.65-.75-2.31-1.38-.66-.64-1.18-1.47-1.56-2.5-.38-1.03-.57-2.28-.57-3.77,0-1.34.2-2.49.59-3.47.39-.97.91-1.77,1.54-2.4.64-.62,1.36-1.09,2.18-1.38.82-.3,1.66-.45,2.53-.45,1.08,0,2.01.18,2.78.54.77.36,1.4.84,1.89,1.45s.85,1.3,1.08,2.1c.23.8.35,1.62.35,2.46,0,.3,0,.6-.02.91-.01.31-.04.6-.08.87h-10.05ZM107.49,84.65c0-.57-.06-1.1-.17-1.59-.12-.49-.31-.92-.59-1.29-.28-.37-.64-.66-1.1-.87-.46-.21-1.01-.32-1.67-.32-1.1,0-2.01.36-2.72,1.08s-1.11,1.72-1.19,2.99h7.44Z"/>
      <path d="M116.62,93.64h-2.7v-15.01c.17-.02.3-.03.4-.03h.18c.49,0,.93.12,1.32.37.39.24.63.65.72,1.22.3-.45.74-.86,1.34-1.26.59-.39,1.28-.59,2.07-.59.23,0,.48.02.75.06.26.04.51.11.75.21.23.1.42.23.57.4.15.17.22.39.22.67,0,.34-.08.71-.25,1.1-.17.39-.34.72-.51.97-.28-.25-.57-.45-.89-.59-.32-.14-.72-.21-1.21-.21-.36,0-.7.06-1.03.17s-.62.28-.87.48c-.25.2-.46.43-.6.68-.15.25-.22.52-.22.79v10.56Z"/>
      <path d="M146.79,91.51c-.15.19-.42.43-.81.72s-.9.57-1.53.86-1.36.53-2.21.73c-.85.2-1.79.3-2.83.3-1.63,0-3.04-.28-4.23-.83s-2.17-1.32-2.94-2.32c-.77-1-1.35-2.18-1.72-3.55-.37-1.37-.56-2.87-.56-4.5s.19-3.06.57-4.4c.38-1.35.96-2.5,1.75-3.47.78-.96,1.79-1.72,3-2.27,1.22-.55,2.65-.83,4.31-.83.76,0,1.51.09,2.26.27.74.18,1.4.41,1.97.7.57.29,1.04.6,1.4.95s.54.68.54,1c0,.25-.08.54-.25.86-.17.32-.36.6-.57.86h-.54c-.19-.23-.44-.48-.75-.75-.31-.26-.67-.5-1.1-.72-.42-.21-.9-.39-1.43-.52-.53-.14-1.1-.21-1.72-.21-1.29,0-2.36.24-3.21.73-.85.49-1.53,1.13-2.03,1.93-.51.8-.86,1.7-1.06,2.72s-.3,2.07-.3,3.15.11,2.22.33,3.28c.22,1.06.6,2.01,1.14,2.84.54.83,1.25,1.5,2.13,2.01.88.51,1.98.76,3.29.76.59,0,1.14-.05,1.64-.16.5-.11.94-.23,1.32-.38.38-.15.69-.3.94-.46.24-.16.43-.3.56-.43v-5.62h-4.45v-2.29h7.09v9.02Z"/>
      <path d="M153.79,93.64h-2.7v-15.01c.17-.02.3-.03.4-.03h.18c.49,0,.93.12,1.32.37.39.24.63.65.72,1.22.3-.45.74-.86,1.34-1.26.59-.39,1.28-.59,2.07-.59.23,0,.48.02.75.06.26.04.51.11.75.21.23.1.42.23.57.4.15.17.22.39.22.67,0,.34-.08.71-.25,1.1-.17.39-.34.72-.51.97-.28-.25-.57-.45-.89-.59-.32-.14-.72-.21-1.21-.21-.36,0-.7.06-1.03.17s-.62.28-.87.48c-.25.2-.46.43-.6.68-.15.25-.22.52-.22.79v10.56Z"/>
      <path d="M167.49,94.12c-1.25,0-2.32-.21-3.21-.64-.89-.42-1.61-.99-2.16-1.7-.55-.71-.95-1.55-1.21-2.51-.25-.96-.38-1.99-.38-3.07s.15-2.07.44-3.02.74-1.79,1.34-2.5c.59-.71,1.33-1.28,2.21-1.7.88-.42,1.91-.64,3.1-.64s2.28.21,3.16.64c.88.42,1.59.99,2.15,1.7.55.71.95,1.53,1.21,2.46.25.93.38,1.92.38,2.96s-.13,2.04-.38,3c-.25.96-.66,1.82-1.22,2.56-.56.74-1.29,1.34-2.18,1.78-.89.44-1.97.67-3.24.67ZM167.49,91.83c.85,0,1.55-.17,2.1-.52s.98-.79,1.27-1.34c.3-.54.5-1.15.62-1.83.12-.68.18-1.35.18-2s-.06-1.31-.18-1.96c-.12-.65-.32-1.23-.62-1.75-.3-.52-.71-.94-1.24-1.26-.53-.32-1.22-.48-2.07-.48s-1.48.16-2.02.48c-.54.32-.97.74-1.29,1.26-.32.52-.55,1.1-.68,1.75-.14.65-.21,1.3-.21,1.96s.06,1.32.18,1.99c.12.67.33,1.28.65,1.83.32.55.74,1,1.27,1.35.53.35,1.21.52,2.03.52Z"/>
      <path d="M190.77,93.64h-2.7v-1.4c-.42.49-1.02.92-1.78,1.3s-1.75.57-2.96.57-2.18-.19-2.86-.57c-.68-.38-1.18-.87-1.51-1.46-.33-.59-.52-1.24-.59-1.96-.06-.71-.1-1.39-.1-2.05v-9.54c.15-.02.27-.03.37-.03h.21c.64,0,1.15.16,1.54.48.39.32.59.88.59,1.69v7.41c0,.83.06,1.48.18,1.97.12.49.35.86.72,1.11.32.23.66.39,1.03.48.37.09.8.13,1.29.13.57,0,1.1-.08,1.57-.24.48-.16.89-.35,1.22-.59.34-.23.6-.48.79-.75.19-.26.29-.5.29-.72v-10.94c.15-.02.27-.03.37-.03h.21c.64,0,1.15.16,1.54.48.39.32.59.88.59,1.69v12.97Z"/>
      <path d="M198.17,100.51h-2.7v-21.88c.17-.02.3-.03.4-.03h.21c.51,0,.95.12,1.32.35.37.23.62.63.75,1.18.4-.49.96-.91,1.69-1.26s1.62-.52,2.7-.52c.83,0,1.61.14,2.34.41.73.28,1.38.72,1.94,1.32.56.6,1.01,1.39,1.34,2.35.33.96.49,2.15.49,3.55,0,1.59-.2,2.91-.59,3.96-.39,1.05-.9,1.88-1.53,2.5-.63.62-1.32,1.05-2.08,1.3-.76.25-1.51.38-2.23.38-1.14,0-2.05-.19-2.7-.58-.66-.39-1.1-.74-1.34-1.05v8.02ZM198.17,90.08c.13.17.3.36.51.56.21.2.47.39.78.56.31.17.66.32,1.05.45.39.13.81.19,1.26.19,1.34,0,2.33-.48,2.99-1.45.66-.97.99-2.38.99-4.22,0-.76-.07-1.49-.21-2.17-.14-.68-.36-1.26-.67-1.75-.31-.49-.72-.88-1.24-1.16-.52-.29-1.16-.43-1.92-.43-1.02,0-1.86.21-2.53.64-.67.42-1,.93-1,1.53v7.27Z"/>
      <path d="M232.9,76.66c-.23-.25-.5-.52-.81-.8-.31-.28-.66-.52-1.06-.73-.4-.21-.85-.39-1.35-.52-.5-.14-1.07-.21-1.7-.21-1.27,0-2.33.25-3.16.75s-1.51,1.16-2,1.97c-.5.82-.85,1.74-1.07,2.77-.21,1.03-.32,2.08-.32,3.16s.11,2.17.33,3.21c.22,1.04.6,1.97,1.13,2.78.53.82,1.23,1.47,2.1,1.96.87.49,1.95.73,3.24.73.7,0,1.34-.1,1.91-.3s1.07-.44,1.5-.72c.42-.28.77-.54,1.03-.79.27-.25.45-.45.56-.57.23.19.48.46.75.81s.4.65.4.91c0,.34-.15.66-.45.95-.11.11-.31.28-.6.51-.3.23-.69.47-1.18.7-.49.23-1.08.44-1.78.62-.7.18-1.5.27-2.42.27-1.63,0-3.04-.28-4.23-.83-1.19-.55-2.16-1.31-2.93-2.29s-1.32-2.14-1.69-3.5c-.36-1.36-.54-2.83-.54-4.42s.18-3.07.56-4.44c.37-1.37.94-2.54,1.72-3.53s1.75-1.76,2.93-2.32,2.58-.84,4.21-.84c.83,0,1.62.1,2.38.29.76.19,1.44.43,2.02.73s1.05.63,1.4.99c.35.36.53.7.53,1.02,0,.28-.09.57-.27.87-.18.31-.37.58-.56.81h-.57Z"/>
      <path d="M243.26,94.12c-1.25,0-2.32-.21-3.21-.64-.89-.42-1.61-.99-2.16-1.7-.55-.71-.95-1.55-1.21-2.51-.25-.96-.38-1.99-.38-3.07s.15-2.07.44-3.02c.3-.95.74-1.79,1.34-2.5.59-.71,1.33-1.28,2.21-1.7.88-.42,1.91-.64,3.1-.64s2.28.21,3.16.64c.88.42,1.59.99,2.15,1.7.55.71.95,1.53,1.21,2.46.25.93.38,1.92.38,2.96s-.13,2.04-.38,3-.66,1.82-1.22,2.56c-.56.74-1.29,1.34-2.18,1.78s-1.97.67-3.24.67ZM243.26,91.83c.85,0,1.55-.17,2.1-.52s.98-.79,1.27-1.34c.3-.54.5-1.15.62-1.83.12-.68.17-1.35.17-2s-.06-1.31-.17-1.96c-.12-.65-.32-1.23-.62-1.75s-.71-.94-1.24-1.26c-.53-.32-1.22-.48-2.07-.48s-1.48.16-2.02.48-.97.74-1.29,1.26c-.32.52-.55,1.1-.68,1.75-.14.65-.21,1.3-.21,1.96s.06,1.32.17,1.99c.12.67.33,1.28.65,1.83.32.55.74,1,1.27,1.35.53.35,1.21.52,2.03.52Z"/>
      <path d="M275.44,93.64h-2.7v-8.93c0-.4,0-.79-.02-1.16-.01-.37-.07-.72-.18-1.03-.15-.55-.44-.97-.89-1.27-.45-.3-1.15-.45-2.1-.45-.7,0-1.35.15-1.96.45-.6.3-1.06.63-1.35.99.04.36.07.74.1,1.13.02.39.03.8.03,1.22v9.06h-2.7v-8.93c0-.45-.02-.86-.06-1.26-.04-.39-.12-.75-.22-1.07-.36-1.06-1.32-1.59-2.86-1.59-.47,0-.92.06-1.35.19-.43.13-.82.3-1.16.51-.34.21-.61.45-.83.72-.21.27-.32.52-.32.78v10.65h-2.7v-15.01c.17-.02.3-.03.4-.03h.21c.55,0,1,.13,1.35.4.35.27.57.67.65,1.22.49-.51,1.13-.95,1.92-1.32.79-.37,1.73-.56,2.81-.56.38,0,.77.04,1.18.11.4.07.79.19,1.18.35.38.16.73.37,1.05.62.32.25.57.55.76.89.49-.53,1.15-.99,1.99-1.38.84-.39,1.8-.59,2.88-.59,1.4,0,2.47.32,3.23.95.75.64,1.23,1.43,1.45,2.39.11.42.17.9.19,1.41s.03,1.02.03,1.51v9.03Z"/>
      <path d="M282.85,100.51h-2.7v-21.88c.17-.02.3-.03.4-.03h.21c.51,0,.95.12,1.32.35.37.23.62.63.75,1.18.4-.49.96-.91,1.69-1.26.72-.35,1.62-.52,2.7-.52.83,0,1.61.14,2.34.41.73.28,1.38.72,1.94,1.32.56.6,1.01,1.39,1.34,2.35.33.96.49,2.15.49,3.55,0,1.59-.2,2.91-.59,3.96-.39,1.05-.9,1.88-1.53,2.5-.63.62-1.32,1.05-2.08,1.3-.76.25-1.5.38-2.22.38-1.15,0-2.05-.19-2.7-.58-.66-.39-1.1-.74-1.34-1.05v8.02ZM282.85,90.08c.13.17.3.36.51.56s.47.39.78.56c.31.17.66.32,1.05.45s.81.19,1.26.19c1.34,0,2.33-.48,2.99-1.45.66-.97.99-2.38.99-4.22,0-.76-.07-1.49-.21-2.17-.14-.68-.36-1.26-.67-1.75-.31-.49-.72-.88-1.24-1.16-.52-.29-1.16-.43-1.92-.43-1.02,0-1.86.21-2.53.64-.67.42-1,.93-1,1.53v7.27Z"/>
      <path d="M310,93.61c-.19.06-.42.12-.7.16-.28.04-.56.06-.86.06-.66,0-1.23-.13-1.72-.4s-.77-.74-.86-1.41c-.53.53-1.17.98-1.91,1.35-.74.37-1.72.56-2.93.56-.55,0-1.11-.06-1.67-.19-.56-.13-1.07-.36-1.53-.7-.46-.34-.83-.8-1.13-1.37-.3-.57-.45-1.3-.45-2.19,0-1.1.28-2,.84-2.7s1.26-1.25,2.08-1.65,1.71-.68,2.66-.83c.94-.15,1.81-.23,2.59-.25h.67c.25,0,.48.01.67.03v-.48c0-.96-.23-1.7-.68-2.2-.46-.5-1.33-.75-2.62-.75-.95,0-1.76.12-2.42.37-.66.24-1.29.58-1.91,1h-.32c-.17-.28-.31-.57-.43-.89s-.17-.57-.17-.76c0-.27.17-.53.51-.77.34-.24.78-.45,1.32-.64.54-.19,1.14-.33,1.8-.44.66-.1,1.3-.16,1.94-.16,1.08,0,1.98.12,2.7.35.72.23,1.3.58,1.75,1.05.44.47.76,1.05.94,1.75.18.7.27,1.51.27,2.42v6.26c0,.51.02.91.06,1.19.04.29.12.5.24.64.12.14.28.23.48.27.2.04.46.06.78.06v1.27ZM305.8,86.11h-.92c-.68,0-1.37.04-2.07.13-.7.09-1.34.24-1.91.48-.57.23-1.04.56-1.4.99-.36.42-.54.96-.54,1.62s.19,1.2.57,1.69c.38.49,1.09.73,2.13.73.55,0,1.08-.08,1.57-.24.5-.16.94-.35,1.32-.59.38-.23.68-.49.91-.76.22-.28.33-.54.33-.8v-3.24Z"/>
      <path d="M325.87,93.64h-2.7v-8.93c0-.4,0-.79-.02-1.16-.01-.37-.07-.72-.17-1.03-.17-.55-.48-.97-.94-1.27-.46-.3-1.14-.45-2.05-.45-.61,0-1.17.06-1.65.19-.49.13-.9.3-1.24.51-.34.21-.6.46-.8.73-.19.28-.29.55-.29.83v10.59h-2.7v-15.01c.15-.02.26-.03.35-.03h.19c.49,0,.93.12,1.32.37.39.24.63.66.72,1.26.49-.49,1.15-.92,1.99-1.3.84-.38,1.83-.57,2.97-.57,1.44,0,2.54.32,3.31.95.76.64,1.26,1.43,1.5,2.39.11.42.17.9.19,1.41.02.52.03,1.02.03,1.51v9.03Z"/>
      <path d="M336.36,95.71c-.23.68-.49,1.32-.76,1.94s-.61,1.15-1.02,1.61c-.4.46-.9.82-1.48,1.1-.58.28-1.29.41-2.12.41s-1.48-.12-2.02-.35c-.54-.23-.81-.59-.81-1.08,0-.3.08-.6.24-.92.16-.32.32-.59.49-.83.17.15.43.32.78.52.35.2.79.3,1.32.3.74,0,1.34-.28,1.8-.83.46-.55.86-1.4,1.22-2.54l.44-1.43h-1.08l-5.15-14.75c.47-.17.93-.25,1.4-.25.55,0,1,.17,1.34.51.34.34.59.77.76,1.3l3.5,10.84,3.5-10.56c.06-.23.15-.47.25-.72.11-.24.25-.47.43-.68.18-.21.4-.38.65-.51.25-.13.56-.19.92-.19.42,0,.82.1,1.18.29l-5.79,16.82Z"/>
    </g>
    <g>
      <path d="M113.8,21.82h-10.11v21.22c0,6.33,5.13,11.47,11.47,11.47h38.68v-7.76h-36.47c-1.97,0-3.57-1.6-3.57-3.57v-21.36Z"/>
      <path d="M178.16,33.28v21.22h9.46v-21.5c0-1.97,1.6-3.57,3.57-3.57h20.91v-7.62h-22.48c-6.33,0-11.47,5.13-11.47,11.47Z"/>
      <path d="M219.69,33.35v9.69c0,6.33,5.13,11.47,11.47,11.47h35.14c6.33,0,11.47-5.13,11.47-11.47v-9.75c0-6.33-5.13-11.47-11.47-11.47h-35.08c-6.36,0-11.52,5.16-11.52,11.52ZM264.98,47.5h-32.51c-2.11,0-3.82-1.71-3.82-3.82v-11.05c0-2.11,1.71-3.82,3.82-3.82h32.51c2.11,0,3.82,1.71,3.82,3.82v11.05c0,2.11-1.71,3.82-3.82,3.82Z"/>
      <path d="M298.12,28.39h42.05v-7.15h-44.03c-5.51,0-9.98,4.47-9.98,9.98s4.47,9.98,9.98,9.98h18.02v-.03h16.04c1.87,0,3.38,1.51,3.38,3.38s-1.51,3.38-3.38,3.38h-41.83v7.15h43.81c5.51,0,9.98-4.47,9.98-9.98s-4.47-9.98-9.98-9.98h-18.02v.03h-16.04c-1.87,0-3.38-1.52-3.38-3.38s1.51-3.38,3.38-3.38Z"/>
      <path d="M67.12,32.72l18.86,21.81h12.11l-22.41-25.91c-7.82-9.04-21.84-9.04-29.66,0l-22.41,25.91h12.11l18.86-21.81c3.3-3.82,9.22-3.82,12.53,0Z"/>
      <path d="M177.74,21.82h-26.53v7.62h22.55c.28,0,.52-.19.59-.46.69-2.48,1.95-4.71,3.66-6.54.23-.24.07-.63-.26-.63Z"/>
    </g>
  </g>
</svg>