<?xml version="1.0" encoding="UTF-8"?>
<svg id="_圖層_1" data-name="圖層 1" xmlns="http://www.w3.org/2000/svg" viewBox="0 0 394.71 120">
  <path d="M42.36,28.67h28.48c5.36,0,9.4.64,12.12,1.91,2.72,1.27,4.8,3.15,6.22,5.64,1.43,2.49,2.14,5.55,2.14,9.16,0,4.7-1.27,8.89-3.81,12.55-2.55,3.66-5.74,6.29-9.59,7.89-3.85,1.6-9.18,2.39-16,2.39h-8.56l-5,23.12h-19.55l13.56-62.66ZM56.05,55.76h6.53c3.05,0,5.54-.89,7.49-2.67,1.95-1.78,2.93-3.9,2.93-6.37,0-3.73-2.05-5.6-6.14-5.6h-7.64l-3.17,14.64Z"/>
  <path d="M157.2,28.67l-13.51,62.66h-19.46l5.48-25.44h-20.93l-5.41,25.44h-19.63l13.47-62.66h19.49l-4.71,22.16h20.84l4.92-22.16h19.46Z"/>
  <path d="M181.97,28.67l-13.42,62.66h-19.63l13.42-62.66h19.63Z"/>
  <path d="M235.56,46.02l-18.2.98c-.4-5.38-3.41-8.07-9.03-8.07-2.29,0-4.05.49-5.28,1.48-1.23.98-1.84,2.15-1.84,3.52,0,1,.5,1.94,1.49,2.84.99.9,3.35,2.04,7.07,3.44,4.71,1.83,8.54,3.55,11.5,5.17,2.95,1.62,5.36,3.74,7.23,6.32,1.87,2.59,2.81,5.83,2.81,9.7,0,3.65-1.02,7.04-3.05,10.19-2.04,3.15-4.97,5.74-8.8,7.78-3.83,2.03-9.27,3.06-16.33,3.06-9.93,0-16.98-1.91-21.13-5.73-4.16-3.82-6.23-8.72-6.23-14.7v-1.46l18.2-1.24c0,3.9.86,6.65,2.58,8.26,1.72,1.61,4.1,2.41,7.15,2.41s5.41-.67,7.02-2c1.61-1.34,2.41-2.86,2.41-4.57,0-1.28-.51-2.46-1.53-3.54-1.02-1.08-3.54-2.35-7.54-3.8-9.17-3.31-14.96-6.36-17.39-9.16-2.43-2.8-3.64-6.17-3.64-10.1,0-3.6,1-6.88,3.01-9.85,2.01-2.97,4.92-5.27,8.75-6.91,3.83-1.64,8.42-2.47,13.77-2.47,16.92,0,25.93,6.15,27.01,18.45Z"/>
  <path d="M270.13,27.57c9.55,0,16.56,2.56,21.04,7.68,4.47,5.12,6.71,11.41,6.71,18.89,0,2.88-.41,6.17-1.24,9.86-.83,3.69-2.43,7.51-4.79,11.46-2.36,3.95-5.44,7.3-9.21,10.05-3.78,2.75-7.4,4.59-10.88,5.52-3.47.93-7.17,1.39-11.07,1.39-8.95,0-15.93-2.26-20.95-6.8-5.02-4.54-7.52-10.9-7.52-19.08,0-4.28.62-8.45,1.86-12.51,1.24-4.06,3.09-7.9,5.56-11.51,2.47-3.61,5.5-6.63,9.11-9.07,3.6-2.44,7.15-4.03,10.64-4.77,3.49-.74,7.08-1.12,10.76-1.12ZM261.86,78.2c3.73,0,6.9-1.42,9.5-4.25,2.61-2.83,4.51-6.4,5.7-10.71,1.19-4.3,1.8-7.37,1.8-9.21,0-4.03-1.02-7.08-3.06-9.14-2.03-2.06-4.63-3.09-7.79-3.09-3.53,0-6.57,1.3-9.13,3.89-2.55,2.59-4.46,6.03-5.74,10.34-1.28,4.3-1.92,7.98-1.92,11.01,0,3.21.93,5.87,2.82,7.98,1.88,2.11,4.48,3.17,7.82,3.17Z"/>
  <path d="M365.9,28.67l-13.51,62.66h-18.23l-15.39-36.37h-.17l-7.82,36.37h-18.19l13.47-62.66h18.12l15.44,36.5h.17l7.87-36.5h18.24Z"/>
</svg>