<?xml version="1.0" encoding="UTF-8"?>
<svg id="_圖層_1" data-name="圖層 1" xmlns="http://www.w3.org/2000/svg" viewBox="0 0 164.47 120">
  <g>
    <polygon points="30.55 93.77 23.13 93.77 23.13 96.72 29.95 96.72 29.95 99.19 23.13 99.19 23.13 102.81 30.89 102.81 30.89 105.27 20.28 105.27 20.28 91.3 30.55 91.3 30.55 93.77"/>
    <polygon points="36.18 102.75 43.13 102.75 43.13 105.27 33.26 105.27 33.26 91.3 36.18 91.3 36.18 102.75"/>
    <rect x="44.92" y="91.3" width="2.92" height="13.97"/>
    <polygon points="56.5 105.27 53.58 105.27 53.58 93.77 49.35 93.77 49.35 91.3 60.73 91.3 60.73 93.77 56.5 93.77 56.5 105.27"/>
    <polygon points="72.74 93.77 65.32 93.77 65.32 96.72 72.13 96.72 72.13 99.19 65.32 99.19 65.32 102.81 73.07 102.81 73.07 105.27 62.46 105.27 62.46 91.3 72.74 91.3 72.74 93.77"/>
    <path d="M82.01,97.75h5.84v7.53h-1.94l-.3-1.74c-.74.85-1.81,2.11-4.36,2.11-3.36,0-6.42-2.41-6.42-7.32,0-3.82,2.12-7.42,6.83-7.4,4.28,0,5.99,2.79,6.13,4.71h-2.92c0-.55-.99-2.3-3.05-2.3s-4.01,1.44-4.01,5.02c0,3.82,2.08,4.81,4.07,4.81.64,0,2.79-.25,3.38-3.08h-3.25v-2.35Z"/>
    <path d="M93.46,97.45v-3.74h3.64c1.71,0,2.04,1.09,2.04,1.83,0,1.38-.73,1.91-2.25,1.91h-3.43M90.59,105.27h2.87v-5.47h3.01c2.17,0,2.28.74,2.28,2.65,0,1.44.12,2.16.32,2.81h3.22v-.36c-.62-.24-.62-.74-.62-2.79,0-2.61-.63-3.04-1.77-3.55,1.38-.46,2.16-1.79,2.16-3.33,0-1.21-.67-3.95-4.39-3.95h-7.08v13.97Z"/>
    <path d="M106.57,98.29c0-3.92,2.22-4.89,3.79-4.89s3.8.97,3.8,4.89-2.23,4.88-3.8,4.88-3.79-.97-3.79-4.88M103.65,98.29c0,6.55,4.87,7.35,6.71,7.35s6.72-.8,6.72-7.35-4.87-7.36-6.72-7.36-6.71.79-6.71,7.36Z"/>
    <path d="M130.6,100.4c0,3.68-2.22,5.25-5.74,5.25-1.28,0-3.2-.31-4.44-1.68-.76-.86-1.05-1.99-1.09-3.39v-9.27h2.98v9.07c0,1.95,1.13,2.81,2.5,2.81,2,0,2.82-.97,2.82-2.67v-9.21h2.97v9.09Z"/>
    <path d="M136.39,97.83v-4.11h2.32c1.82,0,2.57.56,2.57,1.93,0,.62,0,2.18-2.18,2.18h-2.71M136.39,100.23h3.35c3.76,0,4.46-3.19,4.46-4.45,0-2.75-1.63-4.48-4.34-4.48h-6.38v13.97h2.92v-5.04Z"/>
  </g>
  <path d="M143.49,47.82c-3.88-.97-7.85-1.69-11.86-2.31-.67-2.11-2.01-4-3.92-5.45-.87-.6-1.75-1.21-2.6-1.76l-4.29-2.49c-.53-.28-1.02-.62-1.5-.89-3.49-2.36-4.22-3.78-3.68-5.59.42-1.57,1.61-2.5,3.96-2.76,2.55-.35,6.71,1.29,10.05,5,.79.84,1.48,1.83,2.08,2.89l1.75-14.65c-6.1-5.27-15.02-7-24.06-3.97-1.42.47-2.82,1.13-4.17,1.88-9.11,5.46-10.03,16.88-3.42,22.41.95.73,1.87,1.42,2.96,2.02l3.53,2.04h0c-11.02.4-21.68,2.24-31.79,5.32-3.04-1.93-4.52-5.39-3.99-9.27.96-7.02,6.5-11.4,16.68-11.12,2.67.07,5.31.45,7.93,1.31l1.61-13.28c-3.49-.8-6.95-1.16-10.39-1.3-13.42-.38-23.22,4.04-28.67,12.26l-.03.17h-.07c-1.18,1.78-2.14,3.74-2.89,5.87h-14.25l.75-5.87h16.39c.03-.06.06-.11.1-.17l1.41-11.4H27.29l-5.72,47.06h24.1s-.07.03-.09.06l25.72,23.98c5.84-10.42,13.97-19.38,23.74-26.18,3.05,1.46,6.2,2.35,9.55,2.82,9.57,1.13,17.81-1.43,22.48-5.54,3.68-3.3,5.24-7.2,5.03-10.77,2.45-.25,4.94-.41,7.46-.41,1.31,0,2.63.03,3.92.11ZM111.61,46.29s.03,0,.04,0c1.3,1.13,1.63,2.61,1.05,3.83,0,0,0,0,0,0-.26.52-.65.97-1.21,1.36-1.1.69-2.78,1.07-4.76,1.04-.02,0-.03.01-.05.02-2.56-.08-5.65-.91-8.8-2.89-.97-.61-1.9-1.32-2.83-2.19h0c5.41-.77,10.94-1.17,16.56-1.17ZM40.28,52.08l.83-6.55h13.88c.15,2.32.65,4.52,1.43,6.55h-16.14ZM70.62,84.38l-21.31-20.35c.14-.08.3-.18.44-.26,3.4-2.09,6.88-3.98,10.5-5.72,2.05-1,4.14-1.92,6.26-2.8,4.21-1.74,8.54-3.25,12.97-4.51,5-1.4,10.14-2.5,15.38-3.25.04,0,.07-.02.12-.02,0,0,0,0,0,0l-1.49,12.53c-.88.59-1.7,1.21-2.55,1.84-8.1,6.17-15.03,13.8-20.32,22.53Z"/>
</svg>