<svg viewBox="0 0 252 59" xmlns="http://www.w3.org/2000/svg" aria-label="AISO">
  <g fill="#111936">
    <path d="M99.8099 0H88.9199V59H99.8099V0Z"/>
    <path d="M113.49 58.9V47.9H157.83C161.335 47.9 164.415 45 164.415 41.69V41.33C164.415 38.025 161.34 35.12 157.83 35.12H130.055C120.565 35.12 112.845 27.4 112.845 17.91V17.365C112.845 7.875 120.565 0.154999 130.055 0.154999H173.145V11.155H130.43C126.925 11.155 123.845 14.055 123.845 17.365V17.91C123.845 21.215 126.92 24.12 130.43 24.12H158.205C167.695 24.12 175.415 31.84 175.415 41.33V41.69C175.415 51.18 167.61 58.9 158.02 58.9H113.49Z"/>
    <path d="M217.07 58.93C215.695 58.93 214.31 58.86 211.55 58.715C194.165 57.82 182.485 46.075 182.485 29.49C182.485 12.905 194.165 1.095 211.545 0.265002C214.305 0.135002 215.695 0.0650024 217.07 0.0650024C218.445 0.0650024 219.83 0.130002 222.595 0.265002C239.975 1.095 251.655 12.84 251.655 29.49C251.655 46.14 239.975 57.82 222.595 58.715C219.835 58.855 218.45 58.93 217.075 58.93H217.07ZM217.4 11.015C215.335 11.015 213.255 11.1 211.53 11.26C199.97 12.315 193.345 18.96 193.345 29.49C193.345 40.02 199.97 46.415 211.52 47.72C212.865 47.87 214.98 47.96 217.175 47.96C219.37 47.96 221.3 47.875 222.615 47.72C234.165 46.345 240.79 39.7 240.79 29.49C240.79 19.28 234.335 12.645 222.615 11.26C221.255 11.1 219.45 11.015 217.4 11.015Z"/>
    <path d="M67.825 59L60.28 46.86H31.275L37.43 35.97H53.515L40.515 15.05L13.14 58.995H0C3.38 53.415 24.42 18.69 32.21 5.75501L32.545 5.20001C34.82 1.46501 36.98 0.0750122 40.515 0.0750122C44.05 0.0750122 46.325 1.51001 48.48 5.19001C48.55 5.31001 48.815 5.75001 48.815 5.75001C56.57 18.705 77.64 53.41 81.025 58.99H67.825V59Z"/>
  </g>
</svg>
